{
.appVersion = "3087";
.formatVersion = 3;
DisplayStrings = (
"/anynomous"
);
customParameters = (
{
name = vendorID;
value = PfEd;
},
{
name = panose;
value = (
2,
0,
5,
3,
0,
0,
0,
0,
0,
0
);
},
{
name = unicodeRanges;
value = (
0,
60
);
},
{
name = codePageRanges;
value = (
"1252",
"bit 31"
);
},
{
name = fsType;
value = (
);
},
{
name = glyphOrder;
value = (
.notdef,
.null,
CR,
add,
anynomous,
"arrow-down",
"arrow-left",
"arrow-points",
"arrow-right",
"arrow-up",
camera,
cancel,
check,
"classmates-circle",
clique,
"colleague-circle",
delete,
dropdown,
earth,
edit,
emoticon,
fans,
follow,
follow_add,
follows,
friends,
hotplurk,
hotplurkers,
hotshare,
"like-circle",
like,
logout,
media,
menu,
"message-my",
"message-new",
"message-private",
message,
messages,
notify,
outlink,
plurk,
plurkapp,
"privacy-circle",
privacy,
profile,
push,
refresh,
"replurk-circle",
replurk,
search,
setting,
smile,
sync,
theme,
topplurk,
"user-add",
"user-asking",
"user-blocked",
"user-follow",
"user-friend",
verified,
"volume-mute",
volume,
warning,
bone,
tag,
"friends-line",
"messages-line",
more,
"more-line",
"search-line",
timemachine,
"edit-line",
album,
copy,
"copy-link",
fullwidth,
keyboard,
share,
back,
next,
"notify-line",
password,
"clique-add",
option,
home,
store,
"store-buy",
"store-friends",
"store-hot",
"store-my",
"store-order",
"follow-replurk",
"follow-replurk-cancel",
qrcode,
star,
"star-circle",
porn,
pin,
plurklogo,
scale,
tweak,
rotate,
filter,
date,
location,
"gender-girl",
"gender-boy",
birthday,
poll,
show,
hide,
space,
add.001,
anynomous.001,
"arrow-down.001",
"arrow-left.001",
"arrow-points.001",
"arrow-right.001",
"arrow-up.001",
camera.001,
cancel.001,
check.001,
"classmates-circle.001",
clique.001,
"colleague-circle.001",
delete.001,
dropdown.001,
earth.001,
edit.001,
emoticon.001,
fans.001,
follow.001,
follow_add.001,
follows.001,
friends.001,
hotplurk.001,
hotplurkers.001,
hotshare.001,
"like-circle.001",
like.001,
logout.001,
media.001,
menu.001,

glyphs = (
{
glyphname = add;
lastChange = "2023-04-13 14:33:44 +0000";
layers = (
{
layerId = m01;
shapes = (
{
closed = 1;
nodes = (
(454,866,l),
(394,866,l),
(394,709,l),
(394,551,l),
(236,551,l),
(79,551,l),
(79,493,l),
(79,493,l),
(0,493,l),
(0,493,l),
(0,364,l),
(0,364,l),
(0,364,l),
(79,364,l),
(79,315,l),
(79,315,l),
(236,315,l),
(394,315,l),
(394,158,l),
(394,0,l),
(454,0,l),
(454,0,l),
(454,-79,l),
(454,-79,l),
(454,-79,l),
(572,-79,l),
(572,-79,l),
(572,0,l),
(630,0,l),
(630,0,l),
(630,158,l),
(630,315,l),
(788,315,l),
(945,315,l),
(945,315,l),
(945,364,l),
(945,364,l),
(1024,364,l),
(1024,364,l),
(1024,493,l),
(945,493,l),
(945,493,l),
(945,493,l),
(945,551,l),
(788,551,l),
(630,551,l),
(630,709,l),
(630,866,l),
(630,866,l),
(572,866,l),
(572,866,l),
(572,945,l),
(454,945,l),
(454,945,l),
(454,866,l),
(454,866,l)
);
}
);
width = 1024;
}
);
note = add;
unicode = 61441;
},
{
glyphname = anynomous;
lastChange = "2023-04-13 14:34:20 +0000";
layers = (
{
layerId = m01;
shapes = (
{
closed = 1;
nodes = (
(0,551,l),
(79,551,l),
(79,473,l),
(79,394,l),
(158,394,l),
(158,394,l),
(158,394,l),
(158,315,l),
(158,315,l),
(236,315,l),
(236,315,l),
(236,236,l),
(315,236,l),
(315,236,l),
(315,236,l),
(315,158,l),
(551,158,l),
(551,236,l),
(551,236,l),
(630,236,l),
(709,236,l),
(709,236,l),
(709,158,l),
(945,158,l),
(945,236,l),
(945,236,l),
(1024,236,l),
(1024,315,l),
(1103,315,l),
(1103,394,l),
(1103,394,l),
(1182,394,l),
(1182,473,l),
(1182,551,l),
(1260,551,l),
(1260,551,l),
(1260,630,l),
(1260,709,l),
(1182,709,l),
(1103,709,l),
(1103,709,l),
(1103,630,l),
(945,630,ls),
(788,630,o),
(709,630,q),
(709,630,l),
(709,551,l),
(630,551,l),
(551,551,l),
(551,630,l),
(551,630,l),
(315,630,l),
(158,630,l),
(158,709,l),
(158,709,l),
(79,709,l),
(0,709,l),
(0,630,l),
(0,551,l)
);
},
{
closed = 1;
nodes = (
(473,394,l),
(551,394,l),
(551,394,l),
(551,315,l),
(315,315,l),
(315,394,l),
(315,473,l),
(394,473,l),
(473,473,l),
(473,473,l),
(473,394,l)
);
},
{
closed = 1;
nodes = (
(709,315,l),
(709,394,l),
(709,394,l),
(788,394,l),
(788,394,l),
(788,473,l),
(788,473,l),
(866,473,l),
(945,473,l),
(945,394,l),
(945,315,l)
);
}
);
width = 1260;
}
);
note = anynomous;
unicode = 61442;
},
{
glyphname = "arrow-down";
lastChange = "2023-04-13 13:41:44 +0000";
layers = (
{
layerId = m01;
shapes = (
{
attr = {
fillColor = (0,255);
};
closed = 1;
nodes = (
(563,944,l),
(563,176,l),
(691,176,l),
(691,49,l),
(563,49,l),
(563,-79,l),
(434,-79,l),
(434,49,l),
(306,49,l),
(306,176,l),
(434,176,l),
(434,944,l)
);
},
{
attr = {
fillColor = (0,255);
};
closed = 1;
nodes = (
(179,176,l),
(306,176,l),
(306,305,l),
(179,305,l)
);
},
{
attr = {
fillColor = (0,255);
};
closed = 1;
nodes = (
(179,433,l),
(50,433,l),
(50,305,l),
(179,305,l)
);
},
{
attr = {
fillColor = (0,255);
};
closed = 1;
nodes = (
(818,176,l),
(691,176,l),
(691,305,l),
(818,305,l)
);
},
{
attr = {
fillColor = (0,255);
};
closed = 1;
nodes = (
(818,433,l),
(947,433,l),
(947,305,l),
(818,305,l)
);
}
);
width = 1000;
}
);
note = "arrow-down";
unicode = 61443;
},
{
glyphname = "arrow-left";
lastChange = "2023-04-13 13:41:22 +0000";
layers = (
{
layerId = m01;
shapes = (
{
attr = {
fillColor = (0,255);
};
closed = 1;
nodes = (
(999,386,l),
(251,386,l),
(251,262,l),
(128,262,l),
(128,386,l),
(3,386,l),
(3,512,l),
(128,512,l),
(128,635,l),
(251,635,l),
(251,512,l),
(999,512,l)
);
},
{
attr = {
fillColor = (0,255);
};
closed = 1;
nodes = (
(251,760,l),
(251,635,l),
(377,635,l),
(377,760,l)
);
},
{
attr = {
fillColor = (0,255);
};
closed = 1;
nodes = (
(501,760,l),
(501,885,l),
(377,885,l),
(377,760,l)
);
},
{
attr = {
fillColor = (0,255);
};
closed = 1;
nodes = (
(251,139,l),
(251,262,l),
(377,262,l),
(377,139,l)
);
},
{
attr = {
fillColor = (0,255);
};
closed = 1;
nodes = (
(501,139,l),
(501,13,l),
(377,13,l),
(377,139,l)
);
}
);
width = 1000;
}
);
note = "arrow-left";
unicode = 61444;
},
{
glyphname = "arrow-points";
lastChange = "2023-04-13 12:33:30 +0000";
layers = (
{
layerId = m01;
shapes = (
{
attr = {
fillColor = (0,255);
};
closed = 1;
nodes = (
(500,752,l),
(500,585,l),
(250,585,l),
(250,502,l),
(167,502,l),
(167,252,l),
(250,252,l),
(250,335,l),
(500,335,l),
(500,168,l),
(583,168,l),
(583,252,l),
(667,252,l),
(667,335,l),
(750,335,l),
(750,418,l),
(833,418,l),
(833,502,l),
(750,502,l),
(750,585,l),
(667,585,l),
(667,668,l),
(583,668,l),
(583,752,l)
);
}
);
width = 1000;
}
);
note = "arrow-points";
unicode = 61445;
},
{
glyphname = "arrow-right";
lastChange = "2023-04-13 13:41:10 +0000";
layers = (
{
layerId = m01;
shapes = (
{
attr = {
fillColor = (0,255);
};
closed = 1;
nodes = (
(3,388,l),
(749,388,l),
(749,266,l),
(873,266,l),
(873,388,l),
(997,388,l),
(997,513,l),
(873,513,l),
(873,638,l),
(749,638,l),
(749,513,l),
(3,513,l)
);
},
{
attr = {
fillColor = (0,255);
};
closed = 1;
nodes = (
(749,762,l),
(749,638,l),
(624,638,l),
(624,762,l)
);
},
{
attr = {
fillColor = (0,255);
};
closed = 1;
nodes = (
(501,762,l),
(501,888,l),
(624,888,l),
(624,762,l)
);
},
{
attr = {
fillColor = (0,255);
};
closed = 1;
nodes = (
(749,141,l),
(749,266,l),
(624,266,l),
(624,141,l)
);
},
{
attr = {
fillColor = (0,255);
};
closed = 1;
nodes = (
(501,141,l),
(501,16,l),
(624,16,l),
(624,141,l)
);
}
);
width = 1000;
}
);
note = "arrow-right";
unicode = 61446;
},
{
glyphname = "arrow-up";
lastChange = "2023-04-13 13:42:21 +0000";
layers = (
{
layerId = m01;
shapes = (
{
attr = {
fillColor = (0,255);
};
closed = 1;
nodes = (
(564,-79,l),
(564,688,l),
(695,688,l),
(695,815,l),
(564,815,l),
(564,943,l),
(433,943,l),
(433,815,l),
(302,815,l),
(302,688,l),
(433,688,l),
(433,-79,l)
);
},
{
attr = {
fillColor = (0,255);
};
closed = 1;
nodes = (
(171,688,l),
(302,688,l),
(302,559,l),
(171,559,l)
);
},
{
attr = {
fillColor = (0,255);
};
closed = 1;
nodes = (
(171,431,l),
(40,431,l),
(40,559,l),
(171,559,l)
);
},
{
attr = {
fillColor = (0,255);
};
closed = 1;
nodes = (
(826,688,l),
(695,688,l),
(695,559,l),
(826,559,l)
);
},
{
attr = {
fillColor = (0,255);
};
closed = 1;
nodes = (
(826,431,l),
(957,431,l),
(957,559,l),
(826,559,l)
);
}
);
width = 1000;
}
);
note = "arrow-up";
unicode = 61447;
},
{
glyphname = camera;
lastChange = "2023-04-13 12:33:51 +0000";
layers = (
{
layerId = m01;
shapes = (
{
attr = {
fillColor = (0,255);
};
closed = 1;
nodes = (
(292,805,l),
(292,722,l),
(83,722,l),
(83,55,l),
(917,55,l),
(917,722,l),
(708,722,l),
(708,805,l),
(375,805,l)
);
},
{
attr = {
fillColor = (0,255);
};
closed = 1;
nodes = (
(583,555,l),
(583,472,l),
(417,472,l),
(417,555,l)
);
},
{
attr = {
fillColor = (0,255);
};
closed = 1;
nodes = (
(583,472,l),
(667,472,l),
(667,305,l),
(583,305,l),
(583,222,l),
(417,222,l),
(417,305,l),
(583,305,l)
);
},
{
attr = {
fillColor = (0,255);
};
closed = 1;
nodes = (
(417,472,l),
(417,305,l),
(333,305,l),
(333,472,l)
);
}
);
width = 1000;
}
);
note = camera;
unicode = 61448;
},
{
glyphname = cancel;
lastChange = "2023-04-13 12:52:47 +0000";
layers = (
{
layerId = m01;
shapes = (
{
attr = {
fillColor = (0,255);
};
closed = 1;
nodes = (
(183,887,l),
(183,757,l),
(53,757,l),
(53,887,l)
);
},
{
attr = {
fillColor = (0,255);
};
closed = 1;
nodes = (
(183,628,l),
(183,757,l),
(312,757,l),
(312,628,l)
);
},
{
attr = {
fillColor = (0,255);
};
closed = 1;
nodes = (
(312,500,l),
(312,628,l),
(440,628,l),
(440,500,l)
);
},
{
attr = {
fillColor = (0,255);
};
closed = 1;
nodes = (
(440,500,l),
(440,368,l),
(312,368,l),
(312,239,l),
(183,239,l),
(183,110,l),
(53,110,l),
(53,-20,l),
(183,-20,l),
(183,110,l),
(312,110,l),
(312,239,l),
(440,239,l),
(440,368,l),
(572,368,l),
(572,239,l),
(701,239,l),
(701,110,l),
(830,110,l),
(830,-20,l),
(960,-20,l),
(960,110,l),
(830,110,l),
(830,239,l),
(701,239,l),
(701,368,l),
(572,368,l),
(572,500,l)
);
},
{
attr = {
fillColor = (0,255);
};
closed = 1;
nodes = (
(701,500,l),
(572,500,l),
(572,628,l),
(701,628,l)
);
},
{
attr = {
fillColor = (0,255);
};
closed = 1;
nodes = (
(830,628,l),
(701,628,l),
(701,757,l),
(830,757,l)
);
},
{
attr = {
fillColor = (0,255);
};
closed = 1;
nodes = (
(830,887,l),
(960,887,l),
(960,757,l),
(830,757,l)
);
}
);
width = 1000;
}
);
note = cancel;
unicode = 61449;
},
{
glyphname = check;
lastChange = "2023-04-13 12:53:04 +0000";
layers = (
{
layerId = m01;
shapes = (
{
attr = {
fillColor = (0,255);
};
closed = 1;
nodes = (
(955,806,l),
(955,694,l),
(843,694,l),
(843,806,l)
);
},
{
attr = {
fillColor = (0,255);
};
closed = 1;
nodes = (
(730,694,l),
(843,694,l),
(843,580,l),
(730,580,l)
);
},
{
attr = {
fillColor = (0,255);
};
closed = 1;
nodes = (
(616,580,l),
(730,580,l),
(730,467,l),
(616,467,l)
);
},
{
attr = {
fillColor = (0,255);
};
closed = 1;
nodes = (
(616,355,l),
(616,467,l),
(503,467,l),
(503,355,l)
);
},
{
attr = {
fillColor = (0,255);
};
closed = 1;
nodes = (
(503,240,l),
(503,355,l),
(391,355,l),
(391,240,l)
);
},
{
attr = {
fillColor = (0,255);
};
closed = 1;
nodes = (
(278,128,l),
(391,128,l),
(391,240,l),
(278,240,l)
);
},
{
attr = {
fillColor = (0,255);
};
closed = 1;
nodes = (
(278,355,l),
(278,240,l),
(164,240,l),
(164,355,l)
);
},
{
attr = {
fillColor = (0,255);
};
closed = 1;
nodes = (
(52,355,l),
(52,467,l),
(164,467,l),
(164,355,l)
);
}
);
width = 1000;
}
);
note = check;
unicode = 61450;
},
{
glyphname = "classmates-circle";
layers = (
{
layerId = m01;
shapes = (
{
closed = 1;
nodes = (
(473,394,l),
(630,394,l),
(630,394,l),
(630,473,l),
(473,473,ls),
(315,473,o),
(394,473,q),
(394,394,l),
(394,394,l)
);
},
{
closed = 1;
nodes = (
(236,866,l),
(158,866,l),
(158,788,l),
(158,788,l),
(158,788,l),
(79,788,l),
(79,709,l),
(79,630,l),
(0,630,l),
(0,630,l),
(0,394,l),
(0,236,l),
(0,236,l),
(79,236,l),
(79,158,l),
(79,79,l),
(158,79,l),
(158,79,l),
(158,0,l),
(158,0,l),
(236,0,l),
(315,0,l),
(315,-79,l),
(315,-79,l),
(473,-79,ls),
(630,-79,o),
(709,-79,q),
(709,-79,l),
(709,0,l),
(788,0,l),
(866,0,l),
(866,0,l),
(866,79,l),
(945,79,l),
(945,79,l),
(945,158,l),
(945,236,l),
(945,236,l),
(1024,236,l),
(1024,394,l),
(1024,630,l),
(945,630,l),
(945,630,l),
(945,709,l),
(945,788,l),
(945,788,l),
(866,788,l),
(866,788,l),
(866,866,l),
(788,866,l),
(709,866,l),
(709,866,l),
(709,945,l),
(473,945,l),
(315,945,l),
(315,866,l),
(315,866,l)
);
},
{
closed = 1;
nodes = (
(788,630,ls),
(945,630,o),
(866,630,q),
(866,551,l),
(866,551,l),
(945,551,l),
(945,551,l),
(945,473,l),
(945,394,l),
(945,394,l),
(866,394,l),
(866,473,l),
(866,551,l),
(788,551,l),
(630,551,l),
(630,473,l),
(630,473,l),
(709,473,l),
(788,473,l),
(788,315,l),
(788,236,l),
(709,236,l),
(630,236,l),
(630,158,l),
(630,158,l),
(473,158,ls),
(315,158,o),
(394,158,q),
(394,158,l),
(394,236,l),
(315,236,l),
(236,236,l),
(236,315,l),
(236,473,l),
(315,473,l),
(394,473,l),
(394,473,l),
(394,551,l),
(315,551,l),
(158,551,l),
(158,551,l),
(158,630,l),
(315,630,ls),
(473,630,o),
(394,630,q),
(394,630,l),
(394,709,l),
(473,709,l),
(630,709,l),
(630,630,l),
(630,630,l)
);
},
{
closed = 1;
nodes = (
(945,236,l),
(866,236,l),
(866,236,l),
(866,315,l),
(945,315,l),
(945,315,l),
(945,236,l),
(945,236,l)
);
}
);
width = 1024;
}
);
note = "classmates-circle";
unicode = 61451;
},
{
glyphname = clique;
layers = (
{
layerId = m01;
shapes = (
{
closed = 1;
nodes = (
(473,315,l),
(630,315,l),
(630,394,l),
(630,473,l),
(473,473,ls),
(315,473,o),
(394,473,q),
(394,394,l),
(394,315,l)
);
},
{
closed = 1;
nodes = (
(788,394,l),
(866,394,l),
(866,473,l),
(866,551,l),
(788,551,l),
(709,551,l),
(709,473,l),
(709,394,l)
);
},
{
closed = 1;
nodes = (
(236,394,l),
(315,394,l),
(315,473,l),
(315,551,l),
(236,551,l),
(158,551,l),
(158,473,l),
(158,394,l)
);
},
{
closed = 1;
nodes = (
(236,866,l),
(158,866,l),
(158,788,l),
(158,788,l),
(158,788,l),
(79,788,l),
(79,709,l),
(79,630,l),
(0,630,l),
(0,630,l),
(0,394,l),
(0,236,l),
(0,236,l),
(79,236,l),
(79,158,l),
(79,79,l),
(158,79,l),
(158,79,l),
(158,0,l),
(158,0,l),
(236,0,l),
(315,0,l),
(315,-79,l),
(315,-79,l),
(473,-79,ls),
(630,-79,o),
(709,-79,q),
(709,-79,l),
(709,0,l),
(788,0,l),
(866,0,l),
(866,0,l),
(866,79,l),
(945,79,l),
(945,79,l),
(945,158,l),
(945,236,l),
(945,236,l),
(1024,236,l),
(1024,394,l),
(1024,630,l),
(945,630,l),
(945,630,l),
(945,709,l),
(945,788,l),
(945,788,l),
(866,788,l),
(866,788,l),
(866,866,l),
(788,866,l),
(709,866,l),
(709,866,l),
(709,945,l),
(473,945,l),
(315,945,l),
(315,866,l),
(315,866,l)
);
},
{
closed = 1;
nodes = (
(788,788,l),
(866,788,l),
(866,709,l),
(866,630,l),
(945,630,l),
(945,630,l),
(945,473,l),
(945,394,l),
(945,394,l),
(866,394,l),
(866,315,l),
(866,315,l),
(788,315,l),
(709,315,l),
(709,236,l),
(709,158,l),
(788,158,l),
(788,158,l),
(788,79,l),
(788,79,l),
(788,79,l),
(709,79,l),
(709,79,l),
(709,158,l),
(630,158,l),
(630,158,l),
(630,158,l),
(630,236,l),
(473,236,ls),
(315,236,o),
(394,236,q),
(394,158,l),
(394,158,l),
(315,158,l),
(315,158,l),
(315,79,l),
(315,79,l),
(315,79,l),
(236,79,l),
(236,79,l),
(236,158,l),
(315,158,l),
(315,158,l),
(315,236,l),
(315,315,l),
(236,315,l),
(158,315,l),
(158,315,l),
(158,394,l),
(158,394,l),
(79,394,l),
(79,473,l),
(79,630,l),
(158,630,l),
(158,630,l),
(158,709,l),
(158,788,l),
(236,788,l),
(315,788,l),
(315,788,l),
(315,866,l),
(473,866,ls),
(630,866,o),
(709,866,q),
(709,788,l),
(709,788,l)
);
}
);
width = 1024;
}
);
note = clique;
unicode = 61452;
},
{
glyphname = "colleague-circle";
layers = (
{
layerId = m01;
shapes = (
{
closed = 1;
nodes = (
(473,630,l),
(551,630,l),
(551,630,l),
(551,709,l),
(473,709,l),
(473,709,l),
(473,630,l),
(473,630,l)
);
},
{
closed = 1;
nodes = (
(236,866,l),
(158,866,l),
(158,788,l),
(158,788,l),
(158,788,l),
(79,788,l),
(79,709,l),
(79,630,l),
(0,630,l),
(0,630,l),
(0,394,l),
(0,236,l),
(0,236,l),
(79,236,l),
(79,158,l),
(79,79,l),
(158,79,l),
(158,79,l),
(158,0,l),
(158,0,l),
(236,0,l),
(315,0,l),
(315,-79,l),
(315,-79,l),
(473,-79,ls),
(630,-79,o),
(709,-79,q),
(709,-79,l),
(709,0,l),
(788,0,l),
(866,0,l),
(866,0,l),
(866,79,l),
(945,79,l),
(945,79,l),
(945,158,l),
(945,236,l),
(945,236,l),
(1024,236,l),
(1024,394,l),
(1024,630,l),
(945,630,l),
(945,630,l),
(945,709,l),
(945,788,l),
(945,788,l),
(866,788,l),
(866,788,l),
(866,866,l),
(788,866,l),
(709,866,l),
(709,866,l),
(709,945,l),
(473,945,l),
(315,945,l),
(315,866,l),
(315,866,l)
);
},
{
closed = 1;
nodes = (
(709,630,l),
(788,630,l),
(788,551,l),
(788,473,l),
(630,473,ls),
(472,473,o),
(551,473,q),
(551,473,l),
(551,551,l),
(473,551,l),
(473,551,l),
(473,473,l),
(473,473,l),
(315,473,ls),
(157,473,o),
(236,473,q),
(236,551,l),
(236,630,l),
(315,630,l),
(394,630,l),
(394,709,l),
(394,788,l),
(473,788,l),
(630,788,l),
(630,709,l),
(630,630,l)
);
},
{
closed = 1;
nodes = (
(473,315,l),
(551,315,l),
(551,315,l),
(551,394,l),
(630,394,l),
(788,394,l),
(788,236,l),
(788,158,l),
(473,158,ls),
(157,158,o),
(236,158,q),
(236,236,l),
(236,394,l),
(315,394,l),
(473,394,l),
(473,315,l),
(473,315,l)
);
}
);
width = 1024;
}
);
note = "colleague-circle";
unicode = 61453;
},
{
glyphname = delete;
lastChange = "2023-04-13 12:28:50 +0000";
layers = (
{
layerId = m01;
shapes = (
{
closed = 1;
nodes = (
(158,79,l),
(158,79,l),
(158,0,l),
(158,-79,l),
(473,-79,ls),
(788,-79,o),
(709,-79,q),
(709,0,l),
(709,79,l),
(788,79,l),
(788,79,l),
(788,315,l),
(788,630,l),
(473,630,ls),
(158,630,o),
(79,630,q),
(79,315,l),
(79,79,l)
);
},
{
closed = 1;
nodes = (
(315,158,l),
(315,158,l),
(315,315,l),
(315,473,l),
(315,473,l),
(394,473,l),
(394,315,l),
(394,158,l)
);
},
{
closed = 1;
nodes = (
(473,158,l),
(473,158,l),
(473,315,l),
(473,473,l),
(473,473,l),
(551,473,l),
(551,315,l),
(551,158,l)
);
},
{
closed = 1;
nodes = (
(158,788,l),
(0,788,l),
(0,709,l),
(0,709,l),
(473,709,ls),
(945,709,o),
(866,709,q),
(866,709,l),
(866,788,l),
(788,788,l),
(630,788,l),
(630,866,l),
(630,945,l),
(473,945,ls),
(315,945,o),
(236,945,q),
(236,866,l),
(236,788,l)
);
},
{
closed = 1;
nodes = (
(473,788,l),
(315,788,l),
(315,788,l),
(315,866,l),
(473,866,ls),
(630,866,o),
(551,866,q),
(551,788,l),
(551,788,l)
);
}
);
width = 877;
}
);
note = delete;
unicode = 61454;
},
{
glyphname = dropdown;
lastChange = "2023-04-13 12:28:50 +0000";
layers = (
{
layerId = m01;
shapes = (
{
closed = 1;
nodes = (
(0,551,l),
(79,551,l),
(79,551,l),
(79,473,l),
(158,473,l),
(158,473,l),
(158,473,l),
(158,394,l),
(158,394,l),
(236,394,l),
(236,394,l),
(236,315,l),
(315,315,l),
(315,315,l),
(315,315,l),
(315,236,l),
(315,236,l),
(394,236,l),
(394,236,l),
(394,158,l),
(473,158,l),
(473,158,l),
(473,236,l),
(473,236,l),
(473,236,l),
(551,236,l),
(551,315,l),
(551,315,l),
(630,315,l),
(630,315,l),
(630,394,l),
(630,394,l),
(630,394,l),
(709,394,l),
(709,473,l),
(709,473,l),
(788,473,l),
(788,473,l),
(788,551,l),
(788,551,l),
(788,551,l),
(866,551,l),
(866,630,l),
(866,709,l),
(473,709,l),
(0,709,l),
(0,630,l),
(0,551,l)
);
}
);
width = 866;
}
);
note = dropdown;
unicode = 61455;
},
{
glyphname = earth;
layers = (
{
layerId = m01;
shapes = (
{
closed = 1;
nodes = (
(158,788,l),
(79,788,l),
(79,709,l),
(79,630,l),
(0,630,l),
(0,630,l),
(0,394,l),
(0,236,l),
(0,236,l),
(79,236,l),
(79,158,l),
(79,79,l),
(158,79,l),
(158,79,l),
(158,0,l),
(158,0,l),
(236,0,l),
(315,0,l),
(315,-79,l),
(315,-79,l),
(473,-79,ls),
(630,-79,o),
(709,-79,q),
(709,-79,l),
(709,0,l),
(788,0,l),
(866,0,l),
(866,0,l),
(866,79,l),
(945,79,l),
(945,79,l),
(945,158,l),
(945,236,l),
(945,236,l),
(1024,236,l),
(1024,394,l),
(1024,630,l),
(945,630,l),
(945,630,l),
(945,709,l),
(945,788,l),
(945,788,l),
(866,788,l),
(866,788,l),
(866,866,l),
(788,866,l),
(788,866,l),
(788,788,l),
(788,788,l),
(788,788,l),
(866,788,l),
(866,709,l),
(866,709,l),
(788,709,l),
(709,709,l),
(709,630,l),
(709,630,l),
(630,630,l),
(630,630,l),
(630,551,l),
(630,551,l),
(473,551,ls),
(315,551,o),
(394,551,q),
(394,473,l),
(394,473,l),
(473,473,l),
(473,473,l),
(473,394,l),
(473,394,l),
(394,394,l),
(315,394,l),
(315,394,l),
(315,473,l),
(315,473,l),
(236,473,l),
(236,473,l),
(236,551,l),
(158,551,l),
(158,551,l),
(158,551,l),
(158,630,l),
(158,630,l),
(236,630,l),
(236,709,l),
(236,866,l),
(158,866,l),
(158,866,l),
(158,788,l),
(158,788,l)
);
},
{
closed = 1;
nodes = (
(709,315,l),
(788,315,l),
(788,236,l),
(788,236,l),
(788,236,l),
(866,236,l),
(866,158,l),
(866,79,l),
(788,79,l),
(709,79,l),
(709,0,l),
(709,0,l),
(630,0,l),
(630,0,l),
(630,0,l),
(630,79,l),
(630,79,l),
(551,79,l),
(551,79,l),
(551,158,l),
(473,158,l),
(473,158,l),
(473,158,l),
(473,236,l),
(473,236,l),
(551,236,l),
(551,315,l),
(551,394,l),
(630,394,l),
(630,394,l),
(630,315,l),
(630,315,l)
);
},
{
closed = 1;
nodes = (
(473,866,ls),
(630,866,o),
(551,866,q),
(551,788,l),
(551,788,l),
(630,788,l),
(709,788,l),
(709,866,l),
(709,945,l),
(473,945,l),
(315,945,l),
(315,866,l),
(315,866,l)
);
}
);
width = 1024;
}
);
note = earth;
unicode = 61456;
},
{
glyphname = edit;
layers = (
{
layerId = m01;
shapes = (
{
closed = 1;
nodes = (
(473,236,ls),
(630,236,o),
(551,236,q),
(551,236,l),
(551,315,l),
(473,315,l),
(473,315,l),
(473,315,l),
(473,394,l),
(473,394,l),
(394,394,l),
(394,394,l),
(394,473,l),
(315,473,l),
(315,473,l),
(315,315,l),
(315,236,l)
);
},
{
closed = 1;
nodes = (
(0,866,l),
(0,866,l),
(0,394,l),
(0,0,l),
(0,0,l),
(79,0,l),
(79,-79,l),
(79,-79,l),
(473,-79,l),
(945,-79,l),
(945,-79,l),
(945,0,l),
(945,0,l),
(1024,0,l),
(1024,236,l),
(1024,551,l),
(945,551,l),
(866,551,l),
(866,551,l),
(866,630,l),
(945,630,l),
(945,630,l),
(945,630,l),
(945,709,l),
(945,709,l),
(1024,709,l),
(1024,709,l),
(1024,788,l),
(945,788,l),
(945,788,l),
(945,788,l),
(945,866,l),
(945,866,l),
(866,866,l),
(866,866,l),
(866,945,l),
(788,945,l),
(788,945,l),
(788,866,l),
(788,866,l),
(788,866,l),
(709,866,l),
(709,788,l),
(709,788,l),
(630,788,l),
(630,788,l),
(630,866,l),
(630,945,l),
(315,945,ls),
(0,945,o),
(79,945,q),
(79,866,l),
(79,866,l)
);
},
{
closed = 1;
nodes = (
(630,709,l),
(551,709,l),
(551,630,l),
(551,630,l),
(473,630,l),
(473,630,l),
(473,551,l),
(473,551,l),
(473,551,l),
(394,551,l),
(394,473,l),
(394,473,l),
(473,473,l),
(473,473,l),
(473,394,l),
(473,394,l),
(473,394,l),
(551,394,l),
(551,315,l),
(551,315,l),
(630,315,l),
(630,315,l),
(630,315,l),
(630,394,l),
(630,394,l),
(709,394,l),
(709,394,l),
(709,473,l),
(788,473,l),
(788,473,l),
(788,473,l),
(788,551,l),
(788,551,l),
(866,551,l),
(866,315,l),
(866,79,l),
(473,79,l),
(158,79,l),
(158,394,l),
(158,788,l),
(394,788,l),
(630,788,l),
(630,709,l),
(630,709,l)
);
}
);
width = 1024;
}
);
note = edit;
unicode = 61457;
},
{
glyphname = emoticon;
layers = (
{
layerId = m01;
shapes = (
{
closed = 1;
nodes = (
(236,866,l),
(158,866,l),
(158,788,l),
(158,788,l),
(158,788,l),
(79,788,l),
(79,709,l),
(79,630,l),
(0,630,l),
(0,630,l),
(0,394,l),
(0,236,l),
(0,236,l),
(79,236,l),
(79,158,l),
(79,79,l),
(158,79,l),
(158,79,l),
(158,0,l),
(158,0,l),
(236,0,l),
(315,0,l),
(315,-79,l),
(315,-79,l),
(473,-79,ls),
(630,-79,o),
(709,-79,q),
(709,-79,l),
(709,0,l),
(788,0,l),
(866,0,l),
(866,0,l),
(866,79,l),
(945,79,l),
(945,79,l),
(945,158,l),
(945,236,l),
(945,236,l),
(1024,236,l),
(1024,394,l),
(1024,630,l),
(945,630,l),
(945,630,l),
(945,709,l),
(945,788,l),
(945,788,l),
(866,788,l),
(866,788,l),
(866,866,l),
(788,866,l),
(709,866,l),
(709,866,l),
(709,945,l),
(473,945,l),
(315,945,l),
(315,866,l),
(315,866,l)
);
},
{
closed = 1;
nodes = (
(315,473,l),
(315,473,l),
(315,551,l),
(315,630,l),
(315,630,l),
(394,630,l),
(394,551,l),
(394,473,l)
);
},
{
closed = 1;
nodes = (
(630,473,l),
(630,473,l),
(630,551,l),
(630,630,l),
(630,630,l),
(709,630,l),
(709,551,l),
(709,473,l)
);
},
{
closed = 1;
nodes = (
(315,315,l),
(394,315,l),
(394,236,l),
(394,236,l),
(473,236,l),
(630,236,l),
(630,236,l),
(630,315,l),
(630,315,l),
(709,315,l),
(709,315,l),
(709,394,l),
(788,394,l),
(788,394,l),
(788,315,l),
(788,315,l),
(788,315,l),
(709,315,l),
(709,236,l),
(709,236,l),
(630,236,l),
(630,236,l),
(630,158,l),
(630,158,l),
(473,158,ls),
(315,158,o),
(394,158,q),
(394,158,l),
(394,236,l),
(315,236,l),
(315,236,l),
(315,236,l),
(315,315,l),
(315,315,l),
(236,315,l),
(236,315,l),
(236,394,l),
(315,394,l),
(315,394,l),
(315,315,l),
(315,315,l)
);
}
);
width = 1024;
}
);
note = emoticon;
unicode = 61458;
},
{
glyphname = fans;
lastChange = "2023-04-13 12:28:50 +0000";
layers = (
{
layerId = m01;
shapes = (
{
closed = 1;
nodes = (
(945,866,l),
(945,866,l),
(945,709,l),
(945,630,l),
(866,630,l),
(866,630,l),
(866,551,l),
(866,473,l),
(788,473,l),
(788,473,l),
(788,551,l),
(788,630,l),
(709,630,l),
(630,630,l),
(630,473,l),
(630,394,l),
(473,394,l),
(315,394,l),
(315,394,l),
(315,473,l),
(236,473,l),
(236,473,l),
(236,473,l),
(236,551,l),
(158,551,l),
(158,551,l),
(158,630,l),
(158,788,l),
(79,788,l),
(79,788,l),
(79,709,l),
(79,709,l),
(0,709,l),
(0,709,l),
(0,709,l),
(0,788,l),
(-79,788,l),
(-79,788,l),
(-79,709,l),
(-79,709,l),
(-79,709,l),
(0,709,l),
(0,630,l),
(0,630,l),
(0,630,l),
(79,630,l),
(79,551,l),
(79,551,l),
(79,551,l),
(158,551,l),
(158,473,l),
(158,473,l),
(158,473,l),
(236,473,l),
(236,394,l),
(236,394,l),
(236,394,l),
(315,394,l),
(315,315,l),
(315,315,l),
(315,315,l),
(394,315,l),
(394,79,l),
(394,-79,l),
(551,-79,l),
(788,-79,l),
(788,79,l),
(788,236,l),
(788,236,l),
(866,236,l),
(866,315,l),
(866,394,l),
(866,394,l),
(945,394,l),
(945,473,l),
(945,630,l),
(945,630,l),
(1024,630,l),
(1024,709,l),
(1024,866,l),
(1024,866,l),
(1103,866,l),
(1103,866,l),
(1103,945,l),
(1024,945,l),
(1024,945,l),
(1024,866,l),
(1024,866,l)
);
}
);
width = 1103;
}
);
note = fans;
unicode = 61459;
},
{
glyphname = follow;
lastChange = "2023-04-13 13:43:37 +0000";
layers = (
{
layerId = m01;
shapes = (
{
closed = 1;
nodes = (
(475,474,l),
(554,474,l),
(554,474,l),
(554,474,l),
(554,395,l),
(554,395,l),
(475,395,l)
);
},
{
closed = 1;
nodes = (
(709,473,l),
(709,394,l),
(709,394,l),
(633,394,l),
(633,394,l),
(633,315,l),
(555,315,l),
(555,315,l),
(555,394,l),
(555,394,l),
(555,394,l),
(633,394,l),
(633,473,l)
);
},
{
closed = 1;
nodes = (
(236,709,l),
(158,709,l),
(158,709,l),
(158,630,l),
(158,630,l),
(79,630,l),
(79,630,l),
(79,551,l),
(0,551,l),
(0,551,l),
(0,473,l),
(0,315,l),
(0,315,l),
(79,315,l),
(79,315,l),
(79,236,l),
(158,236,l),
(158,236,l),
(158,236,l),
(158,158,l),
(236,158,l),
(315,158,l),
(315,158,l),
(315,79,l),
(630,79,ls),
(945,79,o),
(866,79,q),
(866,158,l),
(866,158,l),
(945,158,l),
(1024,158,l),
(1024,236,l),
(1024,236,l),
(1103,236,l),
(1103,236,l),
(1103,315,l),
(1103,315,l),
(1103,315,l),
(1182,315,l),
(1182,473,l),
(1182,551,l),
(1103,551,l),
(1103,551,l),
(1103,630,l),
(1103,630,l),
(1103,630,l),
(1024,630,l),
(1024,709,l),
(1024,709,l),
(945,709,l),
(866,709,l),
(866,788,l),
(866,788,l),
(630,788,l),
(315,788,l),
(315,788,l),
(315,709,l)
);
},
{
closed = 1;
nodes = (
(788,630,l),
(788,630,l),
(788,630,l),
(788,551,l),
(866,551,l),
(866,473,l),
(866,315,l),
(788,315,l),
(788,315,l),
(788,315,l),
(788,236,l),
(788,236,l),
(709,236,l),
(709,236,l),
(709,158,l),
(630,158,l),
(473,158,l),
(473,236,l),
(473,236,l),
(473,236,l),
(394,236,l),
(394,315,l),
(394,315,l),
(315,315,l),
(315,315,l),
(315,473,l),
(315,551,l),
(315,551,l),
(394,551,l),
(394,630,l),
(394,630,l),
(473,630,l),
(473,630,l),
(473,709,l),
(473,709,l),
(630,709,ls),
(788,709,o),
(709,709,q),
(709,709,l),
(709,630,l)
);
},
{
closed = 1;
nodes = (
(394,315,l),
(473,315,l),
(473,315,l),
(473,315,l),
(473,236,l),
(630,236,ls),
(788,236,o),
(709,236,q),
(709,315,l),
(709,315,l),
(788,315,l),
(788,315,l),
(788,473,l),
(788,551,l),
(709,551,l),
(709,630,l),
(709,630,l),
(630,630,l),
(473,630,l),
(473,630,l),
(473,551,l),
(473,551,l),
(394,551,l),
(394,551,l)
);
}
);
width = 1182;
}
);
note = follow;
unicode = 61460;
},
{
glyphname = follow_add;
lastChange = "2023-04-13 12:28:50 +0000";
layers = (
{
layerId = m01;
shapes = (
{
closed = 1;
nodes = (
(473,551,l),
(394,551,l),
(394,473,l),
(394,315,l),
(473,315,l),
(473,315,l),
(473,315,l),
(473,236,l),
(630,236,ls),
(788,236,o),
(709,236,q),
(709,315,l),
(709,315,l),
(788,315,l),
(788,315,l),
(788,473,l),
(788,551,l),
(788,551,l),
(709,551,l),
(709,630,l),
(709,630,l),
(630,630,l),
(473,630,l),
(473,630,l),
(473,551,l)
);
},
{
closed = 1;
nodes = (
(630,473,l),
(709,473,l),
(709,473,l),
(709,394,l),
(630,394,l),
(630,394,l),
(630,394,l),
(630,315,l),
(630,315,l),
(551,315,l),
(551,394,l),
(551,394,l),
(473,394,l),
(473,394,l),
(473,473,l),
(473,473,l),
(473,473,l),
(551,473,l),
(551,551,l),
(551,551,l),
(630,551,l),
(630,551,l),
(630,551,l),
(630,473,l)
);
},
{
closed = 1;
nodes = (
(236,709,l),
(158,709,l),
(158,709,l),
(158,630,l),
(158,630,l),
(79,630,l),
(79,630,l),
(79,551,l),
(0,551,l),
(0,551,l),
(0,473,l),
(0,315,l),
(0,315,l),
(79,315,l),
(79,315,l),
(79,236,l),
(158,236,l),
(158,236,l),
(158,236,l),
(158,158,l),
(236,158,l),
(315,158,l),
(315,158,l),
(315,79,l),
(630,79,ls),
(945,79,o),
(866,79,q),
(866,158,l),
(866,158,l),
(945,158,l),
(1024,158,l),
(1024,236,l),
(1024,236,l),
(1103,236,l),
(1103,236,l),
(1103,315,l),
(1103,315,l),
(1103,315,l),
(1182,315,l),
(1182,473,l),
(1182,551,l),
(1103,551,l),
(1103,551,l),
(1103,630,l),
(1103,630,l),
(1103,630,l),
(1024,630,l),
(1024,709,l),
(1024,709,l),
(945,709,l),
(866,709,l),
(866,788,l),
(866,788,l),
(630,788,l),
(315,788,l),
(315,788,l),
(315,709,l)
);
},
{
closed = 1;
nodes = (
(788,630,l),
(788,630,l),
(788,630,l),
(788,551,l),
(788,551,l),
(866,551,l),
(866,473,l),
(866,315,l),
(788,315,l),
(788,315,l),
(788,315,l),
(788,236,l),
(788,236,l),
(709,236,l),
(709,236,l),
(709,158,l),
(630,158,l),
(473,158,l),
(473,236,l),
(473,236,l),
(473,236,l),
(394,236,l),
(394,315,l),
(394,315,l),
(315,315,l),
(315,315,l),
(315,473,l),
(315,551,l),
(315,551,l),
(394,551,l),
(394,630,l),
(394,630,l),
(473,630,l),
(473,630,l),
(473,709,l),
(473,709,l),
(630,709,ls),
(788,709,o),
(709,709,q),
(709,709,l),
(709,630,l)
);
}
);
width = 1182;
}
);
note = follow_add;
unicode = 61461;
},
{
glyphname = follows;
layers = (
{
layerId = m01;
shapes = (
{
closed = 1;
nodes = (
(630,158,l),
(709,158,l),
(709,236,l),
(709,236,l),
(630,236,l),
(630,236,l),
(630,236,l),
(630,158,l)
);
},
{
closed = 1;
nodes = (
(0,473,l),
(0,473,l),
(0,315,l),
(0,79,l),
(158,79,l),
(315,79,l),
(315,158,l),
(315,158,l),
(315,158,l),
(394,158,l),
(394,158,l),
(394,79,l),
(473,79,l),
(473,79,l),
(473,79,l),
(473,0,l),
(630,0,ls),
(787,0,o),
(866,0,q),
(866,79,l),
(866,79,l),
(945,79,l),
(945,79,l),
(945,158,l),
(945,158,l),
(945,158,l),
(1024,158,l),
(1024,236,l),
(1024,236,l),
(945,236,l),
(945,236,l),
(945,315,l),
(945,315,l),
(945,315,l),
(866,315,l),
(866,394,l),
(866,394,l),
(945,394,l),
(945,394,l),
(945,473,l),
(945,473,l),
(945,473,l),
(866,473,l),
(866,551,l),
(866,551,l),
(630,551,l),
(473,551,l),
(473,551,l),
(473,473,l),
(473,473,l),
(394,473,l),
(394,551,l),
(394,551,l),
(236,551,l),
(79,551,l),
(79,551,l),
(79,473,l)
);
},
{
closed = 1;
nodes = (
(630,394,l),
(473,394,l),
(473,394,l),
(473,315,l),
(473,315,l),
(394,315,l),
(394,315,l),
(394,236,l),
(315,236,l),
(315,236,l),
(315,236,l),
(315,158,l),
(315,158,l),
(236,158,l),
(236,236,l),
(236,236,l),
(315,236,l),
(315,236,l),
(315,315,l),
(315,315,l),
(315,315,l),
(394,315,l),
(394,394,l),
(394,394,l),
(473,394,l),
(473,394,l),
(473,473,l),
(473,473,l),
(630,473,ls),
(787,473,o),
(866,473,q),
(866,473,l),
(866,394,l)
);
},
{
closed = 1;
nodes = (
(630,79,ls),
(472,79,o),
(551,79,q),
(551,236,l),
(551,315,l),
(630,315,l),
(788,315,l),
(788,236,l),
(788,79,l)
);
},
{
closed = 1;
nodes = (
(473,866,l),
(473,866,l),
(473,788,l),
(473,709,l),
(473,709,l),
(551,709,l),
(551,709,l),
(551,630,l),
(630,630,l),
(709,630,l),
(709,709,l),
(709,709,l),
(788,709,l),
(788,709,l),
(788,788,l),
(788,866,l),
(788,866,l),
(709,866,l),
(709,945,l),
(709,945,l),
(630,945,l),
(551,945,l),
(551,945,l),
(551,866,l)
);
},
{
closed = 1;
nodes = (
(158,866,l),
(79,866,l),
(79,788,l),
(79,709,l),
(158,709,l),
(158,709,l),
(158,709,l),
(158,630,l),
(236,630,l),
(315,630,l),
(315,709,l),
(315,709,l),
(315,709,l),
(394,709,l),
(394,788,l),
(394,866,l),
(315,866,l),
(315,866,l),
(315,945,l),
(315,945,l),
(236,945,l),
(158,945,l),
(158,945,l),
(158,866,l)
);
}
);
width = 1024;
}
);
note = follows;
unicode = 61462;
},
{
glyphname = friends;
lastChange = "2023-04-13 12:28:50 +0000";
layers = (
{
layerId = m01;
shapes = (
{
closed = 1;
nodes = (
(158,394,l),
(79,394,l),
(79,394,l),
(79,315,l),
(0,315,l),
(0,315,l),
(0,158,l),
(0,0,l),
(315,0,ls),
(630,0,o),
(551,0,q),
(551,236,l),
(551,394,l),
(630,394,l),
(630,394,l),
(630,236,l),
(630,0,l),
(866,0,l),
(1103,0,l),
(1103,158,l),
(1103,315,l),
(1103,315,l),
(1024,315,l),
(1024,394,l),
(1024,394,l),
(945,394,l),
(945,394,l),
(945,473,l),
(945,473,l),
(788,473,ls),
(630,473,o),
(551,473,q),
(551,473,l),
(551,394,l),
(473,394,l),
(473,394,l),
(473,473,l),
(473,473,l),
(315,473,l),
(158,473,l),
(158,473,l),
(158,394,l)
);
},
{
closed = 1;
nodes = (
(630,788,l),
(551,788,l),
(551,709,l),
(551,630,l),
(630,630,l),
(630,630,l),
(630,630,l),
(630,551,l),
(788,551,ls),
(945,551,o),
(866,551,q),
(866,630,l),
(866,630,l),
(945,630,l),
(945,630,l),
(945,709,l),
(945,788,l),
(945,788,l),
(866,788,l),
(866,866,l),
(866,866,l),
(788,866,l),
(630,866,l),
(630,866,l),
(630,788,l)
);
},
{
closed = 1;
nodes = (
(158,788,l),
(79,788,l),
(79,709,l),
(79,630,l),
(158,630,l),
(158,630,l),
(158,630,l),
(158,551,l),
(315,551,ls),
(473,551,o),
(394,551,q),
(394,630,l),
(394,630,l),
(473,630,l),
(473,630,l),
(473,709,l),
(473,788,l),
(473,788,l),
(394,788,l),
(394,866,l),
(394,866,l),
(315,866,l),
(158,866,l),
(158,866,l),
(158,788,l)
);
}
);
width = 1103;
}
);
note = friends;
unicode = 61463;
},
{
glyphname = hotplurk;
layers = (
{
layerId = m01;
shapes = (
{
closed = 1;
nodes = (
(158,866,l),
(0,866,l),
(0,709,l),
(0,551,l),
(0,551,l),
(79,551,l),
(79,551,l),
(79,473,l),
(158,473,l),
(158,473,l),
(158,473,l),
(158,394,l),
(158,394,l),
(236,394,l),
(236,394,l),
(236,315,l),
(315,315,l),
(315,315,l),
(315,315,l),
(315,236,l),
(394,236,l),
(473,236,l),
(473,158,l),
(473,79,l),
(394,79,l),
(315,79,l),
(315,79,l),
(315,0,l),
(473,0,ls),
(630,0,o),
(709,0,q),
(709,79,l),
(709,79,l),
(630,79,l),
(551,79,l),
(551,158,l),
(551,236,l),
(630,236,l),
(709,236,l),
(709,315,l),
(709,315,l),
(788,315,l),
(788,315,l),
(788,394,l),
(788,394,l),
(788,394,l),
(866,394,l),
(866,473,l),
(866,473,l),
(945,473,l),
(945,473,l),
(945,551,l),
(945,551,l),
(945,551,l),
(1024,551,l),
(1024,709,l),
(1024,866,l),
(945,866,l),
(788,866,l),
(788,945,l),
(788,945,l),
(473,945,ls),
(157,945,o),
(236,945,q),
(236,945,l),
(236,866,l)
);
},
{
closed = 1;
nodes = (
(158,473,l),
(158,473,l),
(158,551,l),
(158,551,l),
(158,551,l),
(79,551,l),
(79,709,l),
(79,788,l),
(158,788,l),
(236,788,l),
(236,630,l),
(236,473,l)
);
},
{
closed = 1;
nodes = (
(945,551,l),
(866,551,l),
(866,551,l),
(866,473,l),
(788,473,l),
(788,473,l),
(788,630,l),
(788,788,l),
(866,788,l),
(945,788,l),
(945,709,l),
(945,551,l)
);
},
{
closed = 1;
nodes = (
(473,630,l),
(551,630,l),
(551,630,l),
(551,551,l),
(473,551,l),
(473,551,l),
(473,551,l),
(473,473,l),
(473,473,l),
(394,473,l),
(394,551,l),
(394,551,l),
(315,551,l),
(315,551,l),
(315,630,l),
(315,630,l),
(315,630,l),
(394,630,l),
(394,709,l),
(394,709,l),
(473,709,l),
(473,709,l),
(473,709,l),
(473,630,l)
);
},
{
closed = 1;
nodes = (
(630,473,l),
(630,473,l),
(630,630,l),
(630,709,l),
(630,709,l),
(709,709,l),
(709,630,l),
(709,473,l)
);
}
);
width = 1024;
}
);
note = hotplurk;
unicode = 61464;
},
{
glyphname = hotplurkers;
lastChange = "2023-04-13 12:28:50 +0000";
layers = (
{
layerId = m01;
shapes = (
{
closed = 1;
nodes = (
(0,394,l),
(0,394,l),
(0,236,l),
(0,0,l),
(0,0,l),
(79,0,l),
(79,79,l),
(79,79,l),
(158,79,l),
(158,79,l),
(158,79,l),
(158,0,l),
(315,0,ls),
(473,0,o),
(394,0,q),
(394,79,l),
(394,79,l),
(473,79,l),
(473,79,l),
(473,79,l),
(473,0,l),
(551,0,l),
(630,0,l),
(630,79,l),
(630,79,l),
(630,79,l),
(709,79,l),
(709,79,l),
(709,0,l),
(788,0,l),
(945,0,l),
(945,79,l),
(945,79,l),
(945,79,l),
(1024,79,l),
(1024,79,l),
(1024,0,l),
(1103,0,l),
(1103,0,l),
(1103,236,l),
(1103,394,l),
(1103,394,l),
(1024,394,l),
(1024,473,l),
(1024,473,l),
(788,473,l),
(630,473,l),
(630,473,l),
(630,394,l),
(551,394,l),
(473,394,l),
(473,473,l),
(473,473,l),
(315,473,ls),
(158,473,o),
(79,473,q),
(79,473,l),
(79,394,l)
);
},
{
closed = 1;
nodes = (
(394,315,l),
(473,315,l),
(473,315,l),
(473,236,l),
(473,236,l),
(394,236,l),
(394,158,l),
(394,79,l),
(315,79,l),
(315,79,l),
(315,158,l),
(315,158,l),
(315,158,l),
(236,158,l),
(236,158,l),
(236,79,l),
(158,79,l),
(158,79,l),
(158,158,l),
(158,236,l),
(158,236,l),
(79,236,l),
(79,315,l),
(79,315,l),
(158,315,l),
(236,315,l),
(236,394,l),
(236,394,l),
(315,394,l),
(315,394,l),
(315,394,l),
(315,315,l)
);
},
{
closed = 1;
nodes = (
(945,315,l),
(1024,315,l),
(1024,315,l),
(1024,236,l),
(945,236,l),
(945,236,l),
(945,158,l),
(945,79,l),
(945,79,l),
(866,79,l),
(866,158,l),
(866,158,l),
(788,158,l),
(788,158,l),
(788,158,l),
(788,79,l),
(788,79,l),
(709,79,l),
(709,158,l),
(709,236,l),
(630,236,l),
(630,236,l),
(630,315,l),
(630,315,l),
(709,315,l),
(788,315,l),
(788,394,l),
(788,394,l),
(788,394,l),
(866,394,l),
(866,394,l),
(866,315,l)
);
},
{
closed = 1;
nodes = (
(630,866,l),
(630,866,l),
(630,788,l),
(630,630,l),
(630,630,l),
(709,630,l),
(709,630,l),
(709,551,l),
(788,551,l),
(945,551,l),
(945,630,l),
(945,630,l),
(945,630,l),
(1024,630,l),
(1024,788,l),
(1024,866,l),
(945,866,l),
(945,866,l),
(945,945,l),
(945,945,l),
(788,945,ls),
(630,945,o),
(709,945,q),
(709,945,l),
(709,866,l)
);
},
{
closed = 1;
nodes = (
(158,866,l),
(79,866,l),
(79,788,l),
(79,630,l),
(158,630,l),
(158,630,l),
(158,630,l),
(158,551,l),
(315,551,ls),
(473,551,o),
(394,551,q),
(394,630,l),
(394,630,l),
(473,630,l),
(473,630,l),
(473,788,l),
(473,866,l),
(473,866,l),
(394,866,l),
(394,945,l),
(394,945,l),
(315,945,l),
(158,945,l),
(158,945,l),
(158,866,l)
);
}
);
width = 1103;
}
);
note = hotplurkers;
unicode = 61465;
},
{
glyphname = hotshare;
lastChange = "2023-04-13 12:28:50 +0000";
layers = (
{
layerId = m01;
shapes = (
{
closed = 1;
nodes = (
(630,551,l),
(551,551,l),
(551,473,l),
(551,473,l),
(473,473,l),
(473,473,l),
(473,394,l),
(473,394,l),
(473,394,l),
(551,394,l),
(551,315,l),
(551,315,l),
(630,315,l),
(709,315,l),
(709,236,l),
(709,158,l),
(709,158,l),
(788,158,l),
(788,158,l),
(788,236,l),
(788,236,l),
(866,236,l),
(866,315,l),
(866,394,l),
(866,394,l),
(945,394,l),
(945,394,l),
(945,473,l),
(866,473,l),
(866,473,l),
(866,551,l),
(866,630,l),
(788,630,l),
(788,630,l),
(788,630,l),
(788,709,l),
(709,709,l),
(709,709,l),
(709,630,l),
(709,551,l)
);
},
{
closed = 1;
nodes = (
(158,788,l),
(79,788,l),
(79,709,l),
(79,630,l),
(0,630,l),
(0,630,l),
(0,551,l),
(0,473,l),
(-79,473,l),
(-79,473,l),
(-79,394,l),
(-79,394,l),
(-79,394,l),
(0,394,l),
(0,315,l),
(0,236,l),
(0,236,l),
(79,236,l),
(79,158,l),
(79,79,l),
(158,79,l),
(236,79,l),
(236,0,l),
(236,-79,l),
(315,-79,l),
(473,-79,l),
(473,-79,l),
(473,0,l),
(473,0,l),
(551,0,l),
(551,-79,l),
(551,-79,l),
(630,-79,l),
(788,-79,l),
(788,0,l),
(788,79,l),
(866,79,l),
(945,79,l),
(945,158,l),
(945,236,l),
(945,236,l),
(1024,236,l),
(1024,315,l),
(1024,394,l),
(1024,394,l),
(1103,394,l),
(1103,394,l),
(1103,473,l),
(1024,473,l),
(1024,473,l),
(1024,551,l),
(1024,630,l),
(945,630,l),
(945,630,l),
(945,709,l),
(945,788,l),
(866,788,l),
(788,788,l),
(788,866,l),
(788,945,l),
(630,945,l),
(551,945,l),
(551,866,l),
(551,866,l),
(473,866,l),
(473,866,l),
(473,866,l),
(473,945,l),
(315,945,l),
(236,945,l),
(236,866,l),
(236,788,l)
);
},
{
closed = 1;
nodes = (
(394,788,l),
(315,788,l),
(315,709,l),
(315,709,l),
(236,709,l),
(236,709,l),
(236,630,l),
(236,630,l),
(158,630,l),
(158,630,l),
(158,551,l),
(158,473,l),
(79,473,l),
(79,473,l),
(79,394,l),
(79,394,l),
(79,394,l),
(158,394,l),
(158,315,l),
(158,236,l),
(158,236,l),
(236,236,l),
(236,158,l),
(236,158,l),
(236,158,l),
(315,158,l),
(315,79,l),
(315,79,l),
(394,79,l),
(473,79,l),
(473,0,l),
(473,0,l),
(394,0,l),
(315,0,l),
(315,0,l),
(315,79,l),
(236,79,l),
(236,79,l),
(236,79,l),
(236,158,l),
(158,158,l),
(158,158,l),
(158,158,l),
(158,236,l),
(79,236,l),
(79,236,l),
(79,315,l),
(79,394,l),
(0,394,l),
(0,394,l),
(0,394,l),
(0,473,l),
(0,473,l),
(79,473,l),
(79,551,l),
(79,630,l),
(79,630,l),
(158,630,l),
(158,630,l),
(158,709,l),
(158,709,l),
(236,709,l),
(236,709,l),
(236,788,l),
(236,788,l),
(315,788,l),
(315,788,l),
(315,866,l),
(394,866,l),
(473,866,l),
(473,788,l),
(473,788,l)
);
},
{
closed = 1;
nodes = (
(709,788,l),
(788,788,l),
(788,709,l),
(788,709,l),
(788,709,l),
(866,709,l),
(866,630,l),
(866,630,l),
(866,630,l),
(945,630,l),
(945,551,l),
(945,473,l),
(945,473,l),
(1024,473,l),
(1024,394,l),
(1024,394,l),
(945,394,l),
(945,394,l),
(945,315,l),
(945,236,l),
(866,236,l),
(866,236,l),
(866,158,l),
(866,158,l),
(788,158,l),
(788,158,l),
(788,79,l),
(788,79,l),
(709,79,l),
(709,79,l),
(709,0,l),
(709,0,l),
(630,0,l),
(551,0,l),
(551,0,l),
(551,79,l),
(630,79,l),
(709,79,l),
(709,79,l),
(709,158,l),
(630,158,l),
(551,158,l),
(551,236,l),
(551,315,l),
(473,315,l),
(473,315,l),
(473,315,l),
(473,394,l),
(394,394,l),
(394,394,l),
(394,315,l),
(394,315,l),
(315,315,l),
(236,315,l),
(236,394,l),
(236,551,l),
(315,551,l),
(394,551,l),
(394,473,l),
(394,473,l),
(394,473,l),
(473,473,l),
(473,473,l),
(473,551,l),
(473,551,l),
(551,551,l),
(551,630,l),
(551,709,l),
(630,709,l),
(709,709,l),
(709,709,l),
(709,788,l),
(630,788,l),
(551,788,l),
(551,788,l),
(551,866,l),
(630,866,l),
(709,866,l),
(709,788,l),
(709,788,l)
);
}
);
width = 1103;
}
);
note = hotshare;
unicode = 61466;
},
{
glyphname = "like-circle";
layers = (
{
layerId = m01;
shapes = (
{
closed = 1;
nodes = (
(236,866,l),
(158,866,l),
(158,788,l),
(158,788,l),
(158,788,l),
(79,788,l),
(79,709,l),
(79,630,l),
(0,630,l),
(0,630,l),
(0,394,l),
(0,236,l),
(0,236,l),
(79,236,l),
(79,158,l),
(79,79,l),
(158,79,l),
(158,79,l),
(158,0,l),
(158,0,l),
(236,0,l),
(315,0,l),
(315,-79,l),
(315,-79,l),
(473,-79,ls),
(630,-79,o),
(709,-79,q),
(709,-79,l),
(709,0,l),
(788,0,l),
(866,0,l),
(866,0,l),
(866,79,l),
(945,79,l),
(945,79,l),
(945,158,l),
(945,236,l),
(945,236,l),
(1024,236,l),
(1024,394,l),
(1024,630,l),
(945,630,l),
(945,630,l),
(945,709,l),
(945,788,l),
(945,788,l),
(866,788,l),
(866,788,l),
(866,866,l),
(788,866,l),
(709,866,l),
(709,866,l),
(709,945,l),
(473,945,l),
(315,945,l),
(315,866,l),
(315,866,l)
);
},
{
closed = 1;
nodes = (
(473,630,l),
(473,630,l),
(473,551,l),
(473,551,l),
(473,551,l),
(551,551,l),
(551,551,l),
(551,630,l),
(630,630,l),
(630,630,l),
(630,630,l),
(630,709,l),
(630,709,l),
(709,709,l),
(709,630,l),
(709,630,l),
(788,630,l),
(788,630,l),
(788,551,l),
(788,551,l),
(788,551,l),
(866,551,l),
(866,473,l),
(866,394,l),
(788,394,l),
(788,394,l),
(788,315,l),
(788,315,l),
(788,315,l),
(709,315,l),
(709,236,l),
(709,236,l),
(630,236,l),
(551,236,l),
(551,158,l),
(551,158,l),
(473,158,l),
(473,158,l),
(473,158,l),
(473,236,l),
(394,236,l),
(315,236,l),
(315,236,l),
(315,315,l),
(315,315,l),
(236,315,l),
(236,315,l),
(236,394,l),
(158,394,l),
(158,394,l),
(158,473,l),
(158,551,l),
(158,551,l),
(236,551,l),
(236,551,l),
(236,630,l),
(315,630,l),
(315,630,l),
(315,630,l),
(315,709,l),
(315,709,l),
(394,709,l),
(394,630,l),
(394,630,l)
);
}
);
width = 1024;
}
);
note = "like-circle";
unicode = 61467;
},
{
glyphname = like;
layers = (
{
layerId = m01;
shapes = (
{
closed = 1;
nodes = (
(158,788,l),
(79,788,l),
(79,788,l),
(79,709,l),
(0,709,l),
(0,709,l),
(0,551,l),
(0,394,l),
(0,394,l),
(79,394,l),
(79,394,l),
(79,315,l),
(158,315,l),
(158,315,l),
(158,315,l),
(158,236,l),
(158,236,l),
(236,236,l),
(236,236,l),
(236,158,l),
(315,158,l),
(315,158,l),
(315,158,l),
(315,79,l),
(394,79,l),
(473,79,l),
(473,79,l),
(473,0,l),
(473,0,l),
(551,0,l),
(551,79,l),
(551,79,l),
(630,79,l),
(709,79,l),
(709,158,l),
(709,158,l),
(788,158,l),
(788,158,l),
(788,236,l),
(788,236,l),
(788,236,l),
(866,236,l),
(866,315,l),
(866,315,l),
(945,315,l),
(945,315,l),
(945,394,l),
(945,394,l),
(945,394,l),
(1024,394,l),
(1024,551,l),
(1024,709,l),
(945,709,l),
(945,709,l),
(945,788,l),
(945,788,l),
(945,788,l),
(866,788,l),
(866,866,l),
(866,866,l),
(788,866,l),
(630,866,l),
(630,866,l),
(630,788,l),
(630,788,l),
(551,788,l),
(551,788,l),
(551,709,l),
(473,709,l),
(473,709,l),
(473,788,l),
(473,788,l),
(473,788,l),
(394,788,l),
(394,866,l),
(394,866,l),
(315,866,l),
(158,866,l),
(158,866,l),
(158,788,l)
);
}
);
width = 1024;
}
);
note = like;
unicode = 61468;
},
{
glyphname = logout;
layers = (
{
layerId = m01;
shapes = (
{
closed = 1;
nodes = (
(158,315,l),
(236,315,l),
(236,394,l),
(236,473,l),
(158,473,l),
(158,473,l),
(158,394,l),
(158,315,l)
);
},
{
closed = 1;
nodes = (
(788,473,l),
(788,473,l),
(788,473,l),
(788,551,l),
(788,551,l),
(709,551,l),
(709,473,l),
(709,473,l)
);
},
{
closed = 1;
nodes = (
(236,866,l),
(158,866,l),
(158,788,l),
(158,788,l),
(158,788,l),
(79,788,l),
(79,709,l),
(79,630,l),
(0,630,l),
(0,630,l),
(0,473,l),
(0,315,l),
(0,315,l),
(79,315,l),
(79,236,l),
(79,158,l),
(158,158,l),
(158,158,l),
(158,79,l),
(158,79,l),
(236,79,l),
(315,79,l),
(315,0,l),
(315,0,l),
(551,0,l),
(788,0,l),
(788,-79,l),
(788,-79,l),
(866,-79,l),
(945,-79,l),
(945,-79,l),
(945,0,l),
(945,0,l),
(866,0,l),
(866,79,l),
(866,158,l),
(945,158,l),
(945,158,l),
(945,158,l),
(945,236,l),
(945,236,l),
(1024,236,l),
(1024,315,l),
(1024,394,l),
(945,394,l),
(945,394,l),
(945,394,l),
(945,473,l),
(945,473,l),
(1024,473,l),
(1024,551,l),
(1024,709,l),
(945,709,l),
(945,709,l),
(945,709,l),
(945,788,l),
(945,788,l),
(866,788,l),
(866,788,l),
(866,866,l),
(788,866,l),
(709,866,l),
(709,866,l),
(709,945,l),
(473,945,l),
(315,945,l),
(315,866,l),
(315,866,l)
);
},
{
closed = 1;
nodes = (
(945,551,l),
(866,551,l),
(866,473,l),
(866,473,l),
(788,473,l),
(788,473,l),
(788,394,l),
(788,394,l),
(788,394,l),
(866,394,l),
(866,315,l),
(866,315,l),
(788,315,l),
(709,315,l),
(709,315,l),
(709,394,l),
(630,394,l),
(630,394,l),
(630,473,l),
(630,551,l),
(630,551,l),
(709,551,l),
(709,551,l),
(709,630,l),
(788,630,l),
(788,630,l),
(788,551,l),
(788,551,l),
(788,551,l),
(866,551,l),
(866,630,l),
(866,709,l),
(945,709,l),
(945,709,l),
(945,630,l),
(945,551,l)
);
},
{
closed = 1;
nodes = (
(158,551,l),
(236,551,l),
(236,473,l),
(236,473,l),
(315,473,l),
(315,473,l),
(315,473,l),
(315,551,l),
(315,551,l),
(394,551,l),
(394,473,l),
(394,473,l),
(473,473,l),
(473,473,l),
(473,551,l),
(473,630,l),
(473,630,l),
(551,630,l),
(551,394,l),
(551,236,l),
(473,236,l),
(473,236,l),
(473,315,l),
(473,394,l),
(473,394,l),
(394,394,l),
(394,394,l),
(394,473,l),
(315,473,l),
(315,473,l),
(315,394,l),
(315,315,l),
(315,315,l),
(236,315,l),
(236,236,l),
(236,236,l),
(158,236,l),
(158,236,l),
(158,236,l),
(158,315,l),
(158,315,l),
(79,315,l),
(79,473,l),
(79,630,l),
(158,630,l),
(158,630,l),
(158,551,l),
(158,551,l)
);
}
);
width = 1024;
}
);
note = logout;
unicode = 61469;
},
{
glyphname = media;
lastChange = "2023-04-13 14:38:57 +0000";
layers = (
{
layerId = m01;
shapes = (
{
closed = 1;
nodes = (
(0,816,l),
(0,816,l),
(0,423,l),
(0,29,l),
(0,29,l),
(79,29,l),
(79,29,l),
(79,-50,l),
(473,-50,l),
(945,-50,l),
(945,29,l),
(945,29,l),
(945,29,l),
(1024,29,l),
(1024,423,l),
(1024,816,l),
(945,816,l),
(945,816,l),
(945,895,l),
(945,895,l),
(473,895,ls),
(0,895,o),
(79,895,q),
(79,895,l),
(79,816,l)
);
},
{
closed = 1;
nodes = (
(315,501,l),
(158,501,l),
(158,659,l),
(158,738,l),
(315,738,ls),
(473,738,o),
(394,738,q),
(394,659,l),
(394,501,l)
);
},
{
closed = 1;
nodes = (
(788,423,l),
(788,423,l),
(788,344,l),
(788,265,l),
(788,265,l),
(866,265,l),
(866,186,l),
(866,108,l),
(945,108,l),
(945,108,l),
(945,108,l),
(945,29,l),
(473,29,ls),
(0,29,o),
(79,29,q),
(79,108,l),
(79,108,l),
(158,108,l),
(158,108,l),
(158,186,l),
(158,186,l),
(158,186,l),
(236,186,l),
(236,265,l),
(236,265,l),
(315,265,l),
(315,265,l),
(315,265,l),
(315,186,l),
(315,186,l),
(394,186,l),
(394,265,l),
(394,265,l),
(473,265,l),
(473,265,l),
(473,344,l),
(473,344,l),
(473,344,l),
(551,344,l),
(551,423,l),
(551,423,l),
(630,423,l),
(630,423,l),
(630,501,l),
(630,501,l),
(630,501,l),
(709,501,l),
(709,501,l),
(709,423,l)
);
}
);
width = 1024;
}
);
note = media;
unicode = 61470;
},
{
glyphname = menu;
layers = (
{
layerId = m01;
shapes = (
{
closed = 1;
nodes = (
(473,158,ls),
(945,158,o),
(1024,158,q),
(1024,236,l),
(1024,315,l),
(473,315,l),
(0,315,l),
(0,236,l),
(0,158,l)
);
},
{
closed = 1;
nodes = (
(473,394,ls),
(945,394,o),
(1024,394,q),
(1024,473,l),
(1024,551,l),
(473,551,l),
(0,551,l),
(0,473,l),
(0,394,l)
);
},
{
closed = 1;
nodes = (
(473,630,ls),
(945,630,o),
(1024,630,q),
(1024,709,l),
(1024,788,l),
(473,788,l),
(0,788,l),
(0,709,l),
(0,630,l)
);
}
);
width = 1024;
}
);
note = menu;
unicode = 61471;
},
{
glyphname = "message-my";
layers = (
{
layerId = m01;
shapes = (
{
closed = 1;
nodes = (
(0,394,l),
(0,394,l),
(0,236,l),
(0,0,l),
(236,0,l),
(473,0,l),
(473,236,l),
(473,394,l),
(473,394,l),
(394,394,l),
(394,473,l),
(394,473,l),
(236,473,l),
(79,473,l),
(79,473,l),
(79,394,l)
);
},
{
closed = 1;
nodes = (
(158,788,l),
(79,788,l),
(79,709,l),
(79,630,l),
(158,630,l),
(158,630,l),
(158,630,l),
(158,551,l),
(236,551,l),
(315,551,l),
(315,630,l),
(315,630,l),
(315,630,l),
(394,630,l),
(394,630,l),
(394,551,l),
(473,551,l),
(473,551,l),
(473,551,l),
(473,473,l),
(473,473,l),
(551,473,l),
(551,473,l),
(551,394,l),
(788,394,l),
(945,394,l),
(945,473,l),
(945,473,l),
(945,473,l),
(1024,473,l),
(1024,630,l),
(1024,709,l),
(945,709,l),
(945,709,l),
(945,788,l),
(945,788,l),
(788,788,ls),
(630,788,o),
(551,788,q),
(551,788,l),
(551,709,l),
(473,709,l),
(473,709,l),
(473,709,l),
(473,630,l),
(473,630,l),
(394,630,l),
(394,709,l),
(394,788,l),
(315,788,l),
(315,788,l),
(315,866,l),
(315,866,l),
(236,866,l),
(158,866,l),
(158,866,l),
(158,788,l)
);
},
{
closed = 1;
nodes = (
(630,551,l),
(551,551,l),
(551,630,l),
(551,630,l),
(630,630,l),
(630,630,l),
(630,630,l),
(630,551,l)
);
},
{
closed = 1;
nodes = (
(788,551,l),
(709,551,l),
(709,630,l),
(709,630,l),
(788,630,l),
(788,630,l),
(788,630,l),
(788,551,l)
);
},
{
closed = 1;
nodes = (
(945,551,l),
(866,551,l),
(866,630,l),
(866,630,l),
(945,630,l),
(945,630,l),
(945,630,l),
(945,551,l)
);
}
);
width = 1024;
}
);
note = "message-my";
unicode = 61472;
},
{
glyphname = "message-new";
layers = (
{
layerId = m01;
shapes = (
{
closed = 1;
nodes = (
(473,394,l),
(551,394,l),
(551,473,l),
(551,473,l),
(473,473,l),
(473,473,l),
(473,473,l),
(473,394,l)
);
},
{
closed = 1;
nodes = (
(158,788,l),
(79,788,l),
(79,788,l),
(79,709,l),
(0,709,l),
(0,709,l),
(0,551,l),
(0,315,l),
(0,315,l),
(79,315,l),
(79,315,l),
(79,236,l),
(158,236,l),
(158,236,l),
(158,158,l),
(158,0,l),
(158,0,l),
(236,0,l),
(236,79,l),
(236,79,l),
(315,79,l),
(315,79,l),
(315,158,l),
(315,158,l),
(630,158,ls),
(945,158,o),
(866,158,q),
(866,236,l),
(866,236,l),
(945,236,l),
(945,236,l),
(945,315,l),
(945,315,l),
(945,315,l),
(1024,315,l),
(1024,394,l),
(1024,473,l),
(945,473,l),
(945,473,l),
(945,551,l),
(945,630,l),
(945,630,l),
(1024,630,l),
(1024,709,l),
(1024,709,l),
(945,709,l),
(945,709,l),
(945,788,l),
(945,788,l),
(945,788,l),
(866,788,l),
(866,866,l),
(866,866,l),
(473,866,l),
(158,866,l),
(158,866,l),
(158,788,l)
);
},
{
closed = 1;
nodes = (
(158,630,l),
(236,630,l),
(236,630,l),
(236,551,l),
(315,551,l),
(315,551,l),
(315,630,l),
(315,709,l),
(315,709,l),
(394,709,l),
(394,630,l),
(394,473,l),
(473,473,l),
(473,473,l),
(473,551,l),
(473,551,l),
(473,551,l),
(551,551,l),
(551,551,l),
(551,473,l),
(630,473,l),
(630,473,l),
(630,551,l),
(630,630,l),
(630,630,l),
(709,630,l),
(709,551,l),
(709,473,l),
(788,473,l),
(788,473,l),
(788,551,l),
(788,630,l),
(788,630,l),
(866,630,l),
(866,551,l),
(866,473,l),
(945,473,l),
(945,473,l),
(945,473,l),
(945,394,l),
(945,394,l),
(866,394,l),
(866,473,l),
(866,473,l),
(788,473,l),
(788,473,l),
(788,473,l),
(788,394,l),
(788,394,l),
(709,394,l),
(709,473,l),
(709,473,l),
(630,473,l),
(630,473,l),
(630,473,l),
(630,394,l),
(630,394,l),
(551,394,l),
(551,394,l),
(551,315,l),
(630,315,l),
(630,315,l),
(630,315,l),
(630,236,l),
(551,236,l),
(473,236,l),
(473,315,l),
(473,394,l),
(394,394,l),
(315,394,l),
(315,473,l),
(315,473,l),
(315,473,l),
(236,473,l),
(236,551,l),
(236,551,l),
(158,551,l),
(158,551,l),
(158,473,l),
(158,394,l),
(158,394,l),
(79,394,l),
(79,551,l),
(79,709,l),
(158,709,l),
(158,709,l),
(158,709,l),
(158,630,l)
);
}
);
width = 1024;
}
);
note = "message-new";
unicode = 61473;
},
{
glyphname = "message-private";
lastChange = "2023-04-13 12:28:50 +0000";
layers = (
{
layerId = m01;
shapes = (
{
closed = 1;
nodes = (
(315,866,l),
(236,866,l),
(236,788,l),
(236,788,l),
(158,788,l),
(158,788,l),
(158,630,l),
(158,551,l),
(158,551,l),
(79,551,l),
(79,473,l),
(79,473,l),
(0,473,l),
(0,473,l),
(0,315,l),
(0,158,l),
(0,158,l),
(79,158,l),
(79,79,l),
(79,79,l),
(158,79,l),
(236,79,l),
(236,0,l),
(236,0,l),
(394,0,l),
(551,0,l),
(551,-79,l),
(551,-79,l),
(630,-79,l),
(709,-79,l),
(709,-79,l),
(709,0,l),
(630,0,l),
(630,0,l),
(630,0,l),
(630,79,l),
(630,79,l),
(709,79,l),
(709,79,l),
(709,158,l),
(788,158,l),
(788,158,l),
(788,315,l),
(788,473,l),
(788,473,l),
(709,473,l),
(709,473,l),
(709,551,l),
(630,551,l),
(630,551,l),
(630,630,l),
(630,788,l),
(630,788,l),
(551,788,l),
(551,788,l),
(551,866,l),
(473,866,l),
(473,866,l),
(473,866,l),
(473,945,l),
(394,945,l),
(315,945,l),
(315,866,l),
(315,866,l)
);
},
{
closed = 1;
nodes = (
(473,788,l),
(551,788,l),
(551,709,l),
(551,630,l),
(394,630,l),
(236,630,l),
(236,709,l),
(236,788,l),
(315,788,l),
(315,788,l),
(315,788,l),
(315,866,l),
(394,866,l),
(473,866,l),
(473,788,l),
(473,788,l)
);
},
{
closed = 1;
nodes = (
(473,158,l),
(394,158,l),
(394,236,l),
(394,315,l),
(315,315,l),
(315,315,l),
(315,394,l),
(315,473,l),
(394,473,l),
(473,473,l),
(473,315,l),
(473,158,l)
);
}
);
width = 788;
}
);
note = "message-private";
unicode = 61474;
},
{
glyphname = message;
layers = (
{
layerId = m01;
shapes = (
{
closed = 1;
nodes = (
(158,788,l),
(79,788,l),
(79,788,l),
(79,709,l),
(0,709,l),
(0,709,l),
(0,551,l),
(0,315,l),
(0,315,l),
(79,315,l),
(79,315,l),
(79,236,l),
(158,236,l),
(158,236,l),
(158,158,l),
(158,0,l),
(158,0,l),
(236,0,l),
(236,79,l),
(236,79,l),
(315,79,l),
(394,79,l),
(394,158,l),
(394,158,l),
(630,158,l),
(866,158,l),
(866,236,l),
(866,236,l),
(945,236,l),
(945,236,l),
(945,315,l),
(945,315,l),
(945,315,l),
(1024,315,l),
(1024,551,l),
(1024,709,l),
(945,709,l),
(945,709,l),
(945,788,l),
(945,788,l),
(945,788,l),
(866,788,l),
(866,866,l),
(866,866,l),
(473,866,l),
(158,866,l),
(158,866,l),
(158,788,l)
);
},
{
closed = 1;
nodes = (
(315,473,l),
(315,473,l),
(315,551,l),
(315,551,l),
(315,551,l),
(394,551,l),
(394,551,l),
(394,473,l)
);
},
{
closed = 1;
nodes = (
(473,473,l),
(473,473,l),
(473,551,l),
(473,551,l),
(473,551,l),
(551,551,l),
(551,551,l),
(551,473,l)
);
},
{
closed = 1;
nodes = (
(630,473,l),
(630,473,l),
(630,551,l),
(630,551,l),
(630,551,l),
(709,551,l),
(709,551,l),
(709,473,l)
);
}
);
width = 1024;
}
);
note = message;
unicode = 61475;
},
{
glyphname = messages;
lastChange = "2023-04-13 12:28:50 +0000";
layers = (
{
layerId = m01;
shapes = (
{
closed = 1;
nodes = (
(158,866,l),
(79,866,l),
(79,788,l),
(79,788,l),
(0,788,l),
(0,788,l),
(0,630,l),
(0,473,l),
(0,473,l),
(79,473,l),
(79,394,l),
(79,315,l),
(158,315,l),
(158,315,l),
(158,236,l),
(158,158,l),
(158,158,l),
(236,158,l),
(236,158,l),
(236,236,l),
(315,236,l),
(315,236,l),
(315,394,l),
(315,551,l),
(315,551,l),
(394,551,l),
(394,394,l),
(394,236,l),
(473,236,l),
(473,236,l),
(473,158,l),
(473,158,l),
(473,158,l),
(551,158,l),
(551,79,l),
(551,79,l),
(788,79,l),
(945,79,l),
(945,0,l),
(945,0,l),
(945,0,l),
(1024,0,l),
(1024,-79,l),
(1024,-79,l),
(1103,-79,l),
(1103,-79,l),
(1103,0,l),
(1103,158,l),
(1103,158,l),
(1182,158,l),
(1182,236,l),
(1182,315,l),
(1260,315,l),
(1260,315,l),
(1260,394,l),
(1260,473,l),
(1260,473,l),
(1182,473,l),
(1182,551,l),
(1182,630,l),
(1103,630,l),
(1103,630,l),
(1103,630,l),
(1103,709,l),
(788,709,ls),
(472,709,o),
(551,709,q),
(551,709,l),
(551,788,l),
(630,788,l),
(788,788,l),
(788,788,l),
(788,866,l),
(788,866,l),
(709,866,l),
(709,866,l),
(709,945,l),
(473,945,l),
(158,945,l),
(158,866,l),
(158,866,l)
);
},
{
closed = 1;
nodes = (
(473,630,l),
(473,630,l),
(473,551,l),
(473,551,l),
(473,551,l),
(394,551,l),
(394,551,l),
(394,630,l),
(473,630,l),
(473,630,l),
(473,630,l),
(473,709,l),
(473,709,l),
(551,709,l),
(551,630,l),
(551,630,l)
);
},
{
closed = 1;
nodes = (
(315,551,l),
(236,551,l),
(236,551,l),
(236,630,l),
(315,630,l),
(315,630,l),
(315,551,l),
(315,551,l)
);
},
{
closed = 1;
nodes = (
(630,394,l),
(630,394,l),
(630,394,l),
(630,473,l),
(630,473,l),
(709,473,l),
(709,394,l),
(709,394,l)
);
},
{
closed = 1;
nodes = (
(788,394,l),
(788,394,l),
(788,394,l),
(788,473,l),
(788,473,l),
(866,473,l),
(866,394,l),
(866,394,l)
);
},
{
closed = 1;
nodes = (
(945,394,l),
(945,394,l),
(945,394,l),
(945,473,l),
(945,473,l),
(1024,473,l),
(1024,394,l),
(1024,394,l)
);
}
);
width = 1260;
}
);
note = messages;
unicode = 61476;
},
{
glyphname = notify;
lastChange = "2023-04-13 12:28:50 +0000";
layers = (
{
layerId = m01;
shapes = (
{
closed = 1;
nodes = (
(315,0,l),
(315,0,l),
(315,-79,l),
(315,-79,l),
(394,-79,l),
(473,-79,l),
(473,-79,l),
(473,0,l),
(473,0,l),
(551,0,l),
(551,0,l),
(551,79,l),
(394,79,l),
(236,79,l),
(236,0,l),
(236,0,l)
);
},
{
closed = 1;
nodes = (
(315,788,l),
(236,788,l),
(236,709,l),
(236,709,l),
(158,709,l),
(158,709,l),
(158,630,l),
(158,630,l),
(158,630,l),
(79,630,l),
(79,473,l),
(79,315,l),
(0,315,l),
(0,315,l),
(0,236,l),
(0,158,l),
(394,158,l),
(788,158,l),
(788,236,l),
(788,315,l),
(788,315,l),
(709,315,l),
(709,473,l),
(709,630,l),
(630,630,l),
(630,630,l),
(630,630,l),
(630,709,l),
(630,709,l),
(551,709,l),
(551,709,l),
(551,788,l),
(473,788,l),
(473,788,l),
(473,866,l),
(473,945,l),
(394,945,l),
(315,945,l),
(315,866,l),
(315,788,l)
);
}
);
width = 788;
}
);
note = notify;
unicode = 61477;
},
{
glyphname = outlink;
layers = (
{
layerId = m01;
shapes = (
{
closed = 1;
nodes = (
(788,866,l),
(788,866,l),
(788,788,l),
(788,788,l),
(788,788,l),
(709,788,l),
(709,709,l),
(709,709,l),
(630,709,l),
(630,709,l),
(630,630,l),
(630,630,l),
(630,630,l),
(551,630,l),
(551,551,l),
(551,551,l),
(473,551,l),
(473,551,l),
(473,473,l),
(473,473,l),
(473,473,l),
(394,473,l),
(394,394,l),
(394,394,l),
(473,394,l),
(473,394,l),
(473,315,l),
(473,315,l),
(473,315,l),
(551,315,l),
(551,315,l),
(551,394,l),
(630,394,l),
(630,394,l),
(630,394,l),
(630,473,l),
(630,473,l),
(709,473,l),
(709,473,l),
(709,551,l),
(788,551,l),
(788,551,l),
(788,551,l),
(788,630,l),
(788,630,l),
(866,630,l),
(866,630,l),
(866,709,l),
(945,709,l),
(945,709,l),
(945,630,l),
(945,630,l),
(945,630,l),
(1024,630,l),
(1024,788,l),
(1024,945,l),
(866,945,l),
(709,945,l),
(709,866,l),
(709,866,l)
);
},
{
closed = 1;
nodes = (
(158,866,l),
(79,866,l),
(79,788,l),
(79,788,l),
(0,788,l),
(0,788,l),
(0,394,l),
(0,79,l),
(0,79,l),
(79,79,l),
(79,0,l),
(79,0,l),
(158,0,l),
(158,0,l),
(158,-79,l),
(158,-79,l),
(473,-79,ls),
(787,-79,o),
(866,-79,q),
(866,-79,l),
(866,0,l),
(945,0,l),
(945,0,l),
(945,0,l),
(945,79,l),
(945,79,l),
(1024,79,l),
(1024,315,l),
(1024,551,l),
(945,551,l),
(866,551,l),
(866,315,l),
(866,79,l),
(473,79,l),
(158,79,l),
(158,394,l),
(158,788,l),
(394,788,l),
(630,788,l),
(630,866,l),
(630,945,l),
(394,945,l),
(158,945,l),
(158,866,l),
(158,866,l)
);
}
);
width = 1024;
}
);
note = outlink;
unicode = 61478;
},
{
glyphname = plurk;
lastChange = "2023-04-13 12:19:31 +0000";
layers = (
{
layerId = m01;
shapes = (
{
closed = 1;
nodes = (
(2048,0,l),
(2127,0,l),
(2127,0,l),
(2127,79,l),
(2048,79,l),
(2048,79,l),
(2048,0,l),
(2048,0,l)
);
},
{
closed = 1;
nodes = (
(788,236,l),
(788,236,l),
(788,236,l),
(788,315,l),
(788,315,l),
(709,315,l),
(709,473,l),
(709,630,l),
(630,630,l),
(630,630,l),
(630,394,l),
(630,158,l),
(630,158,l),
(709,158,l),
(709,79,l),
(709,79,l),
(788,79,l),
(945,79,l),
(945,236,l),
(945,394,l),
(945,394,l),
(1024,394,l),
(1024,551,l),
(1024,709,l),
(945,709,l),
(866,709,l),
(866,473,l),
(866,236,l)
);
},
{
closed = 1;
nodes = (
(1418,630,l),
(1339,630,l),
(1339,630,l),
(1339,709,l),
(1260,709,l),
(1182,709,l),
(1182,630,l),
(1182,630,l),
(1103,630,l),
(1103,630,l),
(1103,473,l),
(1103,315,l),
(1103,315,l),
(1024,315,l),
(1024,158,l),
(1024,0,l),
(1103,0,l),
(1103,0,l),
(1103,-79,l),
(1103,-79,l),
(1103,-79,l),
(1182,-79,l),
(1182,-79,l),
(1182,0,l),
(1260,0,l),
(1260,0,l),
(1260,79,l),
(1260,158,l),
(1260,158,l),
(1339,158,l),
(1339,79,l),
(1339,79,l),
(1418,79,l),
(1418,79,l),
(1418,0,l),
(1418,0,l),
(1418,0,l),
(1497,0,l),
(1497,79,l),
(1497,158,l),
(1418,158,l),
(1418,158,l),
(1418,158,l),
(1418,236,l),
(1418,236,l),
(1339,236,l),
(1339,236,l),
(1339,315,l),
(1260,315,l),
(1260,315,l),
(1260,315,l),
(1260,394,l),
(1339,394,l),
(1418,394,l),
(1418,473,l),
(1418,630,l),
(1418,630,l),
(1497,630,l),
(1497,473,l),
(1497,394,l),
(1575,394,l),
(1575,394,l),
(1575,158,l),
(1575,0,l),
(1654,0,l),
(1733,0,l),
(1733,79,l),
(1733,236,l),
(1733,236,l),
(1812,236,l),
(1812,158,l),
(1812,158,l),
(1890,158,l),
(1890,158,l),
(1890,79,l),
(1890,79,l),
(1890,79,l),
(1969,79,l),
(1969,79,l),
(1969,158,l),
(2048,158,l),
(2048,158,l),
(2048,158,l),
(2048,236,l),
(2048,236,l),
(1969,236,l),
(1969,236,l),
(1969,315,l),
(1890,315,l),
(1812,315,l),
(1812,394,l),
(1812,473,l),
(1890,473,l),
(1890,473,l),
(1890,551,l),
(1890,709,l),
(1812,709,l),
(1733,709,l),
(1733,630,l),
(1733,551,l),
(1733,551,l),
(1654,551,l),
(1654,551,l),
(1654,630,l),
(1575,630,l),
(1575,630,l),
(1575,709,l),
(1575,788,l),
(1497,788,l),
(1418,788,l),
(1418,709,l),
(1418,630,l)
);
},
{
closed = 1;
nodes = (
(1260,473,l),
(1260,473,l),
(1260,473,l),
(1260,551,l),
(1260,551,l),
(1339,551,l),
(1339,473,l),
(1339,473,l)
);
},
{
closed = 1;
nodes = (
(0,866,l),
(0,866,l),
(0,551,l),
(0,315,l),
(0,315,l),
(79,315,l),
(79,158,l),
(79,0,l),
(158,0,l),
(158,0,l),
(158,-79,l),
(158,-79,l),
(158,-79,l),
(236,-79,l),
(236,158,l),
(236,394,l),
(315,394,l),
(394,394,l),
(394,158,l),
(394,0,l),
(473,0,l),
(473,0,l),
(473,-79,l),
(473,-79,l),
(630,-79,ls),
(788,-79,o),
(709,-79,q),
(709,-79,l),
(709,0,l),
(630,0,l),
(551,0,l),
(551,158,l),
(551,394,l),
(473,394,l),
(394,394,l),
(394,394,l),
(394,473,l),
(473,473,l),
(551,473,l),
(551,630,l),
(551,788,l),
(473,788,l),
(473,788,l),
(473,788,l),
(473,866,l),
(473,866,l),
(394,866,l),
(394,866,l),
(394,945,l),
(236,945,l),
(79,945,l),
(79,866,l),
(79,866,l)
);
},
{
closed = 1;
nodes = (
(315,630,l),
(236,630,l),
(236,551,l),
(236,551,l),
(158,551,l),
(158,551,l),
(158,630,l),
(158,788,l),
(236,788,l),
(315,788,l),
(315,709,l),
(315,630,l)
);
}
);
width = 2127;
}
);
note = plurk;
unicode = 61479;
},
{
glyphname = plurkapp;
layers = (
{
layerId = m01;
shapes = (
{
closed = 1;
nodes = (
(788,158,l),
(788,158,l),
(788,158,l),
(788,236,l),
(788,236,l),
(709,236,l),
(709,158,l),
(709,158,l)
);
},
{
closed = 1;
nodes = (
(315,158,l),
(394,158,l),
(394,158,l),
(394,236,l),
(315,236,l),
(315,236,l),
(315,158,l),
(315,158,l)
);
},
{
closed = 1;
nodes = (
(236,866,l),
(158,866,l),
(158,788,l),
(158,788,l),
(158,788,l),
(79,788,l),
(79,709,l),
(79,630,l),
(0,630,l),
(0,630,l),
(0,394,l),
(0,236,l),
(0,236,l),
(79,236,l),
(79,158,l),
(79,79,l),
(158,79,l),
(158,79,l),
(158,0,l),
(158,0,l),
(236,0,l),
(315,0,l),
(315,-79,l),
(315,-79,l),
(473,-79,ls),
(630,-79,o),
(709,-79,q),
(709,-79,l),
(709,0,l),
(788,0,l),
(866,0,l),
(866,0,l),
(866,79,l),
(945,79,l),
(945,79,l),
(945,158,l),
(945,236,l),
(945,236,l),
(1024,236,l),
(1024,394,l),
(1024,630,l),
(945,630,l),
(945,630,l),
(945,709,l),
(945,788,l),
(945,788,l),
(866,788,l),
(866,788,l),
(866,866,l),
(788,866,l),
(709,866,l),
(709,866,l),
(709,945,l),
(473,945,l),
(315,945,l),
(315,866,l),
(315,866,l)
);
},
{
closed = 1;
nodes = (
(788,709,l),
(788,709,l),
(788,630,l),
(788,551,l),
(788,551,l),
(866,551,l),
(866,551,l),
(866,630,l),
(945,630,l),
(945,630,l),
(945,551,l),
(945,551,l),
(945,551,l),
(866,551,l),
(866,394,l),
(866,315,l),
(788,315,l),
(788,315,l),
(788,236,l),
(788,236,l),
(788,236,l),
(866,236,l),
(866,158,l),
(866,158,l),
(788,158,l),
(788,158,l),
(788,79,l),
(788,79,l),
(788,79,l),
(709,79,l),
(709,79,l),
(709,158,l),
(551,158,l),
(394,158,l),
(394,79,l),
(394,79,l),
(315,79,l),
(315,79,l),
(315,79,l),
(315,158,l),
(315,158,l),
(236,158,l),
(236,158,l),
(236,236,l),
(315,236,l),
(315,236,l),
(315,236,l),
(315,315,l),
(315,315,l),
(236,315,l),
(236,315,l),
(236,394,l),
(158,394,l),
(158,394,l),
(158,394,l),
(158,473,l),
(158,473,l),
(236,473,l),
(236,473,l),
(236,551,l),
(158,551,l),
(79,551,l),
(79,551,l),
(79,630,l),
(158,630,l),
(158,630,l),
(158,630,l),
(158,709,l),
(158,709,l),
(236,709,l),
(236,630,l),
(236,551,l),
(315,551,l),
(315,551,l),
(315,473,l),
(315,473,l),
(315,473,l),
(236,473,l),
(236,394,l),
(236,394,l),
(315,394,l),
(394,394,l),
(394,473,l),
(394,630,l),
(315,630,l),
(315,630,l),
(315,630,l),
(315,709,l),
(315,709,l),
(394,709,l),
(394,709,l),
(394,788,l),
(551,788,l),
(709,788,l),
(709,709,l),
(709,709,l)
);
}
);
width = 1024;
}
);
note = plurkapp;
unicode = 61480;
},
{
glyphname = "privacy-circle";
layers = (
{
layerId = m01;
shapes = (
{
closed = 1;
nodes = (
(473,236,l),
(551,236,l),
(551,315,l),
(551,473,l),
(473,473,l),
(473,473,l),
(473,315,l),
(473,236,l)
);
},
{
closed = 1;
nodes = (
(473,551,l),
(551,551,l),
(551,630,l),
(551,709,l),
(473,709,l),
(473,709,l),
(473,630,l),
(473,551,l)
);
},
{
closed = 1;
nodes = (
(236,866,l),
(158,866,l),
(158,788,l),
(158,788,l),
(158,788,l),
(79,788,l),
(79,709,l),
(79,630,l),
(0,630,l),
(0,630,l),
(0,394,l),
(0,236,l),
(0,236,l),
(79,236,l),
(79,158,l),
(79,79,l),
(158,79,l),
(158,79,l),
(158,0,l),
(158,0,l),
(236,0,l),
(315,0,l),
(315,-79,l),
(315,-79,l),
(473,-79,ls),
(630,-79,o),
(709,-79,q),
(709,-79,l),
(709,0,l),
(788,0,l),
(866,0,l),
(866,0,l),
(866,79,l),
(945,79,l),
(945,79,l),
(945,158,l),
(945,236,l),
(945,236,l),
(1024,236,l),
(1024,394,l),
(1024,630,l),
(945,630,l),
(945,630,l),
(945,709,l),
(945,788,l),
(945,788,l),
(866,788,l),
(866,788,l),
(866,866,l),
(788,866,l),
(709,866,l),
(709,866,l),
(709,945,l),
(473,945,l),
(315,945,l),
(315,866,l),
(315,866,l)
);
},
{
closed = 1;
nodes = (
(630,709,l),
(630,709,l),
(630,630,l),
(630,551,l),
(630,551,l),
(709,551,l),
(709,473,l),
(709,473,l),
(788,473,l),
(788,473,l),
(788,315,l),
(788,236,l),
(788,236,l),
(709,236,l),
(709,158,l),
(709,158,l),
(473,158,l),
(315,158,l),
(315,158,l),
(315,236,l),
(315,236,l),
(236,236,l),
(236,315,l),
(236,473,l),
(315,473,l),
(315,473,l),
(315,473,l),
(315,551,l),
(315,551,l),
(394,551,l),
(394,630,l),
(394,709,l),
(473,709,l),
(473,709,l),
(473,709,l),
(473,788,l),
(473,788,l),
(551,788,l),
(551,709,l),
(551,709,l)
);
}
);
width = 1024;
}
);
note = "privacy-circle";
unicode = 61481;
},
{
glyphname = privacy;
lastChange = "2023-04-13 12:28:50 +0000";
layers = (
{
layerId = m01;
shapes = (
{
closed = 1;
nodes = (
(158,788,l),
(158,788,l),
(158,630,l),
(158,551,l),
(158,551,l),
(79,551,l),
(79,473,l),
(79,473,l),
(0,473,l),
(0,473,l),
(0,236,l),
(0,0,l),
(0,0,l),
(79,0,l),
(79,-79,l),
(79,-79,l),
(473,-79,l),
(788,-79,l),
(788,-79,l),
(788,0,l),
(788,0,l),
(866,0,l),
(866,236,l),
(866,473,l),
(788,473,l),
(788,473,l),
(788,473,l),
(788,551,l),
(788,551,l),
(709,551,l),
(709,630,l),
(709,788,l),
(630,788,l),
(630,788,l),
(630,866,l),
(630,945,l),
(473,945,ls),
(315,945,o),
(236,945,q),
(236,866,l),
(236,788,l)
);
},
{
closed = 1;
nodes = (
(473,788,l),
(551,788,l),
(551,630,l),
(551,551,l),
(473,551,l),
(315,551,l),
(315,630,l),
(315,788,l),
(315,788,l),
(394,788,l),
(394,788,l),
(394,866,l),
(473,866,l),
(473,866,l),
(473,788,l),
(473,788,l)
);
},
{
closed = 1;
nodes = (
(473,236,l),
(473,236,l),
(473,158,l),
(473,79,l),
(473,79,l),
(394,79,l),
(394,158,l),
(394,236,l),
(315,236,l),
(315,236,l),
(315,315,l),
(315,394,l),
(473,394,ls),
(630,394,o),
(551,394,q),
(551,315,l),
(551,236,l)
);
}
);
width = 866;
}
);
note = privacy;
unicode = 61482;
},
{
glyphname = profile;
layers = (
{
layerId = m01;
shapes = (
{
closed = 1;
nodes = (
(0,0,l),
(79,0,l),
(79,-79,l),
(79,-79,l),
(473,-79,l),
(945,-79,l),
(945,-79,l),
(945,0,l),
(945,0,l),
(1024,0,l),
(1024,315,l),
(1024,709,l),
(473,709,l),
(0,709,l),
(0,315,l),
(0,0,l)
);
},
{
closed = 1;
nodes = (
(473,394,ls),
(315,394,o),
(394,394,q),
(394,473,l),
(394,630,l),
(473,630,l),
(630,630,l),
(630,473,l),
(630,394,l)
);
},
{
closed = 1;
nodes = (
(630,236,l),
(709,236,l),
(709,79,l),
(709,0,l),
(473,0,l),
(315,0,l),
(315,79,l),
(315,236,l),
(315,236,l),
(394,236,l),
(394,236,l),
(394,315,l),
(473,315,l),
(630,315,l),
(630,236,l),
(630,236,l)
);
},
{
closed = 1;
nodes = (
(788,788,ls),
(945,788,o),
(1024,788,q),
(1024,788,l),
(1024,866,l),
(788,866,l),
(630,866,l),
(630,788,l),
(630,788,l)
);
},
{
closed = 1;
nodes = (
(158,788,ls),
(315,788,o),
(394,788,q),
(394,788,l),
(394,866,l),
(158,866,l),
(0,866,l),
(0,788,l),
(0,788,l)
);
},
{
closed = 1;
nodes = (
(473,788,l),
(551,788,l),
(551,866,l),
(551,945,l),
(473,945,l),
(473,945,l),
(473,866,l),
(473,788,l)
);
}
);
width = 1024;
}
);
note = profile;
unicode = 61483;
},
{
glyphname = push;
layers = (
{
layerId = m01;
shapes = (
{
closed = 1;
nodes = (
(236,866,l),
(158,866,l),
(158,788,l),
(158,788,l),
(158,788,l),
(79,788,l),
(79,709,l),
(79,630,l),
(0,630,l),
(0,630,l),
(0,394,l),
(0,236,l),
(0,236,l),
(79,236,l),
(79,158,l),
(79,79,l),
(158,79,l),
(158,79,l),
(158,0,l),
(158,0,l),
(236,0,l),
(315,0,l),
(315,-79,l),
(315,-79,l),
(473,-79,ls),
(630,-79,o),
(709,-79,q),
(709,-79,l),
(709,0,l),
(788,0,l),
(866,0,l),
(866,0,l),
(866,79,l),
(945,79,l),
(945,79,l),
(945,158,l),
(945,236,l),
(945,236,l),
(1024,236,l),
(1024,394,l),
(1024,630,l),
(945,630,l),
(945,630,l),
(945,709,l),
(945,788,l),
(945,788,l),
(866,788,l),
(866,788,l),
(866,866,l),
(788,866,l),
(709,866,l),
(709,866,l),
(709,945,l),
(473,945,l),
(315,945,l),
(315,866,l),
(315,866,l)
);
},
{
closed = 1;
nodes = (
(473,473,l),
(551,473,l),
(551,394,l),
(551,394,l),
(473,394,l),
(394,394,l),
(394,315,l),
(394,236,l),
(315,236,l),
(315,236,l),
(315,315,l),
(315,394,l),
(236,394,l),
(158,394,l),
(158,394,l),
(158,473,l),
(236,473,l),
(315,473,l),
(315,551,l),
(315,630,l),
(315,630,l),
(394,630,l),
(394,551,l),
(394,473,l)
);
},
{
closed = 1;
nodes = (
(788,236,l),
(709,236,l),
(709,315,l),
(709,473,l),
(630,473,l),
(630,473,l),
(630,473,l),
(630,551,l),
(630,551,l),
(709,551,l),
(709,551,l),
(709,630,l),
(788,630,l),
(788,630,l),
(788,394,l),
(788,236,l)
);
}
);
width = 1024;
}
);
note = push;
unicode = 61484;
},
{
glyphname = refresh;
layers = (
{
layerId = m01;
shapes = (
{
closed = 1;
nodes = (
(236,866,l),
(158,866,l),
(158,788,l),
(158,788,l),
(158,788,l),
(79,788,l),
(79,709,l),
(79,630,l),
(0,630,l),
(0,630,l),
(0,394,l),
(0,236,l),
(0,236,l),
(79,236,l),
(79,158,l),
(79,79,l),
(158,79,l),
(158,79,l),
(158,0,l),
(158,0,l),
(236,0,l),
(315,0,l),
(315,-79,l),
(315,-79,l),
(473,-79,ls),
(630,-79,o),
(709,-79,q),
(709,-79,l),
(709,0,l),
(788,0,l),
(866,0,l),
(866,0,l),
(866,79,l),
(945,79,l),
(945,79,l),
(945,79,l),
(945,158,l),
(945,158,l),
(866,158,l),
(866,158,l),
(866,236,l),
(788,236,l),
(788,236,l),
(788,158,l),
(788,158,l),
(788,158,l),
(709,158,l),
(709,79,l),
(709,79,l),
(473,79,l),
(315,79,l),
(315,79,l),
(315,158,l),
(315,158,l),
(236,158,l),
(236,158,l),
(236,236,l),
(158,236,l),
(158,236,l),
(158,394,l),
(158,630,l),
(158,630,l),
(236,630,l),
(236,630,l),
(236,709,l),
(315,709,l),
(315,709,l),
(315,709,l),
(315,788,l),
(473,788,ls),
(630,788,o),
(709,788,q),
(709,709,l),
(709,709,l),
(788,709,l),
(788,709,l),
(788,630,l),
(788,630,l),
(788,630,l),
(709,630,l),
(709,551,l),
(709,551,l),
(866,551,l),
(1024,551,l),
(1024,709,l),
(1024,866,l),
(945,866,l),
(945,866,l),
(945,788,l),
(945,788,l),
(945,788,l),
(866,788,l),
(866,788,l),
(866,866,l),
(788,866,l),
(709,866,l),
(709,866,l),
(709,945,l),
(473,945,l),
(315,945,l),
(315,866,l),
(315,866,l)
);
}
);
width = 1024;
}
);
note = refresh;
unicode = 61485;
},
{
glyphname = "replurk-circle";
layers = (
{
layerId = m01;
shapes = (
{
closed = 1;
nodes = (
(236,866,l),
(158,866,l),
(158,788,l),
(158,788,l),
(158,788,l),
(79,788,l),
(79,709,l),
(79,630,l),
(0,630,l),
(0,630,l),
(0,394,l),
(0,236,l),
(0,236,l),
(79,236,l),
(79,158,l),
(79,79,l),
(158,79,l),
(158,79,l),
(158,0,l),
(158,0,l),
(236,0,l),
(315,0,l),
(315,-79,l),
(315,-79,l),
(473,-79,ls),
(630,-79,o),
(709,-79,q),
(709,-79,l),
(709,0,l),
(788,0,l),
(866,0,l),
(866,0,l),
(866,79,l),
(945,79,l),
(945,79,l),
(945,158,l),
(945,236,l),
(945,236,l),
(1024,236,l),
(1024,394,l),
(1024,630,l),
(945,630,l),
(945,630,l),
(945,709,l),
(945,788,l),
(945,788,l),
(866,788,l),
(866,788,l),
(866,866,l),
(788,866,l),
(709,866,l),
(709,866,l),
(709,945,l),
(473,945,l),
(315,945,l),
(315,866,l),
(315,866,l)
);
},
{
closed = 1;
nodes = (
(630,630,l),
(709,630,l),
(709,630,l),
(709,709,l),
(788,709,l),
(788,709,l),
(788,551,l),
(788,473,l),
(630,473,ls),
(472,473,o),
(551,473,q),
(551,473,l),
(551,551,l),
(630,551,l),
(630,551,l),
(630,551,l),
(630,630,l),
(473,630,ls),
(315,630,o),
(394,630,q),
(394,551,l),
(394,551,l),
(315,551,l),
(315,551,l),
(315,473,l),
(315,473,l),
(315,473,l),
(236,473,l),
(236,473,l),
(236,551,l),
(315,551,l),
(315,551,l),
(315,551,l),
(315,630,l),
(315,630,l),
(394,630,l),
(394,630,l),
(394,709,l),
(473,709,l),
(630,709,l),
(630,630,l),
(630,630,l)
);
},
{
closed = 1;
nodes = (
(473,315,l),
(394,315,l),
(394,236,l),
(394,236,l),
(473,236,l),
(630,236,l),
(630,236,l),
(630,315,l),
(630,315,l),
(709,315,l),
(709,315,l),
(709,394,l),
(788,394,l),
(788,394,l),
(788,315,l),
(788,315,l),
(788,315,l),
(709,315,l),
(709,236,l),
(709,236,l),
(630,236,l),
(630,236,l),
(630,158,l),
(630,158,l),
(473,158,ls),
(315,158,o),
(394,158,q),
(394,158,l),
(394,236,l),
(315,236,l),
(315,236,l),
(315,158,l),
(315,158,l),
(315,158,l),
(236,158,l),
(236,236,l),
(236,394,l),
(315,394,l),
(473,394,l),
(473,315,l),
(473,315,l)
);
}
);
width = 1024;
}
);
note = "replurk-circle";
unicode = 61486;
},
{
glyphname = replurk;
layers = (
{
layerId = m01;
shapes = (
{
closed = 1;
nodes = (
(788,236,l),
(788,236,l),
(788,158,l),
(788,158,l),
(788,158,l),
(709,158,l),
(709,79,l),
(709,79,l),
(473,79,l),
(315,79,l),
(315,79,l),
(315,158,l),
(315,158,l),
(236,158,l),
(236,158,l),
(236,236,l),
(315,236,l),
(315,236,l),
(315,236,l),
(315,315,l),
(158,315,l),
(0,315,l),
(0,158,l),
(0,0,l),
(0,0,l),
(79,0,l),
(79,0,l),
(79,79,l),
(158,79,l),
(158,79,l),
(158,0,l),
(158,0,l),
(236,0,l),
(315,0,l),
(315,-79,l),
(315,-79,l),
(473,-79,ls),
(630,-79,o),
(709,-79,q),
(709,-79,l),
(709,0,l),
(788,0,l),
(866,0,l),
(866,0,l),
(866,79,l),
(945,79,l),
(945,79,l),
(945,158,l),
(945,236,l),
(945,236,l),
(1024,236,l),
(1024,315,l),
(1024,394,l),
(945,394,l),
(866,394,l),
(866,315,l),
(866,236,l)
);
},
{
closed = 1;
nodes = (
(236,866,l),
(158,866,l),
(158,788,l),
(158,788,l),
(158,788,l),
(79,788,l),
(79,709,l),
(79,630,l),
(0,630,l),
(0,630,l),
(0,551,l),
(0,473,l),
(79,473,l),
(158,473,l),
(158,551,l),
(158,630,l),
(158,630,l),
(236,630,l),
(236,630,l),
(236,709,l),
(315,709,l),
(315,709,l),
(315,709,l),
(315,788,l),
(473,788,ls),
(630,788,o),
(709,788,q),
(709,709,l),
(709,709,l),
(788,709,l),
(788,709,l),
(788,630,l),
(788,630,l),
(788,630,l),
(709,630,l),
(709,551,l),
(709,551,l),
(866,551,l),
(1024,551,l),
(1024,709,l),
(1024,866,l),
(945,866,l),
(945,866,l),
(945,788,l),
(945,788,l),
(945,788,l),
(866,788,l),
(866,788,l),
(866,866,l),
(788,866,l),
(709,866,l),
(709,866,l),
(709,945,l),
(473,945,l),
(315,945,l),
(315,866,l),
(315,866,l)
);
}
);
width = 1024;
}
);
note = replurk;
unicode = 61487;
},
{
glyphname = search;
layers = (
{
layerId = m01;
shapes = (
{
closed = 1;
nodes = (
(158,866,l),
(158,866,l),
(158,788,l),
(158,788,l),
(158,788,l),
(79,788,l),
(79,709,l),
(79,709,l),
(0,709,l),
(0,709,l),
(0,473,l),
(0,315,l),
(0,315,l),
(79,315,l),
(79,236,l),
(79,236,l),
(158,236,l),
(158,236,l),
(158,158,l),
(158,158,l),
(158,158,l),
(236,158,l),
(236,79,l),
(236,79,l),
(473,79,l),
(630,79,l),
(630,79,l),
(630,158,l),
(630,158,l),
(709,158,l),
(709,79,l),
(709,79,l),
(788,79,l),
(788,79,l),
(788,0,l),
(788,0,l),
(788,0,l),
(866,0,l),
(866,-79,l),
(866,-79,l),
(945,-79,l),
(945,-79,l),
(945,-79,l),
(945,0,l),
(945,0,l),
(1024,0,l),
(1024,0,l),
(1024,79,l),
(945,79,l),
(945,79,l),
(945,79,l),
(945,158,l),
(945,158,l),
(866,158,l),
(866,158,l),
(866,236,l),
(788,236,l),
(788,236,l),
(788,236,l),
(788,315,l),
(788,315,l),
(866,315,l),
(866,473,l),
(866,709,l),
(788,709,l),
(788,709,l),
(788,709,l),
(788,788,l),
(788,788,l),
(709,788,l),
(709,788,l),
(709,866,l),
(630,866,l),
(630,866,l),
(630,866,l),
(630,945,l),
(473,945,ls),
(315,945,o),
(236,945,q),
(236,866,l),
(236,866,l)
);
},
{
closed = 1;
nodes = (
(630,709,l),
(630,709,l),
(630,630,l),
(630,630,l),
(630,630,l),
(709,630,l),
(709,473,l),
(709,394,l),
(630,394,l),
(630,394,l),
(630,315,l),
(630,315,l),
(630,315,l),
(551,315,l),
(551,236,l),
(551,236,l),
(473,236,l),
(315,236,l),
(315,236,l),
(315,315,l),
(315,315,l),
(236,315,l),
(236,315,l),
(236,394,l),
(158,394,l),
(158,394,l),
(158,473,l),
(158,630,l),
(158,630,l),
(236,630,l),
(236,630,l),
(236,709,l),
(315,709,l),
(315,709,l),
(315,709,l),
(315,788,l),
(473,788,ls),
(630,788,o),
(551,788,q),
(551,709,l),
(551,709,l)
);
}
);
width = 1024;
}
);
note = search;
unicode = 61488;
},
{
glyphname = setting;
layers = (
{
layerId = m01;
shapes = (
{
closed = 1;
nodes = (
(315,788,l),
(315,788,l),
(315,788,l),
(315,866,l),
(236,866,l),
(158,866,l),
(158,788,l),
(158,788,l),
(158,788,l),
(79,788,l),
(79,709,l),
(79,630,l),
(158,630,l),
(158,630,l),
(158,551,l),
(158,551,l),
(79,551,l),
(0,551,l),
(0,394,l),
(0,315,l),
(79,315,l),
(158,315,l),
(158,236,l),
(158,236,l),
(158,236,l),
(79,236,l),
(79,158,l),
(79,79,l),
(158,79,l),
(158,79,l),
(158,0,l),
(158,0,l),
(236,0,l),
(315,0,l),
(315,0,l),
(315,79,l),
(315,79,l),
(394,79,l),
(394,0,l),
(394,-79,l),
(473,-79,l),
(630,-79,l),
(630,0,l),
(630,79,l),
(630,79,l),
(709,79,l),
(709,0,l),
(709,0,l),
(788,0,l),
(866,0,l),
(866,0,l),
(866,79,l),
(945,79,l),
(945,79,l),
(945,158,l),
(945,236,l),
(945,236,l),
(866,236,l),
(866,236,l),
(866,315,l),
(945,315,l),
(1024,315,l),
(1024,394,l),
(1024,551,l),
(945,551,l),
(866,551,l),
(866,551,l),
(866,630,l),
(945,630,l),
(945,630,l),
(945,709,l),
(945,788,l),
(945,788,l),
(866,788,l),
(866,788,l),
(866,866,l),
(788,866,l),
(709,866,l),
(709,788,l),
(709,788,l),
(630,788,l),
(630,788,l),
(630,866,l),
(630,945,l),
(473,945,ls),
(315,945,o),
(394,945,q),
(394,866,l),
(394,788,l)
);
},
{
closed = 1;
nodes = (
(473,315,ls),
(315,315,o),
(394,315,q),
(394,394,l),
(394,551,l),
(473,551,l),
(630,551,l),
(630,394,l),
(630,315,l)
);
}
);
width = 1024;
}
);
note = setting;
unicode = 61489;
},
{
glyphname = smile;
layers = (
{
layerId = m01;
shapes = (
{
closed = 1;
nodes = (
(315,315,l),
(315,315,l),
(315,236,l),
(315,236,l),
(315,236,l),
(394,236,l),
(394,158,l),
(394,158,l),
(473,158,l),
(630,158,l),
(630,158,l),
(630,236,l),
(630,236,l),
(709,236,l),
(709,236,l),
(709,315,l),
(788,315,l),
(788,315,l),
(788,315,l),
(788,394,l),
(788,394,l),
(709,394,l),
(709,315,l),
(709,315,l),
(630,315,l),
(630,315,l),
(630,236,l),
(630,236,l),
(473,236,ls),
(315,236,o),
(394,236,q),
(394,236,l),
(394,315,l),
(315,315,l),
(315,315,l),
(315,315,l),
(315,394,l),
(315,394,l),
(236,394,l),
(236,315,l),
(236,315,l)
);
},
{
closed = 1;
nodes = (
(630,473,l),
(709,473,l),
(709,551,l),
(709,630,l),
(630,630,l),
(630,630,l),
(630,551,l),
(630,473,l)
);
},
{
closed = 1;
nodes = (
(315,473,l),
(394,473,l),
(394,551,l),
(394,630,l),
(315,630,l),
(315,630,l),
(315,551,l),
(315,473,l)
);
},
{
closed = 1;
nodes = (
(236,866,l),
(158,866,l),
(158,788,l),
(158,788,l),
(158,788,l),
(79,788,l),
(79,709,l),
(79,630,l),
(0,630,l),
(0,630,l),
(0,394,l),
(0,236,l),
(0,236,l),
(79,236,l),
(79,158,l),
(79,79,l),
(158,79,l),
(158,79,l),
(158,0,l),
(158,0,l),
(236,0,l),
(315,0,l),
(315,-79,l),
(315,-79,l),
(473,-79,ls),
(630,-79,o),
(709,-79,q),
(709,-79,l),
(709,0,l),
(788,0,l),
(866,0,l),
(866,0,l),
(866,79,l),
(945,79,l),
(945,79,l),
(945,158,l),
(945,236,l),
(945,236,l),
(1024,236,l),
(1024,394,l),
(1024,630,l),
(945,630,l),
(945,630,l),
(945,709,l),
(945,788,l),
(945,788,l),
(866,788,l),
(866,788,l),
(866,866,l),
(788,866,l),
(709,866,l),
(709,866,l),
(709,945,l),
(473,945,l),
(315,945,l),
(315,866,l),
(315,866,l)
);
},
{
closed = 1;
nodes = (
(788,788,l),
(866,788,l),
(866,709,l),
(866,630,l),
(945,630,l),
(945,630,l),
(945,394,l),
(945,236,l),
(945,236,l),
(866,236,l),
(866,158,l),
(866,79,l),
(788,79,l),
(709,79,l),
(709,0,l),
(709,0,l),
(473,0,l),
(315,0,l),
(315,0,l),
(315,79,l),
(236,79,l),
(158,79,l),
(158,158,l),
(158,236,l),
(158,236,l),
(79,236,l),
(79,394,l),
(79,630,l),
(158,630,l),
(158,630,l),
(158,709,l),
(158,788,l),
(236,788,l),
(315,788,l),
(315,788,l),
(315,866,l),
(473,866,ls),
(630,866,o),
(709,866,q),
(709,788,l),
(709,788,l)
);
}
);
width = 1024;
}
);
note = smile;
unicode = 61490;
},
{
glyphname = sync;
layers = (
{
layerId = m01;
shapes = (
{
closed = 1;
nodes = (
(630,866,l),
(630,866,l),
(630,788,l),
(630,709,l),
(630,709,l),
(551,709,l),
(551,630,l),
(551,630,l),
(473,630,l),
(394,630,l),
(394,551,l),
(394,551,l),
(315,551,l),
(315,551,l),
(315,551,l),
(315,630,l),
(158,630,ls),
(0,630,o),
(79,630,q),
(79,551,l),
(79,551,l),
(0,551,l),
(0,551,l),
(0,394,l),
(0,315,l),
(0,315,l),
(79,315,l),
(79,236,l),
(79,236,l),
(158,236,l),
(315,236,l),
(315,236,l),
(315,315,l),
(315,315,l),
(394,315,l),
(394,236,l),
(394,236,l),
(473,236,l),
(551,236,l),
(551,158,l),
(551,158,l),
(630,158,l),
(630,158,l),
(630,79,l),
(630,0,l),
(630,0,l),
(709,0,l),
(709,-79,l),
(709,-79,l),
(788,-79,l),
(945,-79,l),
(945,-79,l),
(945,0,l),
(945,0,l),
(1024,0,l),
(1024,79,l),
(1024,236,l),
(945,236,l),
(945,236,l),
(945,236,l),
(945,315,l),
(788,315,ls),
(630,315,o),
(709,315,q),
(709,236,l),
(709,236,l),
(630,236,l),
(551,236,l),
(551,236,l),
(551,315,l),
(473,315,l),
(394,315,l),
(394,394,l),
(394,551,l),
(473,551,l),
(551,551,l),
(551,551,l),
(551,630,l),
(630,630,l),
(709,630,l),
(709,551,l),
(709,551,l),
(788,551,l),
(945,551,l),
(945,551,l),
(945,630,l),
(945,630,l),
(1024,630,l),
(1024,709,l),
(1024,866,l),
(945,866,l),
(945,866,l),
(945,866,l),
(945,945,l),
(788,945,ls),
(630,945,o),
(709,945,q),
(709,866,l),
(709,866,l)
);
}
);
width = 1024;
}
);
note = sync;
unicode = 61491;
},
{
glyphname = theme;
lastChange = "2023-04-13 12:53:23 +0000";
layers = (
{
layerId = m01;
shapes = (
{
closed = 1;
nodes = (
(158,315,ls),
(315,315,o),
(236,315,q),
(236,236,l),
(236,236,l),
(158,236,l),
(158,236,l),
(158,79,l),
(158,0,l),
(158,0,l),
(236,0,l),
(236,-79,l),
(236,-79,l),
(315,-79,l),
(315,-79,l),
(315,-79,l),
(315,0,l),
(315,0,l),
(394,0,l),
(394,79,l),
(394,236,l),
(315,236,l),
(315,236,l),
(315,236,l),
(315,315,l),
(473,315,ls),
(630,315,o),
(551,315,q),
(551,394,l),
(551,473,l),
(315,473,l),
(0,473,l),
(0,394,l),
(0,315,l)
);
},
{
closed = 1;
nodes = (
(315,945,l),
(158,945,l),
(158,866,l),
(158,866,l),
(79,866,l),
(0,866,l),
(0,709,l),
(0,551,l),
(315,551,ls),
(630,551,o),
(551,551,q),
(551,788,l),
(551,1024,l),
(473,1024,l),
(473,1024,l),
(473,945,l),
(473,945,l)
);
}
);
width = 577;
}
);
note = theme;
unicode = 61492;
},
{
glyphname = topplurk;
lastChange = "2023-04-13 12:28:50 +0000";
layers = (
{
layerId = m01;
shapes = (
{
closed = 1;
nodes = (
(158,0,ls),
(315,0,o),
(236,0,q),
(236,158,l),
(236,236,l),
(158,236,l),
(0,236,l),
(0,158,l),
(0,0,l)
);
},
{
closed = 1;
nodes = (
(473,0,l),
(630,0,l),
(630,236,l),
(630,394,l),
(473,394,ls),
(315,394,o),
(394,394,q),
(394,236,l),
(394,0,l)
);
},
{
closed = 1;
nodes = (
(945,0,ls),
(1103,0,o),
(1024,0,q),
(1024,315,l),
(1024,551,l),
(945,551,l),
(788,551,l),
(788,315,l),
(788,0,l)
);
},
{
closed = 1;
nodes = (
(0,551,l),
(0,551,l),
(0,551,l),
(0,473,l),
(0,473,l),
(79,473,l),
(79,473,l),
(79,394,l),
(0,394,l),
(0,394,l),
(0,394,l),
(0,315,l),
(0,315,l),
(79,315,l),
(79,394,l),
(79,394,l),
(158,394,l),
(158,394,l),
(158,394,l),
(158,315,l),
(158,315,l),
(236,315,l),
(236,394,l),
(236,394,l),
(158,394,l),
(158,394,l),
(158,473,l),
(158,473,l),
(158,473,l),
(236,473,l),
(236,551,l),
(236,551,l),
(158,551,l),
(158,551,l),
(158,630,l),
(158,630,l),
(158,630,l),
(79,630,l),
(79,630,l),
(79,551,l)
);
},
{
closed = 1;
nodes = (
(473,709,l),
(394,709,l),
(394,709,l),
(394,630,l),
(473,630,l),
(473,630,l),
(473,630,l),
(473,551,l),
(473,551,l),
(394,551,l),
(394,551,l),
(394,473,l),
(473,473,l),
(473,473,l),
(473,551,l),
(473,551,l),
(473,551,l),
(551,551,l),
(551,551,l),
(551,473,l),
(630,473,l),
(630,473,l),
(630,551,l),
(630,551,l),
(630,551,l),
(551,551,l),
(551,630,l),
(551,630,l),
(630,630,l),
(630,630,l),
(630,709,l),
(630,709,l),
(630,709,l),
(551,709,l),
(551,788,l),
(551,788,l),
(473,788,l),
(473,788,l),
(473,788,l),
(473,709,l)
);
},
{
closed = 1;
nodes = (
(788,866,l),
(788,866,l),
(788,866,l),
(788,788,l),
(788,788,l),
(866,788,l),
(866,788,l),
(866,709,l),
(788,709,l),
(788,709,l),
(788,709,l),
(788,630,l),
(788,630,l),
(866,630,l),
(866,709,l),
(866,709,l),
(945,709,l),
(945,709,l),
(945,709,l),
(945,630,l),
(945,630,l),
(1024,630,l),
(1024,709,l),
(1024,709,l),
(945,709,l),
(945,709,l),
(945,788,l),
(945,788,l),
(945,788,l),
(1024,788,l),
(1024,866,l),
(1024,866,l),
(945,866,l),
(945,866,l),
(945,945,l),
(945,945,l),
(945,945,l),
(866,945,l),
(866,945,l),
(866,866,l)
);
}
);
width = 1050;
}
);
note = topplurk;
unicode = 61493;
},
{
glyphname = "user-add";
lastChange = "2023-04-13 12:28:57 +0000";
layers = (
{
layerId = m01;
shapes = (
{
closed = 1;
nodes = (
(158,866,l),
(158,866,l),
(158,788,l),
(158,788,l),
(158,788,l),
(79,788,l),
(79,630,l),
(79,473,l),
(158,473,l),
(158,473,l),
(158,394,l),
(158,394,l),
(236,394,l),
(315,394,l),
(315,315,l),
(315,315,l),
(236,315,l),
(158,315,l),
(158,236,l),
(158,236,l),
(158,236,l),
(79,236,l),
(79,158,l),
(79,158,l),
(0,158,l),
(0,158,l),
(0,0,l),
(0,-79,l),
(394,-79,l),
(788,-79,l),
(788,0,l),
(788,158,l),
(788,158,l),
(709,158,l),
(709,158,l),
(709,236,l),
(630,236,l),
(630,236,l),
(630,236,l),
(630,315,l),
(551,315,l),
(473,315,l),
(473,315,l),
(473,394,l),
(551,394,l),
(630,394,l),
(630,394,l),
(630,473,l),
(630,473,l),
(709,473,l),
(709,630,l),
(709,788,l),
(630,788,l),
(630,788,l),
(630,788,l),
(630,866,l),
(630,866,l),
(551,866,l),
(551,866,l),
(551,945,l),
(394,945,l),
(236,945,l),
(236,866,l),
(236,866,l)
);
},
{
closed = 1;
nodes = (
(513,679,l),
(591,679,l),
(591,600,l),
(591,600,l),
(513,600,l),
(434,600,l),
(434,521,l),
(434,443,l),
(355,443,l),
(355,443,l),
(355,521,l),
(355,600,l),
(276,600,l),
(198,600,l),
(198,600,l),
(198,679,l),
(276,679,l),
(355,679,l),
(355,758,l),
(355,836,l),
(355,836,l),
(434,836,l),
(434,758,l),
(434,679,l)
);
}
);
width = 788;
}
);
note = "user-add";
unicode = 61494;
},
{
glyphname = "user-asking";
lastChange = "2023-04-13 12:28:57 +0000";
layers = (
{
layerId = m01;
shapes = (
{
closed = 1;
nodes = (
(158,866,l),
(158,866,l),
(158,788,l),
(158,788,l),
(158,788,l),
(79,788,l),
(79,630,l),
(79,473,l),
(158,473,l),
(158,473,l),
(158,394,l),
(158,394,l),
(236,394,l),
(315,394,l),
(315,315,l),
(315,315,l),
(236,315,l),
(158,315,l),
(158,236,l),
(158,236,l),
(158,236,l),
(79,236,l),
(79,158,l),
(79,158,l),
(0,158,l),
(0,158,l),
(0,0,l),
(0,-79,l),
(394,-79,l),
(788,-79,l),
(788,0,l),
(788,158,l),
(788,158,l),
(709,158,l),
(709,158,l),
(709,236,l),
(630,236,l),
(630,236,l),
(630,236,l),
(630,315,l),
(551,315,l),
(473,315,l),
(473,315,l),
(473,394,l),
(551,394,l),
(630,394,l),
(630,394,l),
(630,473,l),
(630,473,l),
(709,473,l),
(709,630,l),
(709,788,l),
(630,788,l),
(630,788,l),
(630,788,l),
(630,866,l),
(630,866,l),
(551,866,l),
(551,866,l),
(551,945,l),
(394,945,l),
(236,945,l),
(236,866,l),
(236,866,l)
);
},
{
closed = 1;
nodes = (
(394,630,l),
(315,630,l),
(315,709,l),
(315,866,l),
(394,866,l),
(473,866,l),
(473,709,l),
(473,630,l)
);
},
{
closed = 1;
nodes = (
(394,473,l),
(315,473,l),
(315,473,l),
(315,551,l),
(394,551,l),
(473,551,l),
(473,473,l),
(473,473,l)
);
}
);
width = 788;
}
);
note = "user-asking";
unicode = 61495;
},
{
glyphname = "user-blocked";
lastChange = "2023-04-13 12:28:57 +0000";
layers = (
{
layerId = m01;
shapes = (
{
closed = 1;
nodes = (
(158,866,l),
(158,866,l),
(158,788,l),
(158,788,l),
(158,788,l),
(79,788,l),
(79,630,l),
(79,473,l),
(158,473,l),
(158,473,l),
(158,394,l),
(158,394,l),
(236,394,l),
(315,394,l),
(315,315,l),
(315,315,l),
(236,315,l),
(158,315,l),
(158,236,l),
(158,236,l),
(158,236,l),
(79,236,l),
(79,158,l),
(79,158,l),
(0,158,l),
(0,158,l),
(0,0,l),
(0,-79,l),
(394,-79,l),
(788,-79,l),
(788,0,l),
(788,158,l),
(788,158,l),
(709,158,l),
(709,158,l),
(709,236,l),
(630,236,l),
(630,236,l),
(630,236,l),
(630,315,l),
(551,315,l),
(473,315,l),
(473,315,l),
(473,394,l),
(551,394,l),
(630,394,l),
(630,394,l),
(630,473,l),
(630,473,l),
(709,473,l),
(709,630,l),
(709,788,l),
(630,788,l),
(630,788,l),
(630,788,l),
(630,866,l),
(630,866,l),
(551,866,l),
(551,866,l),
(551,945,l),
(394,945,l),
(236,945,l),
(236,866,l),
(236,866,l)
);
},
{
closed = 1;
nodes = (
(557,685,l),
(557,567,l),
(243,567,l),
(243,692,l),
(243,685,l)
);
}
);
width = 788;
}
);
note = "user-blocked";
unicode = 61496;
},
{
glyphname = "user-follow";
lastChange = "2023-04-13 12:28:50 +0000";
layers = (
{
layerId = m01;
shapes = (
{
closed = 1;
nodes = (
(315,709,l),
(236,709,l),
(236,630,l),
(236,551,l),
(315,551,l),
(315,551,l),
(315,473,l),
(315,473,l),
(394,473,l),
(473,473,l),
(473,473,l),
(473,551,l),
(473,551,l),
(551,551,l),
(551,630,l),
(551,709,l),
(473,709,l),
(473,709,l),
(473,709,l),
(473,788,l),
(394,788,l),
(315,788,l),
(315,709,l),
(315,709,l)
);
},
{
closed = 1;
nodes = (
(394,551,l),
(315,551,l),
(315,630,l),
(315,709,l),
(394,709,l),
(473,709,l),
(473,630,l),
(473,551,l)
);
},
{
closed = 1;
nodes = (
(158,866,l),
(158,866,l),
(158,788,l),
(158,788,l),
(158,788,l),
(79,788,l),
(79,630,l),
(79,473,l),
(158,473,l),
(158,473,l),
(158,394,l),
(158,394,l),
(158,394,l),
(236,394,l),
(236,315,l),
(236,315,l),
(158,315,l),
(158,315,l),
(158,236,l),
(158,236,l),
(158,236,l),
(79,236,l),
(79,158,l),
(79,158,l),
(0,158,l),
(0,158,l),
(0,0,l),
(0,-79,l),
(394,-79,l),
(788,-79,l),
(788,0,l),
(788,158,l),
(788,158,l),
(709,158,l),
(709,158,l),
(709,236,l),
(630,236,l),
(630,236,l),
(630,236,l),
(630,315,l),
(630,315,l),
(551,315,l),
(551,315,l),
(551,394,l),
(630,394,l),
(630,394,l),
(630,394,l),
(630,473,l),
(630,473,l),
(709,473,l),
(709,630,l),
(709,788,l),
(630,788,l),
(630,788,l),
(630,788,l),
(630,866,l),
(630,866,l),
(551,866,l),
(551,866,l),
(551,945,l),
(394,945,l),
(236,945,l),
(236,866,l),
(236,866,l)
);
},
{
closed = 1;
nodes = (
(473,788,l),
(551,788,l),
(551,709,l),
(551,709,l),
(630,709,l),
(630,709,l),
(630,630,l),
(630,551,l),
(630,551,l),
(551,551,l),
(551,473,l),
(551,473,l),
(473,473,l),
(473,473,l),
(473,394,l),
(473,394,l),
(394,394,l),
(315,394,l),
(315,394,l),
(315,473,l),
(315,473,l),
(236,473,l),
(236,473,l),
(236,551,l),
(158,551,l),
(158,551,l),
(158,630,l),
(158,709,l),
(158,709,l),
(236,709,l),
(236,709,l),
(236,788,l),
(315,788,l),
(315,788,l),
(315,788,l),
(315,866,l),
(394,866,l),
(473,866,l),
(473,788,l),
(473,788,l)
);
}
);
width = 788;
}
);
note = "user-follow";
unicode = 61497;
},
{
glyphname = "user-friend";
lastChange = "2023-04-13 12:28:50 +0000";
layers = (
{
layerId = m01;
shapes = (
{
closed = 1;
nodes = (
(158,866,l),
(158,866,l),
(158,788,l),
(158,788,l),
(158,788,l),
(79,788,l),
(79,630,l),
(79,473,l),
(158,473,l),
(158,473,l),
(158,394,l),
(158,394,l),
(236,394,l),
(315,394,l),
(315,315,l),
(315,315,l),
(236,315,l),
(158,315,l),
(158,236,l),
(158,236,l),
(158,236,l),
(79,236,l),
(79,158,l),
(79,158,l),
(0,158,l),
(0,158,l),
(0,0,l),
(0,-79,l),
(394,-79,l),
(788,-79,l),
(788,0,l),
(788,158,l),
(788,158,l),
(709,158,l),
(709,158,l),
(709,236,l),
(630,236,l),
(630,236,l),
(630,236,l),
(630,315,l),
(551,315,l),
(473,315,l),
(473,315,l),
(473,394,l),
(551,394,l),
(630,394,l),
(630,394,l),
(630,473,l),
(630,473,l),
(709,473,l),
(709,630,l),
(709,788,l),
(630,788,l),
(630,788,l),
(630,788,l),
(630,866,l),
(630,866,l),
(551,866,l),
(551,866,l),
(551,945,l),
(394,945,l),
(236,945,l),
(236,866,l),
(236,866,l)
);
},
{
closed = 1;
nodes = (
(630,709,l),
(551,709,l),
(551,630,l),
(551,630,l),
(473,630,l),
(473,630,l),
(473,551,l),
(473,551,l),
(473,551,l),
(394,551,l),
(394,473,l),
(394,473,l),
(315,473,l),
(315,473,l),
(315,473,l),
(315,551,l),
(315,551,l),
(236,551,l),
(236,551,l),
(236,630,l),
(158,630,l),
(158,630,l),
(158,630,l),
(158,709,l),
(158,709,l),
(236,709,l),
(236,630,l),
(236,630,l),
(315,630,l),
(315,630,l),
(315,551,l),
(315,551,l),
(315,551,l),
(394,551,l),
(394,551,l),
(394,630,l),
(473,630,l),
(473,630,l),
(473,630,l),
(473,709,l),
(473,709,l),
(551,709,l),
(551,709,l),
(551,788,l),
(630,788,l),
(630,788,l),
(630,709,l),
(630,709,l)
);
}
);
width = 788;
}
);
note = "user-friend";
unicode = 61498;
},
{
glyphname = verified;
layers = (
{
layerId = m01;
shapes = (
{
closed = 1;
nodes = (
(236,866,l),
(158,866,l),
(158,788,l),
(158,788,l),
(158,788,l),
(79,788,l),
(79,709,l),
(79,630,l),
(0,630,l),
(0,630,l),
(0,394,l),
(0,236,l),
(0,236,l),
(79,236,l),
(79,158,l),
(79,79,l),
(158,79,l),
(158,79,l),
(158,0,l),
(158,0,l),
(236,0,l),
(315,0,l),
(315,-79,l),
(315,-79,l),
(473,-79,ls),
(630,-79,o),
(709,-79,q),
(709,-79,l),
(709,0,l),
(788,0,l),
(866,0,l),
(866,0,l),
(866,79,l),
(945,79,l),
(945,79,l),
(945,158,l),
(945,236,l),
(945,236,l),
(1024,236,l),
(1024,394,l),
(1024,630,l),
(945,630,l),
(945,630,l),
(945,709,l),
(945,788,l),
(945,788,l),
(866,788,l),
(866,788,l),
(866,866,l),
(788,866,l),
(709,866,l),
(709,866,l),
(709,945,l),
(473,945,l),
(315,945,l),
(315,866,l),
(315,866,l)
);
},
{
closed = 1;
nodes = (
(788,551,l),
(788,551,l),
(788,473,l),
(788,473,l),
(788,473,l),
(709,473,l),
(709,394,l),
(709,394,l),
(630,394,l),
(630,394,l),
(630,315,l),
(630,315,l),
(630,315,l),
(551,315,l),
(551,236,l),
(551,236,l),
(473,236,l),
(473,236,l),
(473,158,l),
(473,158,l),
(473,158,l),
(394,158,l),
(394,158,l),
(394,236,l),
(315,236,l),
(315,236,l),
(315,236,l),
(315,315,l),
(315,315,l),
(236,315,l),
(236,315,l),
(236,394,l),
(158,394,l),
(158,394,l),
(158,394,l),
(158,473,l),
(236,473,l),
(315,473,l),
(315,394,l),
(315,394,l),
(315,394,l),
(394,394,l),
(394,315,l),
(394,315,l),
(473,315,l),
(473,315,l),
(473,315,l),
(473,394,l),
(473,394,l),
(551,394,l),
(551,394,l),
(551,473,l),
(630,473,l),
(630,473,l),
(630,473,l),
(630,551,l),
(630,551,l),
(709,551,l),
(709,551,l),
(709,630,l),
(788,630,l),
(866,630,l),
(866,551,l),
(866,551,l)
);
}
);
width = 1024;
}
);
note = verified;
unicode = 61499;
},
{
glyphname = "volume-mute";
layers = (
{
layerId = m01;
shapes = (
{
closed = 1;
nodes = (
(473,866,l),
(473,866,l),
(473,788,l),
(473,788,l),
(473,788,l),
(394,788,l),
(394,709,l),
(394,709,l),
(315,709,l),
(315,709,l),
(315,630,l),
(315,630,l),
(158,630,ls),
(0,630,o),
(79,630,q),
(79,394,l),
(79,236,l),
(158,236,l),
(236,236,l),
(236,158,l),
(236,158,l),
(158,158,l),
(158,158,l),
(158,79,l),
(158,79,l),
(158,79,l),
(79,79,l),
(79,0,l),
(79,0,l),
(0,0,l),
(0,0,l),
(0,-79,l),
(0,-79,l),
(0,-79,l),
(79,-79,l),
(79,-79,l),
(79,0,l),
(158,0,l),
(158,0,l),
(158,0,l),
(158,79,l),
(158,79,l),
(236,79,l),
(236,79,l),
(236,158,l),
(315,158,l),
(315,158,l),
(315,158,l),
(315,236,l),
(315,236,l),
(394,236,l),
(394,158,l),
(394,158,l),
(473,158,l),
(473,158,l),
(473,79,l),
(473,79,l),
(473,79,l),
(551,79,l),
(551,0,l),
(551,0,l),
(630,0,l),
(709,0,l),
(709,236,l),
(709,473,l),
(630,473,l),
(630,473,l),
(630,473,l),
(630,551,l),
(630,551,l),
(709,551,l),
(709,551,l),
(709,630,l),
(788,630,l),
(788,630,l),
(788,630,l),
(788,709,l),
(788,709,l),
(866,709,l),
(866,709,l),
(866,788,l),
(945,788,l),
(945,788,l),
(945,788,l),
(945,866,l),
(945,866,l),
(1024,866,l),
(1024,866,l),
(1024,945,l),
(945,945,l),
(945,945,l),
(945,866,l),
(945,866,l),
(945,866,l),
(866,866,l),
(866,788,l),
(866,788,l),
(788,788,l),
(788,788,l),
(788,709,l),
(788,709,l),
(788,709,l),
(709,709,l),
(709,788,l),
(709,945,l),
(630,945,l),
(551,945,l),
(551,866,l),
(551,866,l)
);
},
{
closed = 1;
nodes = (
(630,394,l),
(551,394,l),
(551,315,l),
(551,315,l),
(473,315,l),
(473,315,l),
(473,236,l),
(473,236,l),
(473,236,l),
(394,236,l),
(394,236,l),
(394,315,l),
(473,315,l),
(473,315,l),
(473,315,l),
(473,394,l),
(473,394,l),
(551,394,l),
(551,394,l),
(551,473,l),
(630,473,l),
(630,473,l),
(630,394,l),
(630,394,l)
);
}
);
width = 1024;
}
);
note = "volume-mute";
unicode = 61500;
},
{
glyphname = volume;
lastChange = "2023-04-13 12:28:50 +0000";
layers = (
{
layerId = m01;
shapes = (
{
closed = 1;
nodes = (
(788,236,l),
(788,236,l),
(788,236,l),
(788,158,l),
(788,158,l),
(866,158,l),
(866,158,l),
(866,79,l),
(945,79,l),
(945,79,l),
(945,158,l),
(945,158,l),
(945,158,l),
(866,158,l),
(866,236,l),
(866,236,l),
(788,236,l),
(788,236,l),
(788,315,l),
(788,315,l),
(788,315,l),
(709,315,l),
(709,315,l),
(709,236,l)
);
},
{
closed = 1;
nodes = (
(788,394,l),
(945,394,l),
(945,473,l),
(945,473,l),
(788,473,ls),
(630,473,o),
(709,473,q),
(709,473,l),
(709,394,l)
);
},
{
closed = 1;
nodes = (
(788,709,l),
(788,709,l),
(788,709,l),
(788,630,l),
(788,630,l),
(709,630,l),
(709,630,l),
(709,551,l),
(788,551,l),
(788,551,l),
(788,630,l),
(788,630,l),
(788,630,l),
(866,630,l),
(866,709,l),
(866,709,l),
(945,709,l),
(945,709,l),
(945,788,l),
(945,788,l),
(945,788,l),
(866,788,l),
(866,788,l),
(866,709,l)
);
},
{
closed = 1;
nodes = (
(473,866,l),
(394,866,l),
(394,866,l),
(394,788,l),
(315,788,l),
(315,788,l),
(315,788,l),
(315,709,l),
(315,709,l),
(236,709,l),
(236,709,l),
(236,630,l),
(158,630,l),
(0,630,l),
(0,473,l),
(0,236,l),
(158,236,l),
(315,236,l),
(315,236,l),
(315,158,l),
(315,158,l),
(394,158,l),
(394,158,l),
(394,79,l),
(473,79,l),
(473,79,l),
(473,79,l),
(473,0,l),
(551,0,l),
(630,0,l),
(630,473,l),
(630,945,l),
(551,945,l),
(473,945,l),
(473,945,l),
(473,866,l)
);
}
);
width = 945;
}
);
note = volume;
unicode = 61501;
},
{
glyphname = warning;
lastChange = "2023-04-13 14:03:00 +0000";
layers = (
{
layerId = m01;
shapes = (
{
attr = {
fillColor = (0,255);
};
closed = 1;
nodes = (
(572,253,l),
(572,136,l),
(453,136,l),
(453,253,l)
);
},
{
attr = {
fillColor = (0,255);
};
closed = 1;
nodes = (
(572,371,l),
(453,371,l),
(453,724,l),
(572,724,l)
);
},
{
closed = 1;
nodes = (
(0,866,l),
(0,866,l),
(0,0,l),
(0,0,l),
(79,0,l),
(79,-79,l),
(79,-79,l),
(945,-79,l),
(945,-79,l),
(945,0,l),
(945,0,l),
(1024,0,l),
(1024,866,l),
(941,866,l),
(941,866,l),
(941,945,l),
(0,945,o),
(79,945,q),
(79,866,l),
(79,866,l)
);
}
);
width = 1024;
}
);
note = warning;
unicode = 61502;
},
{
glyphname = bone;
layers = (
{
layerId = m01;
shapes = (
{
closed = 1;
nodes = (
(315,709,l),
(236,709,l),
(236,630,l),
(236,630,l),
(158,630,l),
(158,630,l),
(158,394,l),
(158,236,l),
(158,236,l),
(236,236,l),
(236,158,l),
(236,158,l),
(315,158,l),
(315,158,l),
(315,79,l),
(315,79,l),
(473,79,ls),
(630,79,o),
(709,79,q),
(709,79,l),
(709,158,l),
(788,158,l),
(788,158,l),
(788,158,l),
(788,236,l),
(788,236,l),
(866,236,l),
(866,394,l),
(866,630,l),
(788,630,l),
(788,630,l),
(788,630,l),
(788,709,l),
(788,709,l),
(709,709,l),
(709,709,l),
(709,788,l),
(473,788,l),
(315,788,l),
(315,709,l),
(315,709,l)
);
},
{
closed = 1;
nodes = (
(473,551,l),
(551,551,l),
(551,473,l),
(551,473,l),
(630,473,l),
(630,473,l),
(630,394,l),
(630,394,l),
(709,394,l),
(788,394,l),
(788,315,l),
(788,236,l),
(788,236,l),
(709,236,l),
(709,158,l),
(709,158,l),
(630,158,l),
(551,158,l),
(551,236,l),
(551,315,l),
(473,315,l),
(473,315,l),
(473,315,l),
(473,394,l),
(473,394,l),
(394,394,l),
(394,394,l),
(394,473,l),
(315,473,l),
(236,473,l),
(236,551,l),
(236,630,l),
(315,630,l),
(315,630,l),
(315,630,l),
(315,709,l),
(394,709,l),
(473,709,l),
(473,630,l),
(473,551,l)
);
},
{
closed = 1;
nodes = (
(236,866,l),
(158,866,l),
(158,788,l),
(158,788,l),
(158,788,l),
(79,788,l),
(79,709,l),
(79,630,l),
(0,630,l),
(0,630,l),
(0,394,l),
(0,236,l),
(0,236,l),
(79,236,l),
(79,158,l),
(79,79,l),
(158,79,l),
(158,79,l),
(158,0,l),
(158,0,l),
(236,0,l),
(315,0,l),
(315,-79,l),
(315,-79,l),
(473,-79,ls),
(630,-79,o),
(709,-79,q),
(709,-79,l),
(709,0,l),
(788,0,l),
(866,0,l),
(866,0,l),
(866,79,l),
(945,79,l),
(945,79,l),
(945,158,l),
(945,236,l),
(945,236,l),
(1024,236,l),
(1024,394,l),
(1024,630,l),
(945,630,l),
(945,630,l),
(945,709,l),
(945,788,l),
(945,788,l),
(866,788,l),
(866,788,l),
(866,866,l),
(788,866,l),
(709,866,l),
(709,866,l),
(709,945,l),
(473,945,l),
(315,945,l),
(315,866,l),
(315,866,l)
);
},
{
closed = 1;
nodes = (
(788,788,l),
(788,788,l),
(788,709,l),
(788,709,l),
(788,709,l),
(866,709,l),
(866,630,l),
(866,630,l),
(945,630,l),
(945,630,l),
(945,394,l),
(945,236,l),
(945,236,l),
(866,236,l),
(866,158,l),
(866,158,l),
(788,158,l),
(788,158,l),
(788,79,l),
(788,79,l),
(788,79,l),
(709,79,l),
(709,0,l),
(709,0,l),
(473,0,l),
(315,0,l),
(315,0,l),
(315,79,l),
(315,79,l),
(236,79,l),
(236,79,l),
(236,158,l),
(158,158,l),
(158,158,l),
(158,158,l),
(158,236,l),
(158,236,l),
(79,236,l),
(79,394,l),
(79,630,l),
(158,630,l),
(158,630,l),
(158,630,l),
(158,709,l),
(158,709,l),
(236,709,l),
(236,709,l),
(236,788,l),
(315,788,l),
(315,788,l),
(315,788,l),
(315,866,l),
(473,866,ls),
(630,866,o),
(709,866,q),
(709,788,l),
(709,788,l)
);
}
);
width = 1024;
}
);
note = bone;
unicode = 61503;
},
{
glyphname = tag;
layers = (
{
layerId = m01;
shapes = (
{
closed = 1;
nodes = (
(0,473,l),
(79,473,l),
(79,394,l),
(79,394,l),
(158,394,l),
(158,394,l),
(158,315,l),
(158,315,l),
(158,315,l),
(236,315,l),
(236,236,l),
(236,236,l),
(315,236,l),
(315,236,l),
(315,158,l),
(315,158,l),
(315,158,l),
(394,158,l),
(394,79,l),
(394,79,l),
(473,79,l),
(473,79,l),
(473,0,l),
(473,0,l),
(473,0,l),
(551,0,l),
(551,-79,l),
(551,-79,l),
(630,-79,l),
(630,-79,l),
(630,-79,l),
(630,0,l),
(630,0,l),
(709,0,l),
(709,0,l),
(709,79,l),
(788,79,l),
(788,79,l),
(788,79,l),
(788,158,l),
(788,158,l),
(866,158,l),
(866,158,l),
(866,236,l),
(945,236,l),
(945,236,l),
(945,236,l),
(945,315,l),
(945,315,l),
(1024,315,l),
(1024,315,l),
(1024,394,l),
(945,394,l),
(945,394,l),
(945,394,l),
(945,473,l),
(945,473,l),
(866,473,l),
(866,473,l),
(866,551,l),
(788,551,l),
(788,551,l),
(788,551,l),
(788,630,l),
(788,630,l),
(709,630,l),
(709,630,l),
(709,709,l),
(630,709,l),
(630,709,l),
(630,709,l),
(630,788,l),
(630,788,l),
(551,788,l),
(551,788,l),
(551,866,l),
(473,866,l),
(473,866,l),
(473,866,l),
(473,945,l),
(236,945,l),
(0,945,l),
(0,709,l),
(0,473,l)
);
},
{
closed = 1;
nodes = (
(236,630,l),
(158,630,l),
(158,709,l),
(158,788,l),
(236,788,l),
(315,788,l),
(315,709,l),
(315,630,l)
);
}
);
width = 1024;
}
);
note = tag;
unicode = 61504;
},
{
glyphname = "friends-line";
lastChange = "2023-04-13 12:28:50 +0000";
layers = (
{
layerId = m01;
shapes = (
{
closed = 1;
nodes = (
(158,394,l),
(79,394,l),
(79,394,l),
(79,315,l),
(0,315,l),
(0,315,l),
(0,158,l),
(0,0,l),
(551,0,l),
(1103,0,l),
(1103,158,l),
(1103,315,l),
(1103,315,l),
(1024,315,l),
(1024,394,l),
(1024,394,l),
(945,394,l),
(945,394,l),
(945,473,l),
(945,473,l),
(788,473,ls),
(630,473,o),
(551,473,q),
(551,473,l),
(551,394,l),
(473,394,l),
(473,394,l),
(473,473,l),
(473,473,l),
(315,473,l),
(158,473,l),
(158,473,l),
(158,394,l)
);
},
{
closed = 1;
nodes = (
(473,315,l),
(551,315,l),
(551,394,l),
(551,394,l),
(788,394,l),
(945,394,l),
(945,394,l),
(945,315,l),
(945,315,l),
(1024,315,l),
(1024,236,l),
(1024,79,l),
(788,79,l),
(630,79,l),
(630,236,l),
(630,315,l),
(630,315,l),
(551,315,l),
(551,236,l),
(551,79,l),
(315,79,l),
(79,79,l),
(79,236,l),
(79,315,l),
(158,315,l),
(158,315,l),
(158,394,l),
(158,394,l),
(315,394,l),
(473,394,l),
(473,394,l),
(473,315,l)
);
},
{
closed = 1;
nodes = (
(630,788,l),
(551,788,l),
(551,709,l),
(551,630,l),
(630,630,l),
(630,630,l),
(630,630,l),
(630,551,l),
(788,551,ls),
(945,551,o),
(866,551,q),
(866,630,l),
(866,630,l),
(945,630,l),
(945,630,l),
(945,709,l),
(945,788,l),
(945,788,l),
(866,788,l),
(866,866,l),
(866,866,l),
(788,866,l),
(630,866,l),
(630,866,l),
(630,788,l)
);
},
{
closed = 1;
nodes = (
(788,630,l),
(630,630,l),
(630,709,l),
(630,788,l),
(788,788,ls),
(945,788,o),
(866,788,q),
(866,709,l),
(866,630,l)
);
},
{
closed = 1;
nodes = (
(158,788,l),
(79,788,l),
(79,709,l),
(79,630,l),
(158,630,l),
(158,630,l),
(158,630,l),
(158,551,l),
(315,551,ls),
(473,551,o),
(394,551,q),
(394,630,l),
(394,630,l),
(473,630,l),
(473,630,l),
(473,709,l),
(473,788,l),
(473,788,l),
(394,788,l),
(394,866,l),
(394,866,l),
(315,866,l),
(158,866,l),
(158,866,l),
(158,788,l)
);
},
{
closed = 1;
nodes = (
(315,630,l),
(158,630,l),
(158,709,l),
(158,788,l),
(315,788,ls),
(473,788,o),
(394,788,q),
(394,709,l),
(394,630,l)
);
}
);
width = 1103;
}
);
note = "friends-line";
unicode = 61505;
},
{
glyphname = "messages-line";
lastChange = "2023-04-13 12:28:50 +0000";
layers = (
{
layerId = m01;
shapes = (
{
closed = 1;
nodes = (
(945,394,l),
(1024,394,l),
(1024,473,l),
(1024,473,l),
(945,473,l),
(945,473,l),
(945,473,l),
(945,394,l)
);
},
{
closed = 1;
nodes = (
(788,394,l),
(866,394,l),
(866,473,l),
(866,473,l),
(788,473,l),
(788,473,l),
(788,473,l),
(788,394,l)
);
},
{
closed = 1;
nodes = (
(630,394,l),
(709,394,l),
(709,473,l),
(709,473,l),
(630,473,l),
(630,473,l),
(630,473,l),
(630,394,l)
);
},
{
closed = 1;
nodes = (
(158,630,l),
(236,630,l),
(236,709,l),
(236,709,l),
(158,709,l),
(158,709,l),
(158,709,l),
(158,630,l)
);
},
{
closed = 1;
nodes = (
(158,866,l),
(79,866,l),
(79,866,l),
(79,788,l),
(0,788,l),
(0,788,l),
(0,630,l),
(0,473,l),
(0,473,l),
(79,473,l),
(79,473,l),
(79,394,l),
(158,394,l),
(158,394,l),
(158,315,l),
(158,158,l),
(158,158,l),
(236,158,l),
(236,236,l),
(236,236,l),
(315,236,l),
(315,236,l),
(315,473,l),
(315,630,l),
(315,630,l),
(394,630,l),
(394,709,l),
(394,709,l),
(473,709,l),
(551,709,l),
(551,709,l),
(551,630,l),
(473,630,l),
(473,630,l),
(473,630,l),
(473,551,l),
(473,551,l),
(394,551,l),
(394,394,l),
(394,236,l),
(473,236,l),
(473,236,l),
(473,236,l),
(473,158,l),
(473,158,l),
(551,158,l),
(551,158,l),
(551,79,l),
(788,79,l),
(945,79,l),
(945,79,l),
(945,0,l),
(1024,0,l),
(1103,0,l),
(1103,79,l),
(1103,158,l),
(1103,158,l),
(1182,158,l),
(1182,236,l),
(1182,236,l),
(1260,236,l),
(1260,236,l),
(1260,394,l),
(1260,551,l),
(1260,551,l),
(1182,551,l),
(1182,630,l),
(1182,630,l),
(1103,630,l),
(1103,630,l),
(1103,709,l),
(1103,709,l),
(788,709,ls),
(472,709,o),
(551,709,q),
(551,788,l),
(551,788,l),
(630,788,l),
(788,788,l),
(788,866,l),
(788,866,l),
(788,866,l),
(709,866,l),
(709,945,l),
(709,945,l),
(473,945,l),
(158,945,l),
(158,945,l),
(158,866,l)
);
},
{
closed = 1;
nodes = (
(473,788,l),
(394,788,l),
(394,788,l),
(394,709,l),
(315,709,l),
(315,709,l),
(315,709,l),
(315,630,l),
(315,630,l),
(236,630,l),
(236,551,l),
(236,394,l),
(158,394,l),
(158,394,l),
(158,473,l),
(158,473,l),
(158,473,l),
(79,473,l),
(79,630,l),
(79,788,l),
(158,788,l),
(158,788,l),
(158,866,l),
(158,866,l),
(315,866,ls),
(472,866,o),
(551,866,q),
(551,866,l),
(551,788,l)
);
},
{
closed = 1;
nodes = (
(1103,551,l),
(1182,551,l),
(1182,394,l),
(1182,236,l),
(1103,236,l),
(1024,236,l),
(1024,158,l),
(1024,79,l),
(945,79,l),
(945,79,l),
(945,158,l),
(945,158,l),
(788,158,ls),
(630,158,o),
(551,158,q),
(551,236,l),
(551,236,l),
(473,236,l),
(473,236,l),
(473,394,l),
(473,551,l),
(473,551,l),
(551,551,l),
(551,630,l),
(551,630,l),
(788,630,l),
(1103,630,l),
(1103,630,l),
(1103,551,l)
);
}
);
width = 1260;
}
);
note = "messages-line";
unicode = 61506;
},
{
glyphname = more;
lastChange = "2023-04-13 12:28:50 +0000";
layers = (
{
layerId = m01;
shapes = (
{
closed = 1;
nodes = (
(945,315,ls),
(1103,315,o),
(1024,315,q),
(1024,473,l),
(1024,551,l),
(945,551,l),
(788,551,l),
(788,473,l),
(788,315,l)
);
},
{
closed = 1;
nodes = (
(473,315,l),
(630,315,l),
(630,473,l),
(630,551,l),
(473,551,ls),
(315,551,o),
(394,551,q),
(394,473,l),
(394,315,l)
);
},
{
closed = 1;
nodes = (
(158,315,ls),
(315,315,o),
(236,315,q),
(236,473,l),
(236,551,l),
(158,551,l),
(0,551,l),
(0,473,l),
(0,315,l)
);
}
);
width = 1050;
}
);
note = more;
unicode = 61507;
},
{
glyphname = "more-line";
layers = (
{
layerId = m01;
shapes = (
{
closed = 1;
nodes = (
(788,551,l),
(788,551,l),
(788,473,l),
(788,394,l),
(788,394,l),
(866,394,l),
(866,394,l),
(866,315,l),
(945,315,l),
(945,315,l),
(945,394,l),
(945,394,l),
(945,394,l),
(1024,394,l),
(1024,473,l),
(1024,551,l),
(945,551,l),
(945,551,l),
(945,630,l),
(945,630,l),
(945,630,l),
(866,630,l),
(866,630,l),
(866,551,l)
);
},
{
closed = 1;
nodes = (
(945,394,l),
(866,394,l),
(866,473,l),
(866,551,l),
(945,551,l),
(945,551,l),
(945,473,l),
(945,394,l)
);
},
{
closed = 1;
nodes = (
(473,551,l),
(394,551,l),
(394,473,l),
(394,394,l),
(473,394,l),
(473,394,l),
(473,394,l),
(473,315,l),
(473,315,l),
(551,315,l),
(551,394,l),
(551,394,l),
(630,394,l),
(630,394,l),
(630,473,l),
(630,551,l),
(630,551,l),
(551,551,l),
(551,630,l),
(551,630,l),
(473,630,l),
(473,630,l),
(473,630,l),
(473,551,l)
);
},
{
closed = 1;
nodes = (
(473,394,l),
(473,394,l),
(473,473,l),
(473,551,l),
(473,551,l),
(551,551,l),
(551,473,l),
(551,394,l)
);
},
{
closed = 1;
nodes = (
(0,551,l),
(0,551,l),
(0,473,l),
(0,394,l),
(0,394,l),
(79,394,l),
(79,394,l),
(79,315,l),
(158,315,l),
(158,315,l),
(158,394,l),
(158,394,l),
(158,394,l),
(236,394,l),
(236,473,l),
(236,551,l),
(158,551,l),
(158,551,l),
(158,630,l),
(158,630,l),
(158,630,l),
(79,630,l),
(79,630,l),
(79,551,l)
);
},
{
closed = 1;
nodes = (
(158,394,l),
(79,394,l),
(79,473,l),
(79,551,l),
(158,551,l),
(158,551,l),
(158,473,l),
(158,394,l)
);
}
);
width = 1024;
}
);
note = "more-line";
unicode = 61508;
},
{
glyphname = "search-line";
layers = (
{
layerId = m01;
shapes = (
{
closed = 1;
nodes = (
(158,866,l),
(158,866,l),
(158,788,l),
(158,788,l),
(158,788,l),
(79,788,l),
(79,709,l),
(79,709,l),
(0,709,l),
(0,709,l),
(0,473,l),
(0,315,l),
(0,315,l),
(79,315,l),
(79,236,l),
(79,236,l),
(158,236,l),
(158,236,l),
(158,158,l),
(158,158,l),
(158,158,l),
(236,158,l),
(236,79,l),
(236,79,l),
(473,79,l),
(630,79,l),
(630,79,l),
(630,158,l),
(709,158,l),
(788,158,l),
(788,79,l),
(788,79,l),
(788,79,l),
(866,79,l),
(866,0,l),
(866,0,l),
(945,0,l),
(945,0,l),
(945,-79,l),
(945,-79,l),
(945,-79,l),
(1024,-79,l),
(1024,-79,l),
(1024,0,l),
(945,0,l),
(945,0,l),
(945,0,l),
(945,79,l),
(945,79,l),
(866,79,l),
(866,79,l),
(866,158,l),
(788,158,l),
(788,158,l),
(788,236,l),
(788,315,l),
(788,315,l),
(866,315,l),
(866,473,l),
(866,709,l),
(788,709,l),
(788,709,l),
(788,709,l),
(788,788,l),
(788,788,l),
(709,788,l),
(709,788,l),
(709,866,l),
(630,866,l),
(630,866,l),
(630,866,l),
(630,945,l),
(473,945,ls),
(315,945,o),
(236,945,q),
(236,866,l),
(236,866,l)
);
},
{
closed = 1;
nodes = (
(630,788,l),
(709,788,l),
(709,709,l),
(709,709,l),
(788,709,l),
(788,709,l),
(788,473,l),
(788,315,l),
(788,315,l),
(709,315,l),
(709,236,l),
(709,236,l),
(630,236,l),
(630,236,l),
(630,158,l),
(630,158,l),
(473,158,ls),
(315,158,o),
(236,158,q),
(236,158,l),
(236,236,l),
(158,236,l),
(158,236,l),
(158,236,l),
(158,315,l),
(158,315,l),
(79,315,l),
(79,473,l),
(79,709,l),
(158,709,l),
(158,709,l),
(158,709,l),
(158,788,l),
(158,788,l),
(236,788,l),
(236,788,l),
(236,866,l),
(473,866,l),
(630,866,l),
(630,788,l),
(630,788,l)
);
}
);
width = 1024;
}
);
note = "search-line";
unicode = 61509;
},
{
glyphname = timemachine;
lastChange = "2023-04-13 12:28:50 +0000";
layers = (
{
layerId = m01;
shapes = (
{
closed = 1;
nodes = (
(158,551,l),
(158,551,l),
(158,315,l),
(158,158,l),
(158,158,l),
(236,158,l),
(236,79,l),
(236,79,l),
(473,79,l),
(630,79,l),
(630,79,l),
(630,158,l),
(630,158,l),
(709,158,l),
(709,315,l),
(709,551,l),
(630,551,l),
(630,551,l),
(630,551,l),
(630,630,l),
(473,630,ls),
(315,630,o),
(236,630,q),
(236,551,l),
(236,551,l)
);
},
{
closed = 1;
nodes = (
(315,473,l),
(394,473,l),
(394,394,l),
(394,394,l),
(473,394,l),
(473,394,l),
(473,315,l),
(473,315,l),
(473,315,l),
(394,315,l),
(394,315,l),
(394,394,l),
(315,394,l),
(315,394,l),
(315,394,l),
(315,473,l),
(315,473,l),
(236,473,l),
(236,473,l),
(236,551,l),
(315,551,l),
(315,551,l),
(315,473,l),
(315,473,l)
);
},
{
closed = 1;
nodes = (
(315,866,l),
(394,866,l),
(394,788,l),
(394,788,l),
(315,788,l),
(236,788,l),
(236,709,l),
(236,709,l),
(158,709,l),
(158,709,l),
(158,630,l),
(158,630,l),
(158,630,l),
(79,630,l),
(79,551,l),
(79,551,l),
(0,551,l),
(0,551,l),
(0,315,l),
(0,158,l),
(0,158,l),
(79,158,l),
(79,79,l),
(79,79,l),
(158,79,l),
(158,79,l),
(158,0,l),
(158,0,l),
(158,0,l),
(236,0,l),
(236,-79,l),
(236,-79,l),
(473,-79,l),
(630,-79,l),
(630,-79,l),
(630,0,l),
(630,0,l),
(709,0,l),
(709,0,l),
(709,79,l),
(788,79,l),
(788,79,l),
(788,79,l),
(788,158,l),
(788,158,l),
(866,158,l),
(866,315,l),
(866,551,l),
(788,551,l),
(788,551,l),
(788,551,l),
(788,630,l),
(788,630,l),
(709,630,l),
(709,630,l),
(709,709,l),
(630,709,l),
(630,709,l),
(630,709,l),
(630,788,l),
(551,788,l),
(473,788,l),
(473,788,l),
(473,866,l),
(473,866,l),
(551,866,l),
(551,866,l),
(551,945,l),
(473,945,l),
(315,945,l),
(315,866,l),
(315,866,l)
);
},
{
closed = 1;
nodes = (
(630,630,l),
(709,630,l),
(709,551,l),
(709,551,l),
(788,551,l),
(788,551,l),
(788,315,l),
(788,158,l),
(788,158,l),
(709,158,l),
(709,79,l),
(709,79,l),
(630,79,l),
(630,79,l),
(630,0,l),
(630,0,l),
(473,0,ls),
(315,0,o),
(236,0,q),
(236,0,l),
(236,79,l),
(158,79,l),
(158,79,l),
(158,79,l),
(158,158,l),
(158,158,l),
(79,158,l),
(79,315,l),
(79,551,l),
(158,551,l),
(158,551,l),
(158,551,l),
(158,630,l),
(158,630,l),
(236,630,l),
(236,630,l),
(236,709,l),
(473,709,l),
(630,709,l),
(630,630,l),
(630,630,l)
);
}
);
width = 866;
}
);
note = timemachine;
unicode = 61510;
},
{
glyphname = "edit-line";
lastChange = "2023-04-13 14:32:42 +0000";
layers = (
{
layerId = m01;
shapes = (
{
closed = 1;
nodes = (
(473,394,l),
(551,394,l),
(551,394,l),
(551,473,l),
(473,473,l),
(473,473,l),
(473,394,l),
(473,394,l)
);
},
{
closed = 1;
nodes = (
(788,866,l),
(709,866,l),
(709,788,l),
(709,788,l),
(630,788,l),
(630,788,l),
(630,709,l),
(630,709,l),
(630,709,l),
(551,709,l),
(551,630,l),
(551,630,l),
(473,630,l),
(473,630,l),
(473,551,l),
(473,551,l),
(473,551,l),
(394,551,l),
(394,473,l),
(394,473,l),
(315,473,l),
(315,473,l),
(315,315,l),
(315,236,l),
(473,236,ls),
(630,236,o),
(551,236,q),
(551,236,l),
(551,315,l),
(630,315,l),
(630,315,l),
(630,315,l),
(630,394,l),
(630,394,l),
(709,394,l),
(709,394,l),
(709,473,l),
(788,473,l),
(788,473,l),
(788,473,l),
(788,551,l),
(788,551,l),
(866,551,l),
(866,551,l),
(866,630,l),
(945,630,l),
(945,630,l),
(945,630,l),
(945,709,l),
(945,709,l),
(1024,709,l),
(1024,709,l),
(1024,788,l),
(945,788,l),
(945,788,l),
(945,788,l),
(945,866,l),
(945,866,l),
(866,866,l),
(866,866,l),
(866,945,l),
(788,945,l),
(788,945,l),
(788,866,l),
(788,866,l)
);
},
{
closed = 1;
nodes = (
(945,788,l),
(945,788,l),
(945,709,l),
(945,709,l),
(945,709,l),
(866,709,l),
(866,630,l),
(866,630,l),
(788,630,l),
(788,630,l),
(788,551,l),
(788,551,l),
(788,551,l),
(709,551,l),
(709,473,l),
(709,473,l),
(630,473,l),
(630,473,l),
(630,394,l),
(630,394,l),
(630,394,l),
(551,394,l),
(551,315,l),
(551,315,l),
(473,315,l),
(394,315,l),
(394,394,l),
(394,473,l),
(473,473,l),
(473,473,l),
(473,473,l),
(473,551,l),
(473,551,l),
(551,551,l),
(551,551,l),
(551,630,l),
(630,630,l),
(630,630,l),
(630,630,l),
(630,709,l),
(630,709,l),
(709,709,l),
(709,709,l),
(709,788,l),
(788,788,l),
(788,788,l),
(788,788,l),
(788,866,l),
(788,866,l),
(866,866,l),
(866,788,l),
(866,788,l)
);
},
{
closed = 1;
nodes = (
(630,866,l),
(630,945,l),
(315,945,l),
(158,945,l),
(158,866,l)
);
},
{
closed = 1;
nodes = (
(78,786,l),
(0,786,l),
(0,473,l),
(0,79,l),
(0,79,l),
(79,79,l),
(79,0,l),
(79,0,l),
(158,0,l),
(158,0,l),
(158,-79,l),
(158,-79,l),
(473,-79,ls),
(787,-79,o),
(866,-79,q),
(866,-79,l),
(866,0,l),
(945,0,l),
(945,0,l),
(945,0,l),
(945,79,l),
(945,79,l),
(1024,79,l),
(1024,315,l),
(1024,551,l),
(945,551,l),
(945,551,l),
(945,315,l),
(945,79,l),
(945,79,l),
(866,79,l),
(866,0,l),
(866,0,l),
(473,0,l),
(158,0,l),
(158,0,l),
(158,79,l),
(158,79,l),
(79,79,l),
(79,473,l)
);
},
{
closed = 1;
nodes = (
(78,786,l),
(158,786,l),
(158,866,l),
(78,866,l)
);
}
);
width = 1024;
}
);
note = "edit-line";
unicode = 61511;
},
{
glyphname = album;
layers = (
{
layerId = m01;
shapes = (
{
closed = 1;
nodes = (
(0,630,l),
(0,630,l),
(0,394,l),
(0,158,l),
(0,158,l),
(79,158,l),
(79,158,l),
(79,79,l),
(473,79,l),
(788,79,l),
(788,158,l),
(788,158,l),
(788,158,l),
(866,158,l),
(866,394,l),
(866,630,l),
(788,630,l),
(788,630,l),
(788,709,l),
(788,709,l),
(473,709,ls),
(158,709,o),
(79,709,q),
(79,709,l),
(79,630,l)
);
},
{
closed = 1;
nodes = (
(473,788,ls),
(787,788,o),
(866,788,q),
(866,788,l),
(866,709,l),
(945,709,l),
(945,709,l),
(945,473,l),
(945,158,l),
(945,158,l),
(1024,158,l),
(1024,473,l),
(1024,788,l),
(945,788,l),
(945,788,l),
(945,866,l),
(945,866,l),
(551,866,l),
(158,866,l),
(158,866,l),
(158,788,l)
);
}
);
width = 1024;
}
);
note = album;
unicode = 61512;
},
{
glyphname = copy;
lastChange = "2023-04-13 12:28:50 +0000";
layers = (
{
layerId = m01;
shapes = (
{
closed = 1;
nodes = (
(315,788,l),
(473,788,l),
(473,709,l),
(473,709,l),
(473,709,l),
(394,709,l),
(394,630,l),
(394,551,l),
(315,551,l),
(315,551,l),
(315,630,l),
(315,709,l),
(158,709,l),
(0,709,l),
(0,315,l),
(0,-79,l),
(315,-79,l),
(630,-79,l),
(630,158,l),
(630,473,l),
(473,473,ls),
(315,473,o),
(394,473,q),
(394,473,l),
(394,551,l),
(473,551,l),
(551,551,l),
(551,551,l),
(551,630,l),
(630,630,l),
(630,630,l),
(630,551,l),
(630,551,l),
(630,551,l),
(709,551,l),
(709,315,l),
(709,158,l),
(788,158,l),
(866,158,l),
(866,394,l),
(866,630,l),
(788,630,l),
(630,630,l),
(630,630,l),
(630,709,l),
(709,709,l),
(788,709,l),
(788,709,l),
(788,788,l),
(788,788,l),
(709,788,l),
(709,788,l),
(709,866,l),
(630,866,l),
(630,866,l),
(630,788,l),
(630,709,l),
(630,709,l),
(551,709,l),
(551,788,l),
(551,945,l),
(394,945,l),
(236,945,l),
(236,866,l),
(236,788,l)
);
},
{
closed = 1;
nodes = (
(473,630,l),
(473,630,l),
(473,630,l),
(473,709,l),
(473,709,l),
(551,709,l),
(551,630,l),
(551,630,l)
);
}
);
width = 866;
}
);
note = copy;
unicode = 61513;
},
{
glyphname = "copy-link";
lastChange = "2023-04-13 12:28:50 +0000";
layers = (
{
layerId = m01;
shapes = (
{
closed = 1;
nodes = (
(788,158,l),
(866,158,l),
(866,394,l),
(866,630,l),
(788,630,l),
(709,630,l),
(709,394,l),
(709,158,l)
);
},
{
closed = 1;
nodes = (
(315,-79,l),
(630,-79,l),
(630,158,l),
(630,473,l),
(473,473,l),
(315,473,l),
(315,551,l),
(315,709,l),
(158,709,l),
(0,709,l),
(0,315,l),
(0,-79,l)
);
},
{
closed = 1;
nodes = (
(473,315,l),
(551,315,l),
(551,236,l),
(551,158,l),
(473,158,l),
(473,158,l),
(473,79,l),
(473,79,l),
(394,79,l),
(315,79,l),
(315,79,l),
(315,158,l),
(394,158,l),
(473,158,l),
(473,236,l),
(473,315,l),
(473,315,l),
(394,315,l),
(394,315,l),
(394,394,l),
(473,394,l),
(473,394,l),
(473,315,l),
(473,315,l)
);
},
{
closed = 1;
nodes = (
(236,236,l),
(158,236,l),
(158,158,l),
(158,79,l),
(158,79,l),
(236,79,l),
(236,0,l),
(236,0,l),
(158,0,l),
(158,0,l),
(158,0,l),
(158,79,l),
(158,79,l),
(79,79,l),
(79,158,l),
(79,236,l),
(158,236,l),
(158,236,l),
(158,236,l),
(158,315,l),
(236,315,l),
(315,315,l),
(315,236,l),
(315,236,l)
);
},
{
closed = 1;
nodes = (
(709,709,l),
(788,709,l),
(788,709,l),
(788,788,l),
(788,788,l),
(709,788,l),
(709,788,l),
(709,866,l),
(630,866,l),
(630,866,l),
(630,788,l),
(630,709,l)
);
},
{
closed = 1;
nodes = (
(315,788,l),
(473,788,l),
(473,709,l),
(473,709,l),
(473,709,l),
(394,709,l),
(394,630,l),
(394,551,l),
(473,551,l),
(551,551,l),
(551,551,l),
(551,630,l),
(473,630,l),
(473,630,l),
(473,630,l),
(473,709,l),
(473,709,l),
(551,709,l),
(551,788,l),
(551,945,l),
(394,945,l),
(236,945,l),
(236,866,l),
(236,788,l)
);
}
);
width = 866;
}
);
note = "copy-link";
unicode = 61514;
},
{
glyphname = fullwidth;
lastChange = "2023-04-13 13:53:07 +0000";
layers = (
{
layerId = m01;
shapes = (
{
attr = {
fillColor = (0,255);
};
closed = 1;
nodes = (
(53,857,l),
(53,690,l),
(137,690,l),
(137,773,l),
(863,773,l),
(863,690,l),
(947,690,l),
(947,857,l),
(137,857,l)
);
},
{
attr = {
fillColor = (0,255);
};
closed = 1;
nodes = (
(53,190,l),
(137,190,l),
(137,107,l),
(863,107,l),
(863,190,l),
(947,190,l),
(947,23,l),
(53,23,l),
(53,107,l)
);
},
{
attr = {
fillColor = (0,255);
};
closed = 1;
nodes = (
(552,482,l),
(552,398,l),
(780,398,l),
(780,315,l),
(697,315,l),
(697,232,l),
(780,232,l),
(780,315,l),
(863,315,l),
(863,398,l),
(947,398,l),
(947,482,l),
(863,482,l),
(863,565,l),
(780,565,l),
(780,648,l),
(697,648,l),
(697,565,l),
(780,565,l),
(780,482,l)
);
},
{
attr = {
fillColor = (0,255);
};
closed = 1;
nodes = (
(220,482,l),
(220,565,l),
(303,565,l),
(303,648,l),
(220,648,l),
(220,565,l),
(137,565,l),
(137,482,l),
(53,482,l),
(53,398,l),
(137,398,l),
(137,315,l),
(220,315,l),
(220,232,l),
(303,232,l),
(303,315,l),
(220,315,l),
(220,398,l),
(458,398,l),
(458,482,l)
);
}
);
width = 1000;
}
);
note = fullwidth;
unicode = 61515;
},
{
glyphname = keyboard;
lastChange = "2023-04-13 13:49:58 +0000";
layers = (
{
layerId = m01;
shapes = (
{
attr = {
fillColor = (0,255);
};
closed = 1;
nodes = (
(45,815,l),
(45,65,l),
(962,65,l),
(962,815,l)
);
},
{
attr = {
fillColor = (0,255);
};
closed = 1;
nodes = (
(128,732,l),
(879,732,l),
(879,148,l),
(128,148,l)
);
},
{
attr = {
fillColor = (0,255);
};
closed = 1;
nodes = (
(212,648,l),
(212,565,l),
(295,565,l),
(295,648,l)
);
},
{
attr = {
fillColor = (0,255);
};
closed = 1;
nodes = (
(212,315,l),
(212,232,l),
(799,232,l),
(799,315,l)
);
},
{
attr = {
fillColor = (0,255);
};
closed = 1;
nodes = (
(628,648,l),
(628,565,l),
(545,565,l),
(545,648,l)
);
},
{
attr = {
fillColor = (0,255);
};
closed = 1;
nodes = (
(378,648,l),
(378,565,l),
(462,565,l),
(462,648,l)
);
},
{
attr = {
fillColor = (0,255);
};
closed = 1;
nodes = (
(295,482,l),
(295,398,l),
(212,398,l),
(212,482,l)
);
},
{
attr = {
fillColor = (0,255);
};
closed = 1;
nodes = (
(545,482,l),
(545,398,l),
(628,398,l),
(628,482,l)
);
},
{
attr = {
fillColor = (0,255);
};
closed = 1;
nodes = (
(462,482,l),
(462,398,l),
(378,398,l),
(378,482,l)
);
},
{
attr = {
fillColor = (0,255);
};
closed = 1;
nodes = (
(796,652,l),
(796,569,l),
(713,569,l),
(713,652,l)
);
},
{
attr = {
fillColor = (0,255);
};
closed = 1;
nodes = (
(713,486,l),
(713,402,l),
(796,402,l),
(796,486,l)
);
}
);
width = 1000;
}
);
note = keyboard;
unicode = 61516;
},
{
glyphname = share;
layers = (
{
layerId = m01;
shapes = (
{
closed = 1;
nodes = (
(0,79,l),
(79,79,l),
(79,79,l),
(79,0,l),
(473,0,l),
(945,0,l),
(945,79,l),
(945,79,l),
(945,79,l),
(1024,79,l),
(1024,394,l),
(1024,630,l),
(945,630,l),
(866,630,l),
(866,394,l),
(866,158,l),
(473,158,l),
(158,158,l),
(158,394,l),
(158,630,l),
(79,630,l),
(0,630,l),
(0,394,l),
(0,79,l)
);
},
{
closed = 1;
nodes = (
(473,866,l),
(394,866,l),
(394,866,l),
(394,788,l),
(315,788,l),
(315,788,l),
(315,788,l),
(315,709,l),
(315,709,l),
(236,709,l),
(236,630,l),
(236,551,l),
(315,551,l),
(394,551,l),
(394,394,l),
(394,236,l),
(473,236,l),
(630,236,l),
(630,394,l),
(630,551,l),
(709,551,l),
(788,551,l),
(788,630,l),
(788,709,l),
(788,709,l),
(709,709,l),
(709,788,l),
(709,788,l),
(630,788,l),
(630,788,l),
(630,866,l),
(630,866,l),
(630,866,l),
(551,866,l),
(551,945,l),
(551,945,l),
(473,945,l),
(473,945,l),
(473,945,l),
(473,866,l)
);
}
);
width = 1024;
}
);
note = share;
unicode = 61517;
},
{
glyphname = back;
lastChange = "2023-04-13 14:36:50 +0000";
layers = (
{
layerId = m01;
shapes = (
{
closed = 1;
nodes = (
(295,807,l),
(295,807,l),
(295,733,l),
(295,733,l),
(295,733,l),
(222,733,l),
(222,659,l),
(222,659,l),
(148,659,l),
(148,659,l),
(148,586,l),
(148,586,l),
(148,586,l),
(74,586,l),
(74,512,l),
(74,512,l),
(0,512,l),
(0,512,l),
(0,439,l),
(0,364,l),
(0,364,l),
(74,364,l),
(74,290,l),
(74,290,l),
(148,290,l),
(148,290,l),
(148,216,l),
(148,216,l),
(148,216,l),
(222,216,l),
(222,144,l),
(222,144,l),
(295,144,l),
(295,144,l),
(295,69,l),
(295,69,l),
(295,69,l),
(369,69,l),
(369,-5,l),
(369,-5,l),
(443,-5,l),
(443,-5,l),
(443,-79,l),
(443,-79,l),
(443,-79,l),
(517,-79,l),
(517,-79,l),
(517,-5,l),
(591,-5,l),
(591,-5,l),
(591,69,l),
(591,144,l),
(591,144,l),
(517,144,l),
(517,144,l),
(517,216,l),
(443,216,l),
(443,216,l),
(443,216,l),
(443,290,l),
(443,290,l),
(369,290,l),
(369,290,l),
(369,364,l),
(295,364,l),
(295,364,l),
(295,439,l),
(295,512,l),
(295,512,l),
(369,512,l),
(369,512,l),
(369,586,l),
(443,586,l),
(443,586,l),
(443,586,l),
(443,659,l),
(443,659,l),
(517,659,l),
(517,659,l),
(517,733,l),
(591,733,l),
(591,733,l),
(591,807,l),
(591,881,l),
(515,881,l),
(515,946,l),
(443,946,l),
(443,881,l),
(369,881,l),
(369,807,l),
(369,807,l)
);
}
);
width = 591;
}
);
note = back;
unicode = 61518;
},
{
glyphname = next;
lastChange = "2023-04-13 14:28:56 +0000";
layers = (
{
layerId = m01;
shapes = (
{
closed = 1;
nodes = (
(0,722,l),
(73,722,l),
(73,649,l),
(73,649,l),
(146,649,l),
(146,649,l),
(146,576,l),
(146,576,l),
(146,576,l),
(218,576,l),
(218,503,l),
(218,503,l),
(291,503,l),
(291,503,l),
(291,431,l),
(291,358,l),
(291,358,l),
(218,358,l),
(218,285,l),
(218,285,l),
(146,285,l),
(146,285,l),
(146,212,l),
(146,212,l),
(146,212,l),
(73,212,l),
(73,140,l),
(73,140,l),
(0,140,l),
(0,140,l),
(0,67,l),
(0,-6,l),
(0,-6,l),
(73,-6,l),
(73,-79,l),
(73,-79,l),
(146,-79,l),
(146,-79,l),
(146,-79,l),
(146,-6,l),
(146,-6,l),
(218,-6,l),
(218,-6,l),
(218,67,l),
(291,67,l),
(291,67,l),
(291,67,l),
(291,140,l),
(291,140,l),
(364,140,l),
(364,140,l),
(364,212,l),
(437,212,l),
(437,212,l),
(437,212,l),
(437,285,l),
(437,285,l),
(509,285,l),
(509,285,l),
(509,358,l),
(582,358,l),
(582,358,l),
(582,431,l),
(582,503,l),
(582,503,l),
(509,503,l),
(509,503,l),
(509,576,l),
(437,576,l),
(437,576,l),
(437,576,l),
(437,649,l),
(437,649,l),
(364,649,l),
(364,649,l),
(364,722,l),
(291,722,l),
(291,722,l),
(291,722,l),
(291,794,l),
(291,794,l),
(218,794,l),
(218,794,l),
(218,867,l),
(146,867,l),
(146,945,l),
(71,945,l),
(71,867,l),
(0,867,l),
(0,794,l),
(0,722,l)
);
}
);
width = 582;
}
);
note = next;
unicode = 61519;
},
{
glyphname = "notify-line";
lastChange = "2023-04-13 12:28:50 +0000";
layers = (
{
layerId = m01;
shapes = (
{
closed = 1;
nodes = (
(315,788,l),
(236,788,l),
(236,709,l),
(236,709,l),
(158,709,l),
(158,709,l),
(158,630,l),
(158,630,l),
(158,630,l),
(79,630,l),
(79,473,l),
(79,315,l),
(0,315,l),
(0,315,l),
(0,236,l),
(0,158,l),
(0,158,l),
(79,158,l),
(79,79,l),
(79,79,l),
(158,79,l),
(236,79,l),
(236,0,l),
(236,0,l),
(315,0,l),
(315,0,l),
(315,-79,l),
(315,-79,l),
(473,-79,ls),
(630,-79,o),
(551,-79,q),
(551,-79,l),
(551,0,l),
(630,0,l),
(630,0,l),
(630,0,l),
(630,79,l),
(709,79,l),
(788,79,l),
(788,79,l),
(788,158,l),
(788,158,l),
(866,158,l),
(866,236,l),
(866,315,l),
(788,315,l),
(788,315,l),
(788,473,l),
(788,630,l),
(788,630,l),
(709,630,l),
(709,630,l),
(709,709,l),
(630,709,l),
(630,709,l),
(630,709,l),
(630,788,l),
(630,788,l),
(551,788,l),
(551,866,l),
(551,945,l),
(473,945,l),
(315,945,l),
(315,866,l),
(315,788,l)
);
},
{
closed = 1;
nodes = (
(473,788,l),
(551,788,l),
(551,709,l),
(551,709,l),
(630,709,l),
(630,709,l),
(630,630,l),
(630,630,l),
(630,630,l),
(709,630,l),
(709,473,l),
(709,315,l),
(788,315,l),
(788,315,l),
(788,236,l),
(788,158,l),
(473,158,ls),
(158,158,o),
(79,158,q),
(79,236,l),
(79,315,l),
(158,315,l),
(158,315,l),
(158,473,l),
(158,630,l),
(158,630,l),
(236,630,l),
(236,630,l),
(236,709,l),
(315,709,l),
(315,709,l),
(315,709,l),
(315,788,l),
(315,788,l),
(394,788,l),
(394,788,l),
(394,866,l),
(473,866,l),
(473,866,l),
(473,788,l),
(473,788,l)
);
},
{
closed = 1;
nodes = (
(473,0,l),
(315,0,l),
(315,0,l),
(315,79,l),
(473,79,ls),
(630,79,o),
(551,79,q),
(551,0,l),
(551,0,l)
);
}
);
width = 866;
}
);
note = "notify-line";
unicode = 61520;
},
{
glyphname = password;
lastChange = "2023-04-13 12:28:50 +0000";
layers = (
{
layerId = m01;
shapes = (
{
closed = 1;
nodes = (
(158,788,l),
(158,788,l),
(158,630,l),
(158,551,l),
(158,551,l),
(79,551,l),
(79,473,l),
(79,473,l),
(0,473,l),
(0,473,l),
(0,236,l),
(0,0,l),
(0,0,l),
(79,0,l),
(79,-79,l),
(79,-79,l),
(473,-79,l),
(788,-79,l),
(788,-79,l),
(788,0,l),
(788,0,l),
(866,0,l),
(866,236,l),
(866,473,l),
(788,473,l),
(788,473,l),
(788,473,l),
(788,551,l),
(788,551,l),
(709,551,l),
(709,709,l),
(709,866,l),
(630,866,l),
(630,866,l),
(630,866,l),
(630,945,l),
(473,945,ls),
(315,945,o),
(236,945,q),
(236,866,l),
(236,788,l)
);
},
{
closed = 1;
nodes = (
(473,788,l),
(551,788,l),
(551,630,l),
(551,551,l),
(473,551,l),
(315,551,l),
(315,630,l),
(315,788,l),
(315,788,l),
(394,788,l),
(394,788,l),
(394,866,l),
(473,866,l),
(473,866,l),
(473,788,l),
(473,788,l)
);
},
{
closed = 1;
nodes = (
(158,158,l),
(158,158,l),
(158,236,l),
(158,315,l),
(158,315,l),
(236,315,l),
(236,236,l),
(236,158,l)
);
},
{
closed = 1;
nodes = (
(473,158,l),
(394,158,l),
(394,236,l),
(394,315,l),
(473,315,l),
(473,315,l),
(473,236,l),
(473,158,l)
);
},
{
closed = 1;
nodes = (
(630,158,l),
(630,158,l),
(630,236,l),
(630,315,l),
(630,315,l),
(709,315,l),
(709,236,l),
(709,158,l)
);
}
);
width = 866;
}
);
note = password;
unicode = 61521;
},
{
glyphname = "clique-add";
layers = (
{
layerId = m01;
shapes = (
{
closed = 1;
nodes = (
(473,315,l),
(630,315,l),
(630,394,l),
(630,473,l),
(473,473,ls),
(315,473,o),
(394,473,q),
(394,394,l),
(394,315,l)
);
},
{
closed = 1;
nodes = (
(788,394,l),
(866,394,l),
(866,473,l),
(866,551,l),
(788,551,l),
(709,551,l),
(709,473,l),
(709,394,l)
);
},
{
closed = 1;
nodes = (
(236,394,l),
(315,394,l),
(315,473,l),
(315,551,l),
(236,551,l),
(158,551,l),
(158,473,l),
(158,394,l)
);
},
{
closed = 1;
nodes = (
(236,866,l),
(158,866,l),
(158,788,l),
(158,788,l),
(158,788,l),
(79,788,l),
(79,709,l),
(79,630,l),
(0,630,l),
(0,630,l),
(0,394,l),
(0,236,l),
(0,236,l),
(79,236,l),
(79,158,l),
(79,79,l),
(158,79,l),
(158,79,l),
(158,0,l),
(158,0,l),
(236,0,l),
(315,0,l),
(315,-79,l),
(315,-79,l),
(473,-79,ls),
(630,-79,o),
(709,-79,q),
(709,-79,l),
(709,0,l),
(630,0,l),
(630,0,l),
(630,0,l),
(630,79,l),
(709,79,l),
(788,79,l),
(788,0,l),
(788,-79,l),
(788,-79,l),
(866,-79,l),
(866,0,l),
(866,79,l),
(945,79,l),
(1024,79,l),
(1024,79,l),
(1024,158,l),
(945,158,l),
(866,158,l),
(866,236,l),
(866,315,l),
(945,315,l),
(945,315,l),
(945,236,l),
(945,236,l),
(945,236,l),
(1024,236,l),
(1024,394,l),
(1024,630,l),
(945,630,l),
(945,630,l),
(945,709,l),
(945,788,l),
(945,788,l),
(866,788,l),
(866,788,l),
(866,866,l),
(788,866,l),
(709,866,l),
(709,866,l),
(709,945,l),
(473,945,l),
(315,945,l),
(315,866,l),
(315,866,l)
);
},
{
closed = 1;
nodes = (
(788,788,l),
(866,788,l),
(866,709,l),
(866,630,l),
(945,630,l),
(945,630,l),
(945,473,l),
(945,394,l),
(945,394,l),
(866,394,l),
(866,315,l),
(866,315,l),
(788,315,l),
(788,315,l),
(788,236,l),
(788,158,l),
(709,158,l),
(630,158,l),
(630,79,l),
(630,79,l),
(630,79,l),
(551,79,l),
(551,79,l),
(551,158,l),
(630,158,l),
(630,158,l),
(630,158,l),
(630,236,l),
(473,236,ls),
(315,236,o),
(394,236,q),
(394,158,l),
(394,158,l),
(315,158,l),
(315,158,l),
(315,79,l),
(315,79,l),
(315,79,l),
(236,79,l),
(236,79,l),
(236,158,l),
(315,158,l),
(315,158,l),
(315,236,l),
(315,315,l),
(236,315,l),
(158,315,l),
(158,315,l),
(158,394,l),
(158,394,l),
(79,394,l),
(79,473,l),
(79,630,l),
(158,630,l),
(158,630,l),
(158,709,l),
(158,788,l),
(236,788,l),
(315,788,l),
(315,788,l),
(315,866,l),
(473,866,ls),
(630,866,o),
(709,866,q),
(709,788,l),
(709,788,l)
);
}
);
width = 1024;
}
);
note = "clique-add";
unicode = 61522;
},
{
glyphname = option;
layers = (
{
layerId = m01;
shapes = (
{
closed = 1;
nodes = (
(0,709,l),
(0,709,l),
(0,630,l),
(0,551,l),
(0,551,l),
(79,551,l),
(79,551,l),
(79,473,l),
(158,473,l),
(158,473,l),
(158,473,l),
(158,394,l),
(158,394,l),
(236,394,l),
(236,394,l),
(236,315,l),
(315,315,l),
(315,315,l),
(315,315,l),
(315,236,l),
(315,236,l),
(394,236,l),
(394,236,l),
(394,158,l),
(473,158,l),
(630,158,l),
(630,236,l),
(630,236,l),
(630,236,l),
(709,236,l),
(709,315,l),
(709,315,l),
(788,315,l),
(788,315,l),
(788,394,l),
(788,394,l),
(788,394,l),
(866,394,l),
(866,473,l),
(866,473,l),
(945,473,l),
(945,473,l),
(945,551,l),
(945,551,l),
(945,551,l),
(1024,551,l),
(1024,630,l),
(1024,709,l),
(945,709,l),
(945,709,l),
(945,788,l),
(945,788,l),
(945,788,l),
(866,788,l),
(866,788,l),
(866,709,l),
(788,709,l),
(788,709,l),
(788,709,l),
(788,630,l),
(788,630,l),
(709,630,l),
(709,630,l),
(709,551,l),
(630,551,l),
(630,551,l),
(630,551,l),
(630,473,l),
(630,473,l),
(551,473,l),
(551,473,l),
(551,394,l),
(473,394,l),
(473,394,l),
(473,473,l),
(473,473,l),
(473,473,l),
(394,473,l),
(394,551,l),
(394,551,l),
(315,551,l),
(315,551,l),
(315,630,l),
(315,630,l),
(315,630,l),
(236,630,l),
(236,709,l),
(236,709,l),
(158,709,l),
(158,709,l),
(158,788,l),
(158,788,l),
(158,788,l),
(79,788,l),
(79,788,l),
(79,709,l)
);
}
);
width = 1024;
}
);
note = option;
unicode = 61523;
},
{
glyphname = home;
lastChange = "2023-04-13 14:26:10 +0000";
layers = (
{
layerId = m01;
shapes = (
{
closed = 1;
nodes = (
(473,866,l),
(394,866,l),
(394,788,l),
(394,788,l),
(315,788,l),
(265,788,l),
(265,709,l),
(315,709,l),
(315,709,l),
(156,709,l),
(156,630,l),
(236,630,l),
(158,630,l),
(79,630,l),
(79,551,l),
(79,551,l),
(0,551,l),
(0,551,l),
(0,473,l),
(0,473,l),
(79,473,l),
(158,473,l),
(158,236,l),
(158,0,l),
(158,0,l),
(236,0,l),
(236,-79,l),
(236,-79,l),
(945,-79,l),
(945,-79,l),
(945,0,l),
(945,0,l),
(1024,0,l),
(1024,236,l),
(1024,473,l),
(1103,473,l),
(1182,473,l),
(1182,473,l),
(1182,551,l),
(1103,551,l),
(1103,551,l),
(1103,551,l),
(1103,630,l),
(1103,630,l),
(1024,630,l),
(1024,709,l),
(1024,866,l),
(945,866,l),
(866,866,l),
(866,788,l),
(866,788,l),
(788,788,l),
(788,788,l),
(788,788,l),
(788,866,l),
(788,866,l),
(709,866,l),
(709,866,l),
(709,945,l),
(630,945,l),
(473,945,l),
(473,866,l),
(473,866,l)
);
},
{
closed = 1;
nodes = (
(650,788,l),
(749,788,l),
(749,709,l),
(709,709,l),
(788,709,l),
(866,709,l),
(866,630,l),
(866,630,l),
(945,630,l),
(945,630,l),
(945,551,l),
(945,551,l),
(945,551,l),
(1024,551,l),
(1024,473,l),
(1024,473,l),
(945,473,l),
(945,473,l),
(945,473,l),
(945,551,l),
(866,551,l),
(788,551,l),
(788,551,l),
(788,630,l),
(788,630,l),
(709,630,l),
(709,630,l),
(709,709,l),
(473,709,l),
(473,630,l),
(473,630,l),
(473,630,l),
(394,630,l),
(394,551,l),
(394,551,l),
(235,551,l),
(235,551,l),
(235,473,l),
(235,473,l),
(158,473,l),
(158,473,l),
(158,551,l),
(158,551,l),
(236,551,l),
(236,551,l),
(236,630,l),
(315,630,l),
(315,630,l),
(315,630,l),
(315,709,l),
(394,709,l),
(473,709,l),
(439,709,l),
(439,788,l),
(473,788,l),
(531,788,l),
(531,788,l),
(531,866,l),
(650,866,l),
(650,866,l),
(650,788,l),
(650,788,l)
);
},
{
closed = 1;
nodes = (
(789,236,l),
(789,236,l),
(789,315,l),
(867,315,l),
(946,315,l),
(946,236,l),
(946,236,l),
(946,236,l),
(867,236,l),
(867,158,l),
(867,158,l),
(946,158,l),
(946,158,l),
(946,79,l),
(946,79,l),
(867,79,l),
(789,79,l),
(789,79,l),
(789,158,l),
(395,158,l),
(395,79,l),
(395,79,l),
(316,79,l),
(237,79,l),
(237,79,l),
(237,158,l),
(316,158,l),
(316,158,l),
(316,158,l),
(316,236,l),
(316,236,l),
(237,236,l),
(237,236,l),
(237,315,l),
(316,315,l),
(395,315,l),
(395,236,l),
(395,236,l)
);
}
);
width = 1182;
}
);
note = home;
unicode = 61524;
},
{
glyphname = store;
lastChange = "2023-04-13 13:48:49 +0000";
layers = (
{
layerId = m01;
shapes = (
{
closed = 1;
nodes = (
(315,866,l),
(236,866,l),
(236,788,l),
(236,709,l),
(158,709,l),
(79,709,l),
(79,551,l),
(79,473,l),
(0,473,l),
(0,473,l),
(0,236,l),
(0,0,l),
(0,0,l),
(79,0,l),
(79,-79,l),
(79,-79,l),
(473,-79,l),
(866,-79,l),
(866,-79,l),
(866,0,l),
(945,0,l),
(945,0,l),
(945,236,l),
(945,473,l),
(945,473,l),
(866,473,l),
(866,551,l),
(866,709,l),
(788,709,l),
(709,709,l),
(709,709,l),
(709,788,l),
(709,866,l),
(630,866,l),
(630,945,l),
(473,945,l),
(315,945,l),
(315,866,l),
(315,866,l)
);
},
{
closed = 1;
nodes = (
(630,865,l),
(630,708,l),
(630,708,l),
(473,708,l),
(315,708,l),
(315,787,l),
(315,865,l),
(551,865,l)
);
},
{
closed = 1;
nodes = (
(315,551,l),
(236,551,l),
(236,551,l),
(236,630,l),
(315,630,l),
(315,630,l),
(315,551,l),
(315,551,l)
);
},
{
closed = 1;
nodes = (
(630,551,l),
(630,551,l),
(630,551,l),
(630,630,l),
(630,630,l),
(709,630,l),
(709,551,l),
(709,551,l)
);
}
);
width = 945;
}
);
note = store;
unicode = 61525;
},
{
glyphname = "store-buy";
layers = (
{
layerId = m01;
shapes = (
{
closed = 1;
nodes = (
(630,79,l),
(630,79,l),
(630,0,l),
(630,0,l),
(630,0,l),
(709,0,l),
(709,-79,l),
(709,-79,l),
(788,-79,l),
(866,-79,l),
(866,-79,l),
(866,0,l),
(945,0,l),
(945,0,l),
(945,0,l),
(945,79,l),
(945,79,l),
(866,79,l),
(866,79,l),
(866,158,l),
(788,158,l),
(709,158,l),
(709,79,l),
(709,79,l)
);
},
{
closed = 1;
nodes = (
(158,79,l),
(158,79,l),
(158,0,l),
(158,0,l),
(158,0,l),
(236,0,l),
(236,-79,l),
(236,-79,l),
(315,-79,l),
(394,-79,l),
(394,-79,l),
(394,0,l),
(473,0,l),
(473,0,l),
(473,0,l),
(473,79,l),
(473,79,l),
(394,79,l),
(394,79,l),
(394,158,l),
(315,158,l),
(236,158,l),
(236,79,l),
(236,79,l)
);
},
{
closed = 1;
nodes = (
(0,788,l),
(79,788,l),
(79,630,l),
(79,473,l),
(158,473,l),
(158,473,l),
(158,315,l),
(158,236,l),
(551,236,l),
(945,236,l),
(945,315,l),
(945,473,l),
(945,473,l),
(1024,473,l),
(1024,630,l),
(1024,866,l),
(630,866,l),
(158,866,l),
(158,866,l),
(158,945,l),
(79,945,l),
(0,945,l),
(0,866,l),
(0,788,l)
);
},
{
closed = 1;
nodes = (
(315,551,l),
(236,551,l),
(236,630,l),
(236,709,l),
(315,709,l),
(394,709,l),
(394,630,l),
(394,551,l)
);
},
{
closed = 1;
nodes = (
(551,551,l),
(473,551,l),
(473,630,l),
(473,709,l),
(551,709,l),
(630,709,l),
(630,630,l),
(630,551,l)
);
},
{
closed = 1;
nodes = (
(788,551,l),
(709,551,l),
(709,630,l),
(709,709,l),
(788,709,l),
(866,709,l),
(866,630,l),
(866,551,l)
);
},
{
closed = 1;
nodes = (
(315,315,l),
(236,315,l),
(236,394,l),
(236,473,l),
(315,473,l),
(394,473,l),
(394,394,l),
(394,315,l)
);
},
{
closed = 1;
nodes = (
(551,315,l),
(473,315,l),
(473,394,l),
(473,473,l),
(551,473,l),
(630,473,l),
(630,394,l),
(630,315,l)
);
},
{
closed = 1;
nodes = (
(788,315,l),
(709,315,l),
(709,394,l),
(709,473,l),
(788,473,l),
(866,473,l),
(866,394,l),
(866,315,l)
);
}
);
width = 1024;
}
);
note = "store-buy";
unicode = 61526;
},
{
glyphname = "store-friends";
lastChange = "2023-04-13 12:28:50 +0000";
layers = (
{
layerId = m01;
shapes = (
{
closed = 1;
nodes = (
(315,866,l),
(236,866,l),
(236,788,l),
(236,709,l),
(158,709,l),
(79,709,l),
(79,551,l),
(79,473,l),
(0,473,l),
(0,473,l),
(0,236,l),
(0,0,l),
(0,0,l),
(79,0,l),
(79,-79,l),
(79,-79,l),
(473,-79,l),
(866,-79,l),
(866,-79,l),
(866,0,l),
(945,0,l),
(945,0,l),
(945,236,l),
(945,473,l),
(945,473,l),
(866,473,l),
(866,551,l),
(866,709,l),
(788,709,l),
(709,709,l),
(709,788,l),
(709,866,l),
(630,866,l),
(630,866,l),
(630,866,l),
(630,945,l),
(473,945,l),
(315,945,l),
(315,866,l),
(315,866,l)
);
},
{
closed = 1;
nodes = (
(473,709,l),
(315,709,l),
(315,788,l),
(315,866,l),
(473,866,l),
(630,866,l),
(630,788,l),
(630,709,l)
);
},
{
closed = 1;
nodes = (
(315,551,l),
(236,551,l),
(236,551,l),
(236,630,l),
(315,630,l),
(315,630,l),
(315,551,l),
(315,551,l)
);
},
{
closed = 1;
nodes = (
(630,551,l),
(630,551,l),
(630,551,l),
(630,630,l),
(630,630,l),
(709,630,l),
(709,551,l),
(709,551,l)
);
},
{
closed = 1;
nodes = (
(315,315,l),
(236,315,l),
(236,394,l),
(236,473,l),
(315,473,l),
(394,473,l),
(394,394,l),
(394,315,l)
);
},
{
closed = 1;
nodes = (
(630,315,l),
(551,315,l),
(551,394,l),
(551,473,l),
(630,473,l),
(709,473,l),
(709,394,l),
(709,315,l)
);
},
{
closed = 1;
nodes = (
(315,0,l),
(158,0,l),
(158,79,l),
(158,236,l),
(315,236,l),
(473,236,l),
(473,79,l),
(473,0,l)
);
},
{
closed = 1;
nodes = (
(630,0,ls),
(472,0,o),
(551,0,q),
(551,79,l),
(551,236,l),
(630,236,l),
(788,236,l),
(788,79,l),
(788,0,l)
);
}
);
width = 945;
}
);
note = "store-friends";
unicode = 61527;
},
{
glyphname = "store-hot";
lastChange = "2023-04-13 12:28:50 +0000";
layers = (
{
layerId = m01;
shapes = (
{
closed = 1;
nodes = (
(315,866,l),
(236,866,l),
(236,788,l),
(236,709,l),
(158,709,l),
(79,709,l),
(79,551,l),
(79,473,l),
(0,473,l),
(0,473,l),
(0,236,l),
(0,0,l),
(0,0,l),
(79,0,l),
(79,-79,l),
(79,-79,l),
(473,-79,l),
(866,-79,l),
(866,-79,l),
(866,0,l),
(945,0,l),
(945,0,l),
(945,236,l),
(945,473,l),
(945,473,l),
(866,473,l),
(866,551,l),
(866,709,l),
(788,709,l),
(709,709,l),
(709,788,l),
(709,866,l),
(630,866,l),
(630,866,l),
(630,866,l),
(630,945,l),
(473,945,l),
(315,945,l),
(315,866,l),
(315,866,l)
);
},
{
closed = 1;
nodes = (
(473,709,l),
(315,709,l),
(315,788,l),
(315,866,l),
(473,866,l),
(630,866,l),
(630,788,l),
(630,709,l)
);
},
{
closed = 1;
nodes = (
(315,551,l),
(236,551,l),
(236,551,l),
(236,630,l),
(315,630,l),
(315,630,l),
(315,551,l),
(315,551,l)
);
},
{
closed = 1;
nodes = (
(630,551,l),
(630,551,l),
(630,551,l),
(630,630,l),
(630,630,l),
(709,630,l),
(709,551,l),
(709,551,l)
);
},
{
closed = 1;
nodes = (
(630,394,l),
(709,394,l),
(709,315,l),
(709,315,l),
(630,315,l),
(630,315,l),
(630,236,l),
(630,236,l),
(630,236,l),
(551,236,l),
(551,158,l),
(551,158,l),
(630,158,l),
(630,158,l),
(630,79,l),
(630,79,l),
(630,79,l),
(551,79,l),
(551,79,l),
(551,158,l),
(473,158,l),
(394,158,l),
(394,79,l),
(394,79,l),
(315,79,l),
(315,79,l),
(315,79,l),
(315,158,l),
(315,158,l),
(394,158,l),
(394,158,l),
(394,236,l),
(315,236,l),
(315,236,l),
(315,236,l),
(315,315,l),
(315,315,l),
(236,315,l),
(236,315,l),
(236,394,l),
(315,394,l),
(394,394,l),
(394,394,l),
(394,473,l),
(473,473,l),
(551,473,l),
(551,394,l),
(551,394,l)
);
}
);
width = 945;
}
);
note = "store-hot";
unicode = 61528;
},
{
glyphname = "store-my";
lastChange = "2023-04-13 12:28:50 +0000";
layers = (
{
layerId = m01;
shapes = (
{
closed = 1;
nodes = (
(315,866,l),
(236,866,l),
(236,788,l),
(236,709,l),
(158,709,l),
(79,709,l),
(79,551,l),
(79,473,l),
(0,473,l),
(0,473,l),
(0,236,l),
(0,0,l),
(0,0,l),
(79,0,l),
(79,-79,l),
(79,-79,l),
(473,-79,l),
(866,-79,l),
(866,-79,l),
(866,0,l),
(945,0,l),
(945,0,l),
(945,236,l),
(945,473,l),
(945,473,l),
(866,473,l),
(866,551,l),
(866,709,l),
(788,709,l),
(709,709,l),
(709,788,l),
(709,866,l),
(630,866,l),
(630,866,l),
(630,866,l),
(630,945,l),
(473,945,l),
(315,945,l),
(315,866,l),
(315,866,l)
);
},
{
closed = 1;
nodes = (
(473,709,l),
(315,709,l),
(315,788,l),
(315,866,l),
(473,866,l),
(630,866,l),
(630,788,l),
(630,709,l)
);
},
{
closed = 1;
nodes = (
(315,551,l),
(236,551,l),
(236,551,l),
(236,630,l),
(315,630,l),
(315,630,l),
(315,551,l),
(315,551,l)
);
},
{
closed = 1;
nodes = (
(630,551,l),
(630,551,l),
(630,551,l),
(630,630,l),
(630,630,l),
(709,630,l),
(709,551,l),
(709,551,l)
);
},
{
closed = 1;
nodes = (
(473,315,l),
(394,315,l),
(394,394,l),
(394,473,l),
(473,473,l),
(551,473,l),
(551,394,l),
(551,315,l)
);
},
{
closed = 1;
nodes = (
(630,158,l),
(630,158,l),
(630,79,l),
(630,0,l),
(473,0,l),
(315,0,l),
(315,79,l),
(315,158,l),
(315,158,l),
(394,158,l),
(394,158,l),
(394,236,l),
(473,236,l),
(551,236,l),
(551,158,l),
(551,158,l)
);
}
);
width = 945;
}
);
note = "store-my";
unicode = 61529;
},
{
glyphname = "store-order";
layers = (
{
layerId = m01;
shapes = (
{
closed = 1;
nodes = (
(0,866,l),
(79,866,l),
(79,394,l),
(79,-79,l),
(158,-79,l),
(158,-79,l),
(158,-79,l),
(158,0,l),
(158,0,l),
(236,0,l),
(236,-79,l),
(236,-79,l),
(315,-79,l),
(315,-79,l),
(315,-79,l),
(315,0,l),
(315,0,l),
(394,0,l),
(394,-79,l),
(394,-79,l),
(473,-79,l),
(473,-79,l),
(473,-79,l),
(473,0,l),
(473,0,l),
(551,0,l),
(551,-79,l),
(551,-79,l),
(630,-79,l),
(630,-79,l),
(630,-79,l),
(630,0,l),
(630,0,l),
(709,0,l),
(709,-79,l),
(709,-79,l),
(788,-79,l),
(788,-79,l),
(788,-79,l),
(788,0,l),
(788,0,l),
(866,0,l),
(866,-79,l),
(866,-79,l),
(945,-79,l),
(945,-79,l),
(945,394,l),
(945,866,l),
(945,866,l),
(1024,866,l),
(1024,866,l),
(1024,945,l),
(473,945,l),
(0,945,l),
(0,866,l),
(0,866,l)
);
},
{
closed = 1;
nodes = (
(473,709,ls),
(315,709,o),
(236,709,q),
(236,709,l),
(236,788,l),
(473,788,l),
(630,788,l),
(630,709,l),
(630,709,l)
);
},
{
closed = 1;
nodes = (
(473,473,ls),
(157,473,o),
(236,473,q),
(236,473,l),
(236,551,l),
(473,551,l),
(788,551,l),
(788,473,l),
(788,473,l)
);
},
{
closed = 1;
nodes = (
(473,236,ls),
(157,236,o),
(236,236,q),
(236,236,l),
(236,315,l),
(473,315,l),
(788,315,l),
(788,236,l),
(788,236,l)
);
}
);
width = 1024;
}
);
note = "store-order";
unicode = 61530;
},
{
glyphname = "follow-replurk";
layers = (
{
layerId = m01;
shapes = (
{
closed = 1;
nodes = (
(630,394,l),
(551,394,l),
(551,236,l),
(551,79,l),
(630,79,l),
(630,79,l),
(630,79,l),
(630,0,l),
(788,0,l),
(945,0,l),
(945,79,l),
(945,79,l),
(945,79,l),
(1024,79,l),
(1024,236,l),
(1024,394,l),
(945,394,l),
(945,394,l),
(945,473,l),
(945,473,l),
(788,473,l),
(630,473,l),
(630,473,l),
(630,394,l)
);
},
{
closed = 1;
nodes = (
(945,236,l),
(866,236,l),
(866,236,l),
(866,158,l),
(788,158,l),
(788,158,l),
(788,158,l),
(788,79,l),
(788,79,l),
(709,79,l),
(709,158,l),
(709,158,l),
(630,158,l),
(630,158,l),
(630,236,l),
(630,236,l),
(630,236,l),
(709,236,l),
(709,236,l),
(709,158,l),
(788,158,l),
(788,158,l),
(788,236,l),
(788,236,l),
(788,236,l),
(866,236,l),
(866,315,l),
(866,315,l),
(945,315,l),
(945,315,l),
(945,315,l),
(945,236,l)
);
},
{
closed = 1;
nodes = (
(0,158,l),
(79,158,l),
(79,236,l),
(79,236,l),
(158,236,l),
(158,236,l),
(158,236,l),
(158,158,l),
(158,158,l),
(236,158,l),
(236,158,l),
(236,79,l),
(315,79,l),
(473,79,l),
(473,158,l),
(473,236,l),
(394,236,l),
(315,236,l),
(315,315,l),
(315,315,l),
(315,315,l),
(236,315,l),
(236,394,l),
(236,394,l),
(315,394,l),
(315,394,l),
(315,473,l),
(315,473,l),
(158,473,l),
(0,473,l),
(0,315,l),
(0,158,l)
);
},
{
closed = 1;
nodes = (
(158,866,l),
(158,866,l),
(158,866,l),
(158,788,l),
(158,788,l),
(79,788,l),
(79,788,l),
(79,709,l),
(0,709,l),
(0,709,l),
(0,630,l),
(0,551,l),
(79,551,l),
(158,551,l),
(158,630,l),
(158,630,l),
(158,630,l),
(236,630,l),
(236,709,l),
(236,709,l),
(315,709,l),
(315,709,l),
(315,788,l),
(315,788,l),
(473,788,ls),
(630,788,o),
(551,788,q),
(551,788,l),
(551,709,l),
(630,709,l),
(630,709,l),
(630,709,l),
(630,630,l),
(630,630,l),
(551,630,l),
(551,630,l),
(551,551,l),
(709,551,l),
(866,551,l),
(866,709,l),
(866,866,l),
(788,866,l),
(788,866,l),
(788,866,l),
(788,788,l),
(788,788,l),
(709,788,l),
(709,866,l),
(709,866,l),
(630,866,l),
(630,866,l),
(630,945,l),
(630,945,l),
(473,945,ls),
(315,945,o),
(236,945,q),
(236,945,l),
(236,866,l)
);
}
);
width = 1024;
}
);
note = "follow-replurk";
unicode = 61531;
},
{
glyphname = "follow-replurk-cancel";
layers = (
{
layerId = m01;
shapes = (
{
closed = 1;
nodes = (
(630,394,l),
(551,394,l),
(551,236,l),
(551,79,l),
(630,79,l),
(630,79,l),
(630,79,l),
(630,0,l),
(788,0,l),
(945,0,l),
(945,79,l),
(945,79,l),
(945,79,l),
(1024,79,l),
(1024,236,l),
(1024,394,l),
(945,394,l),
(945,394,l),
(945,473,l),
(945,473,l),
(788,473,l),
(630,473,l),
(630,473,l),
(630,394,l)
);
},
{
closed = 1;
nodes = (
(788,315,l),
(866,315,l),
(866,394,l),
(866,394,l),
(945,394,l),
(945,394,l),
(945,394,l),
(945,315,l),
(945,315,l),
(866,315,l),
(866,236,l),
(866,158,l),
(945,158,l),
(945,158,l),
(945,158,l),
(945,79,l),
(945,79,l),
(866,79,l),
(866,158,l),
(866,158,l),
(788,158,l),
(709,158,l),
(709,158,l),
(709,79,l),
(630,79,l),
(630,79,l),
(630,158,l),
(630,158,l),
(630,158,l),
(709,158,l),
(709,236,l),
(709,315,l),
(630,315,l),
(630,315,l),
(630,394,l),
(630,394,l),
(630,394,l),
(709,394,l),
(709,394,l),
(709,315,l)
);
},
{
closed = 1;
nodes = (
(0,158,l),
(79,158,l),
(79,236,l),
(79,236,l),
(158,236,l),
(158,236,l),
(158,236,l),
(158,158,l),
(158,158,l),
(236,158,l),
(236,158,l),
(236,79,l),
(315,79,l),
(473,79,l),
(473,158,l),
(473,236,l),
(394,236,l),
(315,236,l),
(315,315,l),
(315,315,l),
(315,315,l),
(236,315,l),
(236,394,l),
(236,394,l),
(315,394,l),
(315,394,l),
(315,473,l),
(315,473,l),
(158,473,l),
(0,473,l),
(0,315,l),
(0,158,l)
);
},
{
closed = 1;
nodes = (
(158,866,l),
(158,866,l),
(158,866,l),
(158,788,l),
(158,788,l),
(79,788,l),
(79,788,l),
(79,709,l),
(0,709,l),
(0,709,l),
(0,630,l),
(0,551,l),
(79,551,l),
(158,551,l),
(158,630,l),
(158,630,l),
(158,630,l),
(236,630,l),
(236,709,l),
(236,709,l),
(315,709,l),
(315,709,l),
(315,788,l),
(315,788,l),
(473,788,ls),
(630,788,o),
(551,788,q),
(551,788,l),
(551,709,l),
(630,709,l),
(630,709,l),
(630,709,l),
(630,630,l),
(630,630,l),
(551,630,l),
(551,630,l),
(551,551,l),
(709,551,l),
(866,551,l),
(866,709,l),
(866,866,l),
(788,866,l),
(788,866,l),
(788,866,l),
(788,788,l),
(788,788,l),
(709,788,l),
(709,866,l),
(709,866,l),
(630,866,l),
(630,866,l),
(630,945,l),
(630,945,l),
(473,945,ls),
(315,945,o),
(236,945,q),
(236,945,l),
(236,866,l)
);
}
);
width = 1024;
}
);
note = "follow-replurk-cancel";
unicode = 61532;
},
{
glyphname = qrcode;
layers = (
{
layerId = m01;
shapes = (
{
closed = 1;
nodes = (
(315,551,ls),
(473,551,o),
(394,551,q),
(394,630,l),
(394,788,l),
(315,788,l),
(158,788,l),
(158,630,l),
(158,551,l)
);
},
{
closed = 1;
nodes = (
(945,315,l),
(866,315,l),
(866,236,l),
(866,236,l),
(788,236,l),
(788,236,l),
(788,236,l),
(788,315,l),
(709,315,l),
(630,315,l),
(630,236,l),
(630,236,l),
(630,236,l),
(551,236,l),
(551,236,l),
(551,315,l),
(473,315,l),
(473,315,l),
(473,158,l),
(473,79,l),
(394,79,l),
(315,79,l),
(315,79,l),
(315,158,l),
(315,158,l),
(394,158,l),
(394,158,l),
(394,236,l),
(315,236,l),
(236,236,l),
(236,236,l),
(236,315,l),
(158,315,l),
(0,315,l),
(0,236,l),
(0,236,l),
(79,236,l),
(158,236,l),
(158,158,l),
(158,158,l),
(79,158,l),
(0,158,l),
(0,79,l),
(0,79,l),
(0,79,l),
(79,79,l),
(79,0,l),
(79,0,l),
(0,0,l),
(0,0,l),
(0,-79,l),
(0,-79,l),
(158,-79,ls),
(315,-79,o),
(236,-79,q),
(236,-79,l),
(236,0,l),
(315,0,l),
(315,0,l),
(315,-79,l),
(315,-79,l),
(473,-79,ls),
(630,-79,o),
(551,-79,q),
(551,-79,l),
(551,0,l),
(473,0,l),
(473,0,l),
(473,0,l),
(473,79,l),
(473,79,l),
(551,79,l),
(551,79,l),
(551,158,l),
(630,158,l),
(630,158,l),
(630,79,l),
(630,0,l),
(788,0,ls),
(945,0,o),
(866,0,q),
(866,-79,l),
(866,-79,l),
(945,-79,l),
(945,-79,l),
(945,-79,l),
(945,0,l),
(945,0,l),
(866,0,l),
(866,0,l),
(866,79,l),
(945,79,l),
(1024,79,l),
(1024,158,l),
(1024,236,l),
(945,236,l),
(945,236,l),
(945,236,l),
(945,315,l),
(945,315,l),
(1024,315,l),
(1024,315,l),
(1024,394,l),
(945,394,l),
(945,394,l),
(945,315,l),
(945,315,l)
);
},
{
closed = 1;
nodes = (
(788,158,l),
(866,158,l),
(866,158,l),
(866,236,l),
(945,236,l),
(945,236,l),
(945,158,l),
(945,158,l),
(945,158,l),
(866,158,l),
(866,79,l),
(866,79,l),
(788,79,l),
(709,79,l),
(709,79,l),
(709,158,l),
(630,158,l),
(630,158,l),
(630,158,l),
(630,236,l),
(630,236,l),
(709,236,l),
(709,158,l),
(709,158,l)
);
},
{
closed = 1;
nodes = (
(158,79,l),
(158,79,l),
(158,79,l),
(158,158,l),
(158,158,l),
(236,158,l),
(236,79,l),
(236,79,l)
);
},
{
closed = 1;
nodes = (
(630,630,l),
(709,630,l),
(709,630,l),
(709,709,l),
(630,709,l),
(630,709,l),
(630,630,l),
(630,630,l)
);
},
{
closed = 1;
nodes = (
(630,866,l),
(709,866,l),
(709,788,l),
(709,788,l),
(788,788,l),
(788,788,l),
(788,709,l),
(788,630,l),
(788,630,l),
(866,630,l),
(866,551,l),
(866,551,l),
(788,551,l),
(709,551,l),
(709,473,l),
(709,473,l),
(630,473,l),
(630,473,l),
(630,394,l),
(630,394,l),
(630,394,l),
(709,394,l),
(709,394,l),
(709,473,l),
(788,473,l),
(788,473,l),
(788,394,l),
(788,394,l),
(788,394,l),
(866,394,l),
(866,394,l),
(866,473,l),
(945,473,l),
(1024,473,l),
(1024,551,l),
(1024,630,l),
(945,630,l),
(866,630,l),
(866,630,l),
(866,709,l),
(945,709,l),
(1024,709,l),
(1024,788,l),
(1024,945,l),
(945,945,l),
(945,945,l),
(945,866,l),
(945,788,l),
(866,788,l),
(788,788,l),
(788,788,l),
(788,866,l),
(788,866,l),
(866,866,l),
(866,866,l),
(866,945,l),
(788,945,l),
(788,945,l),
(788,866,l),
(788,866,l),
(788,866,l),
(709,866,l),
(709,866,l),
(709,945,l),
(630,945,l),
(630,945,l),
(630,866,l),
(630,866,l)
);
},
{
closed = 1;
nodes = (
(315,394,ls),
(630,394,o),
(551,394,q),
(551,630,l),
(551,945,l),
(315,945,l),
(0,945,l),
(0,630,l),
(0,394,l)
);
},
{
closed = 1;
nodes = (
(315,473,ls),
(158,473,o),
(79,473,q),
(79,630,l),
(79,866,l),
(315,866,l),
(473,866,l),
(473,630,l),
(473,473,l)
);
}
);
width = 1024;
}
);
note = qrcode;
unicode = 61533;
},
{
glyphname = star;
layers = (
{
layerId = m01;
shapes = (
{
closed = 1;
nodes = (
(473,866,l),
(394,866,l),
(394,788,l),
(394,709,l),
(315,709,l),
(315,709,l),
(315,630,l),
(315,630,l),
(158,630,l),
(0,630,l),
(0,551,l),
(0,473,l),
(0,473,l),
(79,473,l),
(79,394,l),
(79,394,l),
(158,394,l),
(158,394,l),
(158,315,l),
(158,315,l),
(158,315,l),
(236,315,l),
(236,236,l),
(236,158,l),
(158,158,l),
(158,158,l),
(158,0,l),
(158,-79,l),
(158,-79,l),
(236,-79,l),
(236,-79,l),
(236,0,l),
(315,0,l),
(394,0,l),
(394,0,l),
(394,79,l),
(473,79,l),
(630,79,l),
(630,0,l),
(630,0,l),
(709,0,l),
(788,0,l),
(788,-79,l),
(788,-79,l),
(788,-79,l),
(866,-79,l),
(866,0,l),
(866,158,l),
(788,158,l),
(788,158,l),
(788,236,l),
(788,315,l),
(788,315,l),
(866,315,l),
(866,315,l),
(866,394,l),
(945,394,l),
(945,394,l),
(945,394,l),
(945,473,l),
(945,473,l),
(1024,473,l),
(1024,551,l),
(1024,630,l),
(866,630,l),
(709,630,l),
(709,630,l),
(709,709,l),
(630,709,l),
(630,709,l),
(630,788,l),
(630,866,l),
(630,866,l),
(551,866,l),
(551,866,l),
(551,945,l),
(473,945,l),
(473,945,l),
(473,866,l),
(473,866,l)
);
}
);
width = 1024;
}
);
note = star;
unicode = 61534;
},
{
glyphname = "star-circle";
layers = (
{
layerId = m01;
shapes = (
{
closed = 1;
nodes = (
(236,866,l),
(158,866,l),
(158,788,l),
(158,788,l),
(158,788,l),
(79,788,l),
(79,709,l),
(79,630,l),
(0,630,l),
(0,630,l),
(0,394,l),
(0,236,l),
(0,236,l),
(79,236,l),
(79,158,l),
(79,79,l),
(158,79,l),
(158,79,l),
(158,0,l),
(158,0,l),
(236,0,l),
(315,0,l),
(315,-79,l),
(315,-79,l),
(473,-79,ls),
(630,-79,o),
(709,-79,q),
(709,-79,l),
(709,0,l),
(788,0,l),
(866,0,l),
(866,0,l),
(866,79,l),
(945,79,l),
(945,79,l),
(945,158,l),
(945,236,l),
(945,236,l),
(1024,236,l),
(1024,394,l),
(1024,630,l),
(945,630,l),
(945,630,l),
(945,709,l),
(945,788,l),
(945,788,l),
(866,788,l),
(866,788,l),
(866,866,l),
(788,866,l),
(709,866,l),
(709,866,l),
(709,945,l),
(473,945,l),
(315,945,l),
(315,866,l),
(315,866,l)
);
},
{
closed = 1;
nodes = (
(630,630,l),
(630,630,l),
(630,551,l),
(630,551,l),
(709,551,l),
(788,551,l),
(788,473,l),
(788,473,l),
(788,473,l),
(709,473,l),
(709,394,l),
(709,394,l),
(630,394,l),
(630,394,l),
(630,315,l),
(630,315,l),
(630,315,l),
(709,315,l),
(709,236,l),
(709,158,l),
(630,158,l),
(630,158,l),
(630,158,l),
(630,236,l),
(630,236,l),
(551,236,l),
(551,236,l),
(551,315,l),
(473,315,l),
(473,315,l),
(473,236,l),
(473,236,l),
(473,236,l),
(394,236,l),
(394,158,l),
(394,158,l),
(315,158,l),
(315,158,l),
(315,236,l),
(315,315,l),
(315,315,l),
(394,315,l),
(394,315,l),
(394,394,l),
(315,394,l),
(315,394,l),
(315,394,l),
(315,473,l),
(315,473,l),
(236,473,l),
(236,473,l),
(236,551,l),
(315,551,l),
(394,551,l),
(394,551,l),
(394,630,l),
(473,630,l),
(473,630,l),
(473,630,l),
(473,709,l),
(473,709,l),
(551,709,l),
(551,630,l),
(551,630,l)
);
}
);
width = 1024;
}
);
note = "star-circle";
unicode = 61535;
},
{
glyphname = porn;
layers = (
{
layerId = m01;
shapes = (
{
closed = 1;
nodes = (
(473,315,l),
(473,315,l),
(473,315,l),
(473,394,l),
(473,394,l),
(394,394,l),
(394,315,l),
(394,315,l)
);
},
{
closed = 1;
nodes = (
(473,473,l),
(473,473,l),
(473,473,l),
(473,551,l),
(473,551,l),
(394,551,l),
(394,473,l),
(394,473,l)
);
},
{
closed = 1;
nodes = (
(236,866,l),
(158,866,l),
(158,788,l),
(158,788,l),
(158,788,l),
(79,788,l),
(79,709,l),
(79,630,l),
(0,630,l),
(0,630,l),
(0,394,l),
(0,236,l),
(0,236,l),
(79,236,l),
(79,158,l),
(79,79,l),
(158,79,l),
(158,79,l),
(158,0,l),
(158,0,l),
(236,0,l),
(315,0,l),
(315,-79,l),
(315,-79,l),
(473,-79,ls),
(630,-79,o),
(709,-79,q),
(709,-79,l),
(709,0,l),
(788,0,l),
(866,0,l),
(866,0,l),
(866,79,l),
(945,79,l),
(945,79,l),
(945,158,l),
(945,236,l),
(945,236,l),
(1024,236,l),
(1024,394,l),
(1024,630,l),
(945,630,l),
(945,630,l),
(945,709,l),
(945,788,l),
(945,788,l),
(866,788,l),
(866,788,l),
(866,866,l),
(788,866,l),
(709,866,l),
(709,866,l),
(709,945,l),
(473,945,l),
(315,945,l),
(315,866,l),
(315,866,l)
);
},
{
closed = 1;
nodes = (
(158,236,l),
(158,236,l),
(158,315,l),
(158,473,l),
(158,473,l),
(79,473,l),
(79,473,l),
(79,551,l),
(158,551,l),
(158,551,l),
(158,551,l),
(158,630,l),
(158,630,l),
(236,630,l),
(236,394,l),
(236,236,l)
);
},
{
closed = 1;
nodes = (
(473,236,l),
(315,236,l),
(315,394,l),
(315,630,l),
(473,630,ls),
(630,630,o),
(551,630,q),
(551,394,l),
(551,236,l)
);
},
{
closed = 1;
nodes = (
(788,473,l),
(866,473,l),
(866,394,l),
(866,394,l),
(788,394,l),
(788,394,l),
(788,315,l),
(788,315,l),
(788,315,l),
(709,315,l),
(709,315,l),
(709,394,l),
(630,394,l),
(630,394,l),
(630,394,l),
(630,473,l),
(630,473,l),
(709,473,l),
(709,473,l),
(709,551,l),
(788,551,l),
(788,551,l),
(788,473,l),
(788,473,l)
);
}
);
width = 1024;
}
);
note = porn;
unicode = 61536;
},
{
glyphname = pin;
lastChange = "2023-04-13 12:28:50 +0000";
layers = (
{
layerId = m01;
shapes = (
{
closed = 1;
nodes = (
(315,-79,l),
(394,-79,l),
(394,79,l),
(394,236,l),
(315,236,l),
(236,236,l),
(236,79,l),
(236,-79,l)
);
},
{
closed = 1;
nodes = (
(0,394,l),
(0,394,l),
(0,315,l),
(0,315,l),
(315,315,l),
(630,315,l),
(630,315,l),
(630,394,l),
(630,394,l),
(551,394,l),
(551,394,l),
(551,473,l),
(315,473,l),
(79,473,l),
(79,394,l),
(79,394,l)
);
},
{
closed = 1;
nodes = (
(315,551,l),
(473,551,l),
(473,630,l),
(473,709,l),
(315,709,l),
(158,709,l),
(158,630,l),
(158,551,l)
);
},
{
closed = 1;
nodes = (
(315,788,l),
(551,788,l),
(551,866,l),
(551,945,l),
(315,945,l),
(79,945,l),
(79,866,l),
(79,788,l)
);
}
);
width = 630;
}
);
note = pin;
unicode = 61537;
},
{
glyphname = plurklogo;
lastChange = "2023-04-13 12:28:50 +0000";
layers = (
{
layerId = m01;
shapes = (
{
closed = 1;
nodes = (
(315,866,l),
(315,866,l),
(315,788,l),
(315,788,l),
(315,788,l),
(236,788,l),
(236,709,l),
(236,709,l),
(315,709,l),
(315,709,l),
(315,630,l),
(315,551,l),
(315,551,l),
(236,551,l),
(236,551,l),
(236,630,l),
(158,630,l),
(158,630,l),
(158,630,l),
(158,709,l),
(158,709,l),
(79,709,l),
(79,630,l),
(79,630,l),
(0,630,l),
(0,630,l),
(0,551,l),
(0,551,l),
(158,551,ls),
(315,551,o),
(236,551,q),
(236,473,l),
(236,473,l),
(158,473,l),
(158,473,l),
(158,394,l),
(158,394,l),
(236,394,l),
(315,394,l),
(315,315,l),
(315,315,l),
(236,315,l),
(158,315,l),
(158,236,l),
(158,158,l),
(158,158,l),
(79,158,l),
(79,79,l),
(79,79,l),
(158,79,l),
(158,79,l),
(158,0,l),
(158,0,l),
(158,0,l),
(236,0,l),
(236,0,l),
(236,79,l),
(315,79,l),
(315,79,l),
(315,0,l),
(315,0,l),
(394,0,l),
(473,0,l),
(473,-79,l),
(473,-79,l),
(630,-79,l),
(788,-79,l),
(788,-79,l),
(788,0,l),
(866,0,l),
(945,0,l),
(945,0,l),
(945,79,l),
(945,79,l),
(1024,79,l),
(1024,0,l),
(1024,0,l),
(1103,0,l),
(1103,0,l),
(1103,0,l),
(1103,79,l),
(1103,79,l),
(1182,79,l),
(1182,79,l),
(1182,158,l),
(1103,158,l),
(1103,158,l),
(1103,158,l),
(1103,236,l),
(1103,236,l),
(1182,236,l),
(1182,394,l),
(1182,630,l),
(1260,630,l),
(1260,630,l),
(1260,630,l),
(1260,709,l),
(1260,709,l),
(1182,709,l),
(1182,630,l),
(1182,630,l),
(1103,630,l),
(1103,630,l),
(1103,709,l),
(1103,788,l),
(1103,788,l),
(1024,788,l),
(1024,788,l),
(1024,866,l),
(945,866,l),
(866,866,l),
(866,866,l),
(866,945,l),
(630,945,l),
(394,945,l),
(394,866,l),
(394,866,l)
);
},
{
closed = 1;
nodes = (
(473,709,l),
(473,709,l),
(473,551,l),
(473,473,l),
(473,473,l),
(394,473,l),
(394,394,l),
(394,394,l),
(315,394,l),
(315,394,l),
(315,394,l),
(315,473,l),
(315,473,l),
(394,473,l),
(394,551,l),
(394,709,l),
(315,709,l),
(315,709,l),
(315,709,l),
(315,788,l),
(315,788,l),
(394,788,l),
(394,709,l),
(394,709,l)
);
}
);
width = 1260;
}
);
note = plurklogo;
unicode = 61538;
},
{
glyphname = scale;
layers = (
{
layerId = m01;
shapes = (
{
closed = 1;
nodes = (
(0,551,l),
(79,551,l),
(79,551,l),
(79,630,l),
(158,630,l),
(236,630,l),
(236,551,l),
(236,551,l),
(315,551,l),
(315,551,l),
(315,473,l),
(315,473,l),
(315,473,l),
(394,473,l),
(394,394,l),
(394,394,l),
(473,394,l),
(473,394,l),
(473,315,l),
(473,315,l),
(473,315,l),
(551,315,l),
(551,236,l),
(551,236,l),
(630,236,l),
(630,236,l),
(630,158,l),
(630,158,l),
(630,158,l),
(709,158,l),
(709,79,l),
(709,0,l),
(630,0,l),
(630,0,l),
(630,-79,l),
(630,-79,l),
(788,-79,ls),
(945,-79,o),
(1024,-79,q),
(1024,79,l),
(1024,315,l),
(945,315,l),
(945,315,l),
(945,236,l),
(945,236,l),
(866,236,l),
(788,236,l),
(788,236,l),
(788,315,l),
(788,315,l),
(709,315,l),
(709,315,l),
(709,394,l),
(630,394,l),
(630,394,l),
(630,394,l),
(630,473,l),
(630,473,l),
(551,473,l),
(551,473,l),
(551,551,l),
(473,551,l),
(473,551,l),
(473,551,l),
(473,630,l),
(473,630,l),
(394,630,l),
(394,630,l),
(394,709,l),
(315,709,l),
(315,709,l),
(315,788,l),
(315,866,l),
(315,866,l),
(394,866,l),
(394,866,l),
(394,945,l),
(158,945,l),
(0,945,l),
(0,709,l),
(0,551,l)
);
}
);
width = 1024;
}
);
note = scale;
unicode = 61539;
},
{
glyphname = tweak;
lastChange = "2023-04-13 12:28:50 +0000";
layers = (
{
layerId = m01;
shapes = (
{
closed = 1;
nodes = (
(945,79,l),
(866,79,l),
(866,0,l),
(866,-79,l),
(945,-79,l),
(945,-79,l),
(945,0,l),
(945,79,l),
(1024,79,l),
(1103,79,l),
(1103,79,l),
(1103,158,l),
(1024,158,l),
(945,158,l),
(945,79,l),
(945,79,l)
);
},
{
closed = 1;
nodes = (
(315,709,l),
(236,709,l),
(236,394,l),
(236,158,l),
(551,158,l),
(866,158,l),
(866,394,l),
(866,709,l),
(788,709,l),
(788,709,l),
(788,709,l),
(788,788,l),
(551,788,l),
(315,788,l),
(315,709,l),
(315,709,l)
);
},
{
closed = 1;
nodes = (
(473,551,l),
(394,551,l),
(394,473,l),
(394,473,l),
(315,473,l),
(315,473,l),
(315,551,l),
(315,709,l),
(394,709,l),
(473,709,l),
(473,630,l),
(473,551,l)
);
},
{
closed = 1;
nodes = (
(788,315,l),
(788,315,l),
(788,236,l),
(788,236,l),
(551,236,l),
(315,236,l),
(315,236,l),
(315,315,l),
(315,315,l),
(394,315,l),
(394,315,l),
(394,394,l),
(473,394,l),
(551,394,l),
(551,394,l),
(551,473,l),
(630,473,l),
(709,473,l),
(709,394,l),
(709,315,l)
);
},
{
closed = 1;
nodes = (
(79,788,l),
(0,788,l),
(0,709,l),
(0,709,l),
(79,709,l),
(158,709,l),
(158,709,l),
(158,788,l),
(158,788,l),
(236,788,l),
(236,866,l),
(236,945,l),
(158,945,l),
(158,945,l),
(158,866,l),
(158,788,l)
);
}
);
width = 1103;
}
);
note = tweak;
unicode = 61540;
},
{
glyphname = rotate;
lastChange = "2023-04-13 12:28:50 +0000";
layers = (
{
layerId = m01;
shapes = (
{
closed = 1;
nodes = (
(473,236,l),
(630,236,l),
(630,394,l),
(630,630,l),
(473,630,ls),
(315,630,o),
(394,630,q),
(394,394,l),
(394,236,l)
);
},
{
closed = 1;
nodes = (
(236,866,l),
(158,866,l),
(158,788,l),
(158,788,l),
(158,788,l),
(79,788,l),
(79,709,l),
(79,630,l),
(0,630,l),
(0,630,l),
(0,394,l),
(0,236,l),
(0,236,l),
(79,236,l),
(79,158,l),
(79,79,l),
(158,79,l),
(158,79,l),
(158,0,l),
(158,0,l),
(236,0,l),
(315,0,l),
(315,-79,l),
(315,-79,l),
(473,-79,ls),
(630,-79,o),
(709,-79,q),
(709,-79,l),
(709,0,l),
(788,0,l),
(866,0,l),
(866,0,l),
(866,79,l),
(945,79,l),
(945,79,l),
(945,158,l),
(945,236,l),
(945,236,l),
(866,236,l),
(866,158,l),
(866,158,l),
(788,158,l),
(788,158,l),
(788,79,l),
(788,79,l),
(709,79,l),
(630,79,l),
(630,0,l),
(630,0,l),
(473,0,ls),
(315,0,o),
(394,0,q),
(394,0,l),
(394,79,l),
(315,79,l),
(236,79,l),
(236,79,l),
(236,158,l),
(158,158,l),
(158,158,l),
(158,236,l),
(158,315,l),
(158,315,l),
(79,315,l),
(79,394,l),
(79,551,l),
(158,551,l),
(158,551,l),
(158,630,l),
(158,709,l),
(158,709,l),
(236,709,l),
(236,709,l),
(236,788,l),
(315,788,l),
(394,788,l),
(394,788,l),
(394,866,l),
(473,866,l),
(630,866,l),
(630,788,l),
(630,788,l),
(709,788,l),
(788,788,l),
(788,709,l),
(788,709,l),
(788,709,l),
(866,709,l),
(866,630,l),
(866,551,l),
(788,551,l),
(788,551,l),
(788,551,l),
(788,630,l),
(788,630,l),
(709,630,l),
(709,551,l),
(709,551,l),
(788,551,l),
(788,551,l),
(788,473,l),
(788,473,l),
(788,473,l),
(866,473,l),
(866,394,l),
(866,394,l),
(945,394,l),
(945,394,l),
(945,394,l),
(945,473,l),
(945,473,l),
(1024,473,l),
(1024,473,l),
(1024,551,l),
(1103,551,l),
(1103,551,l),
(1103,551,l),
(1103,630,l),
(1103,630,l),
(1024,630,l),
(1024,551,l),
(1024,551,l),
(945,551,l),
(945,551,l),
(945,630,l),
(945,788,l),
(945,788,l),
(866,788,l),
(866,788,l),
(866,866,l),
(788,866,l),
(709,866,l),
(709,866,l),
(709,945,l),
(473,945,l),
(315,945,l),
(315,866,l),
(315,866,l)
);
}
);
width = 1103;
}
);
note = rotate;
unicode = 61541;
},
{
glyphname = filter;
layers = (
{
layerId = m01;
shapes = (
{
closed = 1;
nodes = (
(473,473,l),
(551,473,l),
(551,551,l),
(551,630,l),
(473,630,l),
(394,630,l),
(394,551,l),
(394,473,l)
);
},
{
closed = 1;
nodes = (
(788,866,l),
(709,866,l),
(709,866,l),
(709,788,l),
(315,788,l),
(0,788,l),
(0,473,l),
(0,79,l),
(315,79,ls),
(630,79,o),
(709,79,q),
(709,158,l),
(709,236,l),
(630,236,l),
(630,236,l),
(630,315,l),
(630,315,l),
(709,315,l),
(788,315,l),
(788,315,l),
(788,236,l),
(788,236,l),
(866,236,l),
(866,236,l),
(866,158,l),
(945,158,l),
(945,158,l),
(945,236,l),
(945,236,l),
(945,236,l),
(1024,236,l),
(1024,315,l),
(1024,315,l),
(945,315,l),
(945,315,l),
(945,394,l),
(945,394,l),
(945,394,l),
(866,394,l),
(866,473,l),
(866,473,l),
(945,473,l),
(945,473,l),
(945,551,l),
(945,551,l),
(945,551,l),
(1024,551,l),
(1024,630,l),
(1024,709,l),
(945,709,l),
(945,709,l),
(945,709,l),
(945,630,l),
(945,630,l),
(866,630,l),
(866,630,l),
(866,551,l),
(788,551,l),
(788,551,l),
(788,551,l),
(788,473,l),
(788,473,l),
(709,473,l),
(709,630,l),
(709,788,l),
(788,788,l),
(788,788,l),
(788,788,l),
(788,709,l),
(788,709,l),
(866,709,l),
(866,788,l),
(866,788,l),
(945,788,l),
(945,788,l),
(945,866,l),
(945,866,l),
(945,866,l),
(866,866,l),
(866,945,l),
(866,945,l),
(788,945,l),
(788,945,l),
(788,945,l),
(788,866,l)
);
},
{
closed = 1;
nodes = (
(788,788,l),
(788,788,l),
(788,866,l),
(788,866,l),
(788,866,l),
(866,866,l),
(866,866,l),
(866,788,l)
);
},
{
closed = 1;
nodes = (
(630,473,l),
(709,473,l),
(709,473,l),
(709,394,l),
(630,394,l),
(630,394,l),
(630,394,l),
(630,315,l),
(630,315,l),
(551,315,l),
(551,315,l),
(551,236,l),
(630,236,l),
(630,236,l),
(630,236,l),
(630,158,l),
(315,158,ls),
(0,158,o),
(79,158,q),
(79,236,l),
(79,236,l),
(315,236,l),
(473,236,l),
(473,315,l),
(473,315,l),
(473,315,l),
(394,315,l),
(394,394,l),
(394,394,l),
(315,394,l),
(315,394,l),
(315,473,l),
(315,473,l),
(315,473,l),
(236,473,l),
(236,551,l),
(236,551,l),
(158,551,l),
(158,551,l),
(158,473,l),
(158,394,l),
(158,394,l),
(79,394,l),
(79,551,l),
(79,709,l),
(315,709,l),
(630,709,l),
(630,630,l),
(630,473,l)
);
},
{
closed = 1;
nodes = (
(945,315,l),
(945,315,l),
(945,315,l),
(945,236,l),
(945,236,l),
(866,236,l),
(866,315,l),
(866,315,l),
(788,315,l),
(788,315,l),
(788,394,l),
(788,394,l),
(788,394,l),
(866,394,l),
(866,394,l),
(866,315,l)
);
}
);
width = 1024;
}
);
note = filter;
unicode = 61542;
},
{
glyphname = date;
lastChange = "2023-04-13 13:55:41 +0000";
layers = (
{
layerId = m01;
shapes = (
{
closed = 1;
nodes = (
(79,0,l),
(158,0,l),
(158,-79,l),
(158,-79,l),
(473,-79,ls),
(787,-79,o),
(866,-79,q),
(866,-79,l),
(866,0,l),
(945,0,l),
(1024,0,l),
(1024,236,l),
(1024,551,l),
(473,551,l),
(0,551,l),
(0,236,l),
(0,0,l)
);
},
{
closed = 1;
nodes = (
(276,315,l),
(158,315,l),
(158,394,l),
(158,473,l),
(276,473,l),
(335,473,l),
(335,394,l),
(335,315,l)
);
},
{
closed = 1;
nodes = (
(513,315,l),
(414,315,l),
(414,394,l),
(414,473,l),
(513,473,l),
(611,473,l),
(611,394,l),
(611,315,l)
);
},
{
closed = 1;
nodes = (
(749,315,l),
(690,315,l),
(690,394,l),
(690,473,l),
(749,473,l),
(868,473,l),
(868,394,l),
(868,315,l)
);
},
{
closed = 1;
nodes = (
(276,79,l),
(158,79,l),
(158,158,l),
(158,236,l),
(276,236,l),
(335,236,l),
(335,158,l),
(335,79,l)
);
},
{
closed = 1;
nodes = (
(513,79,l),
(414,79,l),
(414,158,l),
(414,236,l),
(513,236,l),
(611,236,l),
(611,158,l),
(611,79,l)
);
},
{
closed = 1;
nodes = (
(749,79,l),
(690,79,l),
(690,158,l),
(690,236,l),
(749,236,l),
(868,236,l),
(868,158,l),
(868,79,l)
);
},
{
closed = 1;
nodes = (
(158,866,l),
(79,866,l),
(79,788,l),
(79,788,l),
(0,788,l),
(0,788,l),
(0,709,l),
(0,630,l),
(473,630,ls),
(945,630,o),
(1024,630,q),
(1024,709,l),
(1024,788,l),
(945,788,l),
(945,788,l),
(945,788,l),
(945,866,l),
(866,866,l),
(788,866,l),
(788,866,l),
(788,945,l),
(788,945,l),
(709,945,l),
(709,866,l),
(709,866,l),
(473,866,l),
(315,866,l),
(315,866,l),
(315,945,l),
(315,945,l),
(236,945,l),
(236,866,l),
(236,866,l)
);
}
);
width = 1024;
}
);
note = date;
unicode = 61543;
},
{
glyphname = location;
lastChange = "2023-04-13 12:28:50 +0000";
layers = (
{
layerId = m01;
shapes = (
{
closed = 1;
nodes = (
(158,866,l),
(79,866,l),
(79,788,l),
(79,788,l),
(0,788,l),
(0,788,l),
(0,551,l),
(0,315,l),
(0,315,l),
(79,315,l),
(79,236,l),
(79,158,l),
(158,158,l),
(158,158,l),
(158,79,l),
(158,79,l),
(158,79,l),
(236,79,l),
(236,0,l),
(236,0,l),
(315,0,l),
(315,0,l),
(315,-79,l),
(315,-79,l),
(315,-79,l),
(394,-79,l),
(394,-79,l),
(394,0,l),
(473,0,l),
(473,0,l),
(473,0,l),
(473,79,l),
(473,79,l),
(551,79,l),
(551,79,l),
(551,158,l),
(630,158,l),
(630,158,l),
(630,236,l),
(630,315,l),
(630,315,l),
(709,315,l),
(709,551,l),
(709,788,l),
(630,788,l),
(630,788,l),
(630,788,l),
(630,866,l),
(630,866,l),
(551,866,l),
(551,866,l),
(551,945,l),
(315,945,l),
(158,945,l),
(158,866,l),
(158,866,l)
);
},
{
closed = 1;
nodes = (
(473,709,l),
(551,709,l),
(551,551,l),
(551,473,l),
(473,473,l),
(473,473,l),
(473,394,l),
(473,394,l),
(315,394,ls),
(157,394,o),
(236,394,q),
(236,394,l),
(236,473,l),
(158,473,l),
(158,473,l),
(158,551,l),
(158,709,l),
(158,709,l),
(236,709,l),
(236,709,l),
(236,788,l),
(315,788,l),
(473,788,l),
(473,709,l),
(473,709,l)
);
}
);
width = 709;
}
);
note = location;
unicode = 61544;
},
{
glyphname = "gender-girl";
layers = (
{
layerId = m01;
shapes = (
{
closed = 1;
nodes = (
(788,866,l),
(788,866,l),
(788,788,l),
(788,788,l),
(788,788,l),
(709,788,l),
(709,709,l),
(709,709,l),
(630,709,l),
(630,709,l),
(630,709,l),
(630,788,l),
(473,788,ls),
(315,788,o),
(236,788,q),
(236,709,l),
(236,709,l),
(158,709,l),
(158,709,l),
(158,630,l),
(158,630,l),
(158,630,l),
(79,630,l),
(79,551,l),
(79,551,l),
(0,551,l),
(0,551,l),
(0,315,l),
(0,158,l),
(0,158,l),
(79,158,l),
(79,79,l),
(79,79,l),
(158,79,l),
(158,79,l),
(158,0,l),
(158,0,l),
(158,0,l),
(236,0,l),
(236,-79,l),
(236,-79,l),
(473,-79,l),
(630,-79,l),
(630,-79,l),
(630,0,l),
(630,0,l),
(709,0,l),
(709,0,l),
(709,79,l),
(788,79,l),
(788,79,l),
(788,79,l),
(788,158,l),
(788,158,l),
(866,158,l),
(866,315,l),
(866,551,l),
(788,551,l),
(788,551,l),
(788,551,l),
(788,630,l),
(788,630,l),
(866,630,l),
(866,630,l),
(866,709,l),
(945,709,l),
(945,709,l),
(945,630,l),
(945,630,l),
(945,630,l),
(1024,630,l),
(1024,630,l),
(1024,709,l),
(945,709,l),
(945,709,l),
(945,709,l),
(945,788,l),
(945,788,l),
(1024,788,l),
(1024,866,l),
(1024,945,l),
(945,945,l),
(866,945,l),
(866,866,l),
(866,866,l),
(788,866,l),
(788,866,l),
(788,866,l),
(788,945,l),
(788,945,l),
(709,945,l),
(709,866,l),
(709,866,l)
);
},
{
closed = 1;
nodes = (
(630,551,l),
(630,551,l),
(630,473,l),
(630,473,l),
(630,473,l),
(709,473,l),
(709,315,l),
(709,236,l),
(630,236,l),
(630,236,l),
(630,158,l),
(630,158,l),
(630,158,l),
(551,158,l),
(551,79,l),
(551,79,l),
(473,79,l),
(315,79,l),
(315,79,l),
(315,158,l),
(315,158,l),
(236,158,l),
(236,158,l),
(236,236,l),
(158,236,l),
(158,236,l),
(158,315,l),
(158,473,l),
(158,473,l),
(236,473,l),
(236,473,l),
(236,551,l),
(315,551,l),
(315,551,l),
(315,551,l),
(315,630,l),
(473,630,ls),
(630,630,o),
(551,630,q),
(551,551,l),
(551,551,l)
);
}
);
width = 1024;
}
);
note = "gender-girl";
unicode = 61545;
},
{
glyphname = "gender-boy";
layers = (
{
layerId = m01;
shapes = (
{
closed = 1;
nodes = (
(709,866,l),
(788,866,l),
(788,788,l),
(788,788,l),
(788,788,l),
(709,788,l),
(709,709,l),
(709,709,l),
(630,709,l),
(630,709,l),
(630,709,l),
(630,788,l),
(473,788,ls),
(315,788,o),
(236,788,q),
(236,709,l),
(236,709,l),
(158,709,l),
(158,709,l),
(158,630,l),
(158,630,l),
(158,630,l),
(79,630,l),
(79,551,l),
(79,551,l),
(0,551,l),
(0,551,l),
(0,315,l),
(0,158,l),
(0,158,l),
(79,158,l),
(79,79,l),
(79,79,l),
(158,79,l),
(158,79,l),
(158,0,l),
(158,0,l),
(158,0,l),
(236,0,l),
(236,-79,l),
(236,-79,l),
(473,-79,l),
(630,-79,l),
(630,-79,l),
(630,0,l),
(630,0,l),
(709,0,l),
(709,0,l),
(709,79,l),
(788,79,l),
(788,79,l),
(788,79,l),
(788,158,l),
(788,158,l),
(866,158,l),
(866,315,l),
(866,551,l),
(788,551,l),
(788,551,l),
(788,551,l),
(788,630,l),
(788,630,l),
(866,630,l),
(866,630,l),
(866,709,l),
(945,709,l),
(945,709,l),
(945,630,l),
(945,551,l),
(945,551,l),
(1024,551,l),
(1024,709,l),
(1024,945,l),
(788,945,l),
(630,945,l),
(630,866,l),
(630,866,l)
);
},
{
closed = 1;
nodes = (
(630,551,l),
(630,551,l),
(630,473,l),
(630,473,l),
(630,473,l),
(709,473,l),
(709,315,l),
(709,236,l),
(630,236,l),
(630,236,l),
(630,158,l),
(630,158,l),
(630,158,l),
(551,158,l),
(551,79,l),
(551,79,l),
(473,79,l),
(315,79,l),
(315,79,l),
(315,158,l),
(315,158,l),
(236,158,l),
(236,158,l),
(236,236,l),
(158,236,l),
(158,236,l),
(158,315,l),
(158,473,l),
(158,473,l),
(236,473,l),
(236,473,l),
(236,551,l),
(315,551,l),
(315,551,l),
(315,551,l),
(315,630,l),
(473,630,ls),
(630,630,o),
(551,630,q),
(551,551,l),
(551,551,l)
);
}
);
width = 1024;
}
);
note = "gender-boy";
unicode = 61546;
},
{
glyphname = birthday;
lastChange = "2023-04-13 12:19:57 +0000";
layers = (
{
layerId = m01;
shapes = (
{
closed = 1;
nodes = (
(158,551,ls),
(0,551,o),
(79,551,q),
(79,473,l),
(79,473,l),
(0,473,l),
(0,473,l),
(0,315,l),
(0,236,l),
(0,236,l),
(79,236,l),
(79,158,l),
(79,158,l),
(0,158,l),
(0,158,l),
(0,0,l),
(0,-79,l),
(394,-79,l),
(788,-79,l),
(788,0,l),
(788,158,l),
(788,158,l),
(709,158,l),
(709,158,l),
(709,236,l),
(788,236,l),
(788,236,l),
(788,315,l),
(788,473,l),
(709,473,l),
(630,473,l),
(630,473,l),
(630,551,l),
(551,551,l),
(473,551,l),
(473,551,l),
(473,630,l),
(394,630,l),
(315,630,l),
(315,551,l),
(315,551,l)
);
},
{
closed = 1;
nodes = (
(394,158,l),
(473,158,l),
(473,158,l),
(473,236,l),
(551,236,l),
(630,236,l),
(630,158,l),
(630,158,l),
(630,158,l),
(709,158,l),
(709,79,l),
(709,79,l),
(630,79,l),
(630,79,l),
(630,79,l),
(630,158,l),
(551,158,l),
(473,158,l),
(473,79,l),
(473,79,l),
(394,79,l),
(315,79,l),
(315,79,l),
(315,158,l),
(236,158,l),
(158,158,l),
(158,79,l),
(158,79,l),
(158,79,l),
(79,79,l),
(79,79,l),
(79,158,l),
(158,158,l),
(158,158,l),
(158,158,l),
(158,236,l),
(236,236,l),
(315,236,l),
(315,158,l),
(315,158,l)
);
},
{
closed = 1;
nodes = (
(394,709,l),
(473,709,l),
(473,788,l),
(473,866,l),
(473,866,l),
(394,866,l),
(394,866,l),
(394,945,l),
(315,945,l),
(315,945,l),
(315,788,l),
(315,709,l)
);
}
);
width = 788;
}
);
note = birthday;
unicode = 61547;
},
{
glyphname = poll;
lastChange = "2023-04-13 12:20:04 +0000";
layers = (
{
layerId = m01;
shapes = (
{
closed = 1;
nodes = (
(158,788,l),
(79,788,l),
(79,788,l),
(79,709,l),
(0,709,l),
(0,709,l),
(0,551,l),
(0,315,l),
(0,315,l),
(79,315,l),
(79,315,l),
(79,236,l),
(158,236,l),
(158,236,l),
(158,158,l),
(158,0,l),
(158,0,l),
(236,0,l),
(236,79,l),
(236,79,l),
(315,79,l),
(315,79,l),
(315,158,l),
(315,158,l),
(473,158,l),
(630,158,l),
(630,236,l),
(630,236,l),
(709,236,l),
(788,236,l),
(788,315,l),
(788,315,l),
(788,315,l),
(866,315,l),
(866,551,l),
(866,709,l),
(788,709,l),
(788,709,l),
(788,788,l),
(788,788,l),
(709,788,l),
(630,788,l),
(630,866,l),
(630,866,l),
(473,866,ls),
(315,866,o),
(236,866,q),
(236,866,l),
(236,788,l)
);
},
{
closed = 1;
nodes = (
(473,315,l),
(394,315,l),
(394,551,l),
(394,709,l),
(473,709,l),
(473,709,l),
(473,551,l),
(473,315,l)
);
},
{
closed = 1;
nodes = (
(630,315,l),
(551,315,l),
(551,473,l),
(551,630,l),
(630,630,l),
(630,630,l),
(630,473,l),
(630,315,l)
);
},
{
closed = 1;
nodes = (
(315,315,l),
(236,315,l),
(236,394,l),
(236,473,l),
(315,473,l),
(315,473,l),
(315,394,l),
(315,315,l)
);
}
);
width = 866;
}
);
note = poll;
unicode = 61548;
},
{
glyphname = show;
lastChange = "2023-04-13 12:28:50 +0000";
layers = (
{
layerId = m01;
shapes = (
{
closed = 1;
nodes = (
(630,551,l),
(709,551,l),
(709,473,l),
(709,315,l),
(630,315,l),
(630,315,l),
(630,315,l),
(630,236,l),
(630,236,l),
(709,236,l),
(709,315,l),
(709,315,l),
(788,315,l),
(788,315,l),
(788,473,l),
(788,551,l),
(788,551,l),
(709,551,l),
(709,630,l),
(709,630,l),
(630,630,l),
(630,630,l),
(630,630,l),
(630,551,l)
);
},
{
closed = 1;
nodes = (
(315,551,l),
(315,551,l),
(315,473,l),
(315,315,l),
(315,315,l),
(394,315,l),
(394,315,l),
(394,236,l),
(473,236,l),
(473,236,l),
(473,315,l),
(473,315,l),
(473,315,l),
(394,315,l),
(394,473,l),
(394,551,l),
(473,551,l),
(473,551,l),
(473,630,l),
(473,630,l),
(473,630,l),
(394,630,l),
(394,630,l),
(394,551,l)
);
},
{
closed = 1;
nodes = (
(236,709,l),
(158,709,l),
(158,709,l),
(158,630,l),
(158,630,l),
(79,630,l),
(79,630,l),
(79,551,l),
(0,551,l),
(0,551,l),
(0,473,l),
(0,315,l),
(0,315,l),
(79,315,l),
(79,315,l),
(79,236,l),
(158,236,l),
(158,236,l),
(158,236,l),
(158,158,l),
(236,158,l),
(315,158,l),
(315,158,l),
(315,79,l),
(551,79,l),
(788,79,l),
(788,158,l),
(788,158,l),
(866,158,l),
(945,158,l),
(945,236,l),
(945,236,l),
(945,236,l),
(1024,236,l),
(1024,315,l),
(1024,315,l),
(1103,315,l),
(1103,315,l),
(1103,473,l),
(1103,551,l),
(1103,551,l),
(1024,551,l),
(1024,630,l),
(1024,630,l),
(945,630,l),
(945,630,l),
(945,709,l),
(945,709,l),
(866,709,l),
(788,709,l),
(788,788,l),
(788,788,l),
(551,788,l),
(315,788,l),
(315,788,l),
(315,709,l)
);
},
{
closed = 1;
nodes = (
(551,630,l),
(630,630,l),
(630,709,l),
(630,709,l),
(709,709,l),
(788,709,l),
(788,709,l),
(788,630,l),
(866,630,l),
(945,630,l),
(945,630,l),
(945,551,l),
(945,551,l),
(1024,551,l),
(1024,473,l),
(1024,315,l),
(945,315,l),
(945,315,l),
(945,315,l),
(945,236,l),
(866,236,l),
(788,236,l),
(788,236,l),
(788,158,l),
(709,158,l),
(630,158,l),
(630,236,l),
(630,236,l),
(551,236,l),
(473,236,l),
(473,236,l),
(473,158,l),
(394,158,l),
(315,158,l),
(315,236,l),
(315,236,l),
(236,236,l),
(158,236,l),
(158,315,l),
(158,315,l),
(158,315,l),
(79,315,l),
(79,473,l),
(79,551,l),
(158,551,l),
(158,551,l),
(158,630,l),
(158,630,l),
(236,630,l),
(315,630,l),
(315,709,l),
(315,709,l),
(394,709,l),
(473,709,l),
(473,709,l),
(473,630,l)
);
}
);
width = 1103;
}
);
note = show;
unicode = 61549;
},
{
glyphname = hide;
lastChange = "2023-04-13 12:28:50 +0000";
layers = (
{
layerId = m01;
shapes = (
{
closed = 1;
nodes = (
(315,551,l),
(315,551,l),
(315,394,l),
(315,315,l),
(315,315,l),
(394,315,l),
(394,394,l),
(394,551,l),
(473,551,l),
(473,551,l),
(473,551,l),
(473,630,l),
(473,630,l),
(394,630,l),
(394,551,l),
(394,551,l)
);
},
{
closed = 1;
nodes = (
(945,551,l),
(1024,551,l),
(1024,394,l),
(1024,315,l),
(945,315,l),
(945,315,l),
(945,236,l),
(945,236,l),
(866,236,l),
(788,236,l),
(788,158,l),
(788,158,l),
(630,158,l),
(473,158,l),
(473,79,l),
(473,79,l),
(630,79,l),
(788,79,l),
(788,79,l),
(788,158,l),
(866,158,l),
(945,158,l),
(945,158,l),
(945,236,l),
(945,236,l),
(1024,236,l),
(1024,236,l),
(1024,315,l),
(1103,315,l),
(1103,315,l),
(1103,394,l),
(1103,551,l),
(1103,551,l),
(1024,551,l),
(1024,551,l),
(1024,630,l),
(945,630,l),
(945,630,l),
(945,551,l),
(945,551,l)
);
},
{
closed = 1;
nodes = (
(945,866,l),
(945,866,l),
(945,788,l),
(945,788,l),
(945,788,l),
(866,788,l),
(866,709,l),
(866,709,l),
(788,709,l),
(788,709,l),
(788,709,l),
(788,788,l),
(551,788,l),
(315,788,l),
(315,709,l),
(315,709,l),
(236,709,l),
(158,709,l),
(158,630,l),
(158,630,l),
(158,630,l),
(79,630,l),
(79,551,l),
(79,551,l),
(0,551,l),
(0,551,l),
(0,394,l),
(0,315,l),
(0,315,l),
(79,315,l),
(79,236,l),
(79,236,l),
(158,236,l),
(158,236,l),
(158,158,l),
(158,158,l),
(158,158,l),
(236,158,l),
(236,79,l),
(236,79,l),
(158,79,l),
(158,79,l),
(158,0,l),
(158,0,l),
(158,0,l),
(79,0,l),
(79,-79,l),
(79,-79,l),
(158,-79,l),
(158,-79,l),
(158,-79,l),
(158,0,l),
(158,0,l),
(236,0,l),
(236,0,l),
(236,79,l),
(315,79,l),
(315,79,l),
(315,79,l),
(315,158,l),
(315,158,l),
(394,158,l),
(394,158,l),
(394,236,l),
(473,236,l),
(473,236,l),
(473,236,l),
(473,315,l),
(473,315,l),
(551,315,l),
(551,315,l),
(551,394,l),
(630,394,l),
(630,394,l),
(630,394,l),
(630,473,l),
(630,473,l),
(709,473,l),
(709,473,l),
(709,551,l),
(788,551,l),
(788,551,l),
(788,551,l),
(788,630,l),
(788,630,l),
(866,630,l),
(866,630,l),
(866,709,l),
(945,709,l),
(945,709,l),
(945,709,l),
(945,788,l),
(945,788,l),
(1024,788,l),
(1024,788,l),
(1024,866,l),
(1103,866,l),
(1103,866,l),
(1103,866,l),
(1103,945,l),
(1103,945,l),
(1024,945,l),
(1024,866,l),
(1024,866,l)
);
},
{
closed = 1;
nodes = (
(551,630,l),
(630,630,l),
(630,630,l),
(630,709,l),
(709,709,l),
(788,709,l),
(788,630,l),
(788,630,l),
(709,630,l),
(630,630,l),
(630,551,l),
(630,473,l),
(630,473,l),
(551,473,l),
(551,394,l),
(551,394,l),
(473,394,l),
(473,394,l),
(473,315,l),
(473,315,l),
(473,315,l),
(394,315,l),
(394,236,l),
(394,236,l),
(315,236,l),
(315,236,l),
(315,158,l),
(315,158,l),
(315,158,l),
(236,158,l),
(236,158,l),
(236,236,l),
(158,236,l),
(158,236,l),
(158,236,l),
(158,315,l),
(158,315,l),
(79,315,l),
(79,394,l),
(79,551,l),
(158,551,l),
(158,551,l),
(158,551,l),
(158,630,l),
(236,630,l),
(315,630,l),
(315,630,l),
(315,709,l),
(394,709,l),
(473,709,l),
(473,630,l),
(473,630,l)
);
}
);
width = 1103;
}
);
note = hide;
unicode = 61550;
},
